<?xml version="1.0" encoding="iso-8859-1"?>
<!-- Generator: Adobe Illustrator 26.3.1, SVG Export Plug-In . SVG Version: 6.00 Build 0)  -->
<svg version="1.1" id="Layer_1" xmlns="http://www.w3.org/2000/svg" xmlns:xlink="http://www.w3.org/1999/xlink" x="0px" y="0px"
	 viewBox="0 0 208 69" style="enable-background:new 0 0 208 69;" xml:space="preserve">
<path style="fill:#000000;" d="M47.204,20.347l0.346,0.138c0.138,0,0.277-0.069,0.381-0.173l0.554-0.658
	c0.208-0.208,0.173-0.554-0.035-0.727c-0.208-0.173-0.519-0.173-0.727,0.035l-0.588,0.657
	C46.961,19.827,46.996,20.174,47.204,20.347z M48.899,22.008c0.104,0.104,0.242,0.173,0.381,0.173l0.346-0.138l1.453-1.28
	c0.208-0.173,0.208-0.484,0.035-0.692c-0.173-0.208-0.519-0.242-0.692-0.035l-1.419,1.28C48.692,21.489,48.692,21.8,48.899,22.008z
	 M50.353,23.841c0.104,0.138,0.242,0.208,0.381,0.208l0.277-0.104l2.595-1.799c0.208-0.138,0.277-0.45,0.138-0.657
	c-0.138-0.208-0.45-0.277-0.657-0.138l-2.63,1.799C50.249,23.323,50.18,23.634,50.353,23.841z M51.564,25.848
	c0.104,0.173,0.242,0.242,0.415,0.242l0.208-0.069l4.152-2.18c0.242-0.104,0.311-0.415,0.208-0.623
	c-0.104-0.242-0.415-0.312-0.623-0.208l-4.152,2.18C51.529,25.33,51.46,25.641,51.564,25.848z M52.567,27.994
	c0.069,0.173,0.242,0.312,0.415,0.312l0.173-0.035l5.986-2.284c0.242-0.104,0.346-0.346,0.242-0.588
	c-0.104-0.242-0.346-0.346-0.588-0.277l-5.986,2.249C52.567,27.51,52.463,27.752,52.567,27.994z M53.259,30.243
	c0.069,0.208,0.242,0.346,0.415,0.346h0.104l8.132-2.007c0.242-0.069,0.381-0.311,0.311-0.519c-0.069-0.242-0.311-0.381-0.554-0.311
	l-8.097,2.007C53.363,29.759,53.225,30.001,53.259,30.243z M53.709,32.562c0.035,0.208,0.208,0.381,0.415,0.381h0.069l10.485-1.28
	c0.242-0.035,0.415-0.242,0.381-0.484c-0.035-0.242-0.242-0.415-0.484-0.381l-10.485,1.28
	C53.847,32.112,53.674,32.354,53.709,32.562z M67.274,35.33c0.208,0,0.415-0.173,0.415-0.415s-0.208-0.415-0.415-0.415H54.54
	c-0.208,0-0.415,0.173-0.415,0.415s0.208,0.415,0.415,0.415H67.274z M67.896,39.378c0.208,0,0.346-0.138,0.381-0.346
	c0.035-0.208-0.138-0.415-0.346-0.415L54.54,36.991c-0.208-0.035-0.381,0.138-0.45,0.346c-0.035,0.208,0.138,0.415,0.346,0.415
	L67.896,39.378z M67.066,43.392h0.069c0.173,0,0.311-0.104,0.381-0.277c0.035-0.208-0.069-0.381-0.277-0.45l-12.872-3.184
	c-0.208-0.035-0.415,0.069-0.45,0.277c-0.069,0.208,0.069,0.381,0.242,0.45L67.066,43.392z M65.82,47.268l0.138,0.035
	c0.138,0,0.277-0.104,0.311-0.242c0.069-0.173,0-0.381-0.208-0.45l-12.007-4.568c-0.173-0.069-0.381,0.035-0.45,0.208
	c-0.069,0.173,0,0.381,0.208,0.45L65.82,47.268z M64.125,50.971l0.138,0.035l0.312-0.173c0.069-0.173,0-0.381-0.139-0.45
	l-10.831-5.675c-0.173-0.104-0.381-0.035-0.45,0.139c-0.104,0.173-0.035,0.381,0.138,0.45L64.125,50.971z M61.979,54.431
	l0.208,0.069l0.242-0.138c0.104-0.138,0.069-0.346-0.069-0.45l-9.447-6.505c-0.138-0.104-0.346-0.069-0.45,0.069
	c-0.104,0.138-0.069,0.346,0.104,0.45L61.979,54.431z M59.419,57.614l0.208,0.069l0.242-0.104c0.138-0.138,0.138-0.346-0.035-0.45
	l-7.855-6.955l-0.45,0.035c-0.104,0.138-0.104,0.346,0.035,0.45L59.419,57.614z M56.512,60.486l0.242,0.104l0.208-0.069v-0.415
	l-6.125-6.921l-0.415-0.035l-0.035,0.45L56.512,60.486z M53.294,62.978l0.242,0.138l0.173-0.069
	c0.138-0.104,0.138-0.277,0.069-0.415l-4.429-6.436c-0.104-0.139-0.277-0.173-0.415-0.069c-0.139,0.104-0.173,0.277-0.069,0.415
	L53.294,62.978z M49.764,65.054l0.242,0.138l0.138-0.035c0.138-0.069,0.173-0.242,0.104-0.381l-2.837-5.398
	c-0.069-0.139-0.242-0.208-0.381-0.104c-0.138,0.069-0.208,0.242-0.138,0.381L49.764,65.054z M46.062,66.68l0.242,0.173h0.069
	c0.138-0.069,0.208-0.208,0.173-0.346l-1.453-3.876c-0.035-0.138-0.208-0.208-0.346-0.138c-0.138,0.035-0.208,0.208-0.138,0.346
	L46.062,66.68z M42.152,67.892l0.242,0.173h0.069l0.173-0.311l-0.45-1.799c-0.035-0.138-0.173-0.208-0.311-0.173
	c-0.138,0.035-0.208,0.173-0.173,0.311L42.152,67.892z M49.557,49.137l0.311,0.138c0.139,0,0.312-0.069,0.381-0.173
	c0.208-0.208,0.173-0.554-0.035-0.727l-0.657-0.588c-0.208-0.173-0.554-0.173-0.727,0.035c-0.208,0.208-0.138,0.554,0.069,0.727
	L49.557,49.137z M48.449,51.663c0.104,0.104,0.242,0.173,0.381,0.173l0.346-0.138c0.208-0.173,0.208-0.484,0.035-0.692l-1.28-1.419
	c-0.173-0.208-0.519-0.242-0.692-0.035c-0.208,0.173-0.208,0.485-0.035,0.692L48.449,51.663z M47.065,54.292
	c0.069,0.138,0.242,0.208,0.381,0.208l0.277-0.104c0.208-0.138,0.277-0.45,0.138-0.692l-1.799-2.63
	c-0.173-0.208-0.45-0.277-0.692-0.139c-0.208,0.173-0.277,0.45-0.104,0.657L47.065,54.292z M45.335,56.992
	c0.104,0.173,0.242,0.242,0.415,0.242l0.208-0.035c0.242-0.104,0.311-0.415,0.208-0.623l-2.18-4.152
	c-0.138-0.242-0.381-0.311-0.623-0.208c-0.242,0.104-0.311,0.415-0.208,0.623L45.335,56.992z M43.224,59.76
	c0.069,0.173,0.242,0.277,0.415,0.277l0.173-0.035c0.242-0.104,0.346-0.346,0.242-0.588l-2.284-5.986
	c-0.069-0.242-0.346-0.346-0.588-0.277c-0.242,0.104-0.381,0.346-0.277,0.588L43.224,59.76z M40.629,62.563
	c0.069,0.208,0.242,0.346,0.45,0.346h0.104c0.242-0.069,0.381-0.277,0.311-0.519l-2.007-8.132c-0.035-0.242-0.277-0.381-0.519-0.312
	c-0.242,0.069-0.381,0.312-0.311,0.519L40.629,62.563z M37.549,65.331c0.035,0.208,0.208,0.381,0.415,0.381h0.035
	c0.242-0.035,0.381-0.242,0.381-0.485l-1.28-10.485c-0.035-0.242-0.242-0.415-0.484-0.381c-0.242,0.035-0.415,0.242-0.381,0.484
	L37.549,65.331z M33.881,67.926c0,0.242,0.208,0.415,0.415,0.415c0.242,0,0.415-0.173,0.415-0.415V55.227
	c0-0.242-0.208-0.415-0.415-0.415c-0.208,0-0.415,0.173-0.415,0.415V67.926z M30.144,68.93h0.069c0.173,0,0.346-0.138,0.381-0.346
	l1.626-13.391c0.035-0.208-0.104-0.415-0.346-0.415c-0.208-0.035-0.381,0.138-0.415,0.346l-1.626,13.392
	C29.798,68.722,29.937,68.895,30.144,68.93z M26.096,68.168h0.069c0.173,0,0.311-0.104,0.346-0.277l3.184-12.873
	c0.069-0.208-0.069-0.415-0.242-0.45c-0.208-0.035-0.381,0.069-0.45,0.277l-3.184,12.872C25.784,67.926,25.888,68.134,26.096,68.168
	z M22.151,66.923l0.104,0.035c0.138,0,0.311-0.104,0.346-0.242l4.568-12.007c0.069-0.173-0.035-0.381-0.208-0.45
	c-0.208-0.069-0.381,0.035-0.45,0.208l-4.533,12.007C21.874,66.646,21.978,66.854,22.151,66.923z M18.379,65.227l0.138,0.035
	l0.311-0.173l5.71-10.831c0.104-0.173,0.035-0.381-0.138-0.45c-0.173-0.104-0.381-0.035-0.485,0.138l-5.675,10.831
	C18.171,64.916,18.241,65.123,18.379,65.227z M14.884,63.082l0.208,0.069l0.242-0.138l6.505-9.447
	c0.104-0.138,0.069-0.346-0.069-0.45c-0.138-0.104-0.346-0.069-0.45,0.069l-6.54,9.447C14.677,62.77,14.711,62.978,14.884,63.082z
	 M11.631,60.521l0.208,0.069l0.208-0.104l6.955-7.855c0.104-0.138,0.104-0.346-0.035-0.45c-0.139-0.104-0.346-0.104-0.45,0.035
	l-6.921,7.855C11.458,60.21,11.493,60.417,11.631,60.521z M8.69,57.58l0.242,0.104l0.208-0.069l6.921-6.159l0.035-0.415l-0.45-0.035
	l-6.921,6.159L8.69,57.58z M6.164,54.327l0.242,0.138l0.173-0.035l6.436-4.429l0.069-0.415c-0.069-0.138-0.277-0.173-0.415-0.069
	l-6.436,4.429C6.13,54.016,6.095,54.189,6.164,54.327z M4.053,50.798l0.242,0.138l0.138-0.035l5.398-2.837
	c0.138-0.069,0.173-0.242,0.104-0.381c-0.069-0.138-0.242-0.173-0.381-0.104l-5.398,2.838C4.053,50.486,3.984,50.659,4.053,50.798z
	 M2.392,47.026l0.242,0.173h0.069l3.876-1.453c0.138-0.035,0.208-0.208,0.173-0.346c-0.069-0.138-0.208-0.208-0.346-0.173
	L2.531,46.68C2.392,46.749,2.323,46.887,2.392,47.026z M1.181,43.081l0.242,0.208h0.069l1.799-0.45
	c0.138-0.035,0.208-0.173,0.173-0.311c-0.035-0.138-0.173-0.208-0.311-0.173l-1.799,0.45C1.216,42.839,1.147,42.977,1.181,43.081z
	 M20.109,50.936l0.346,0.139c0.138,0,0.277-0.069,0.381-0.173l0.588-0.657c0.208-0.208,0.173-0.519-0.035-0.727
	c-0.208-0.173-0.554-0.173-0.727,0.035l-0.588,0.658C19.902,50.417,19.902,50.728,20.109,50.936z M17.514,49.794
	c0.069,0.104,0.242,0.173,0.346,0.173l0.346-0.138l1.453-1.28c0.208-0.173,0.242-0.519,0.035-0.692
	c-0.208-0.208-0.484-0.242-0.692-0.035l-1.419,1.28C17.341,49.275,17.306,49.586,17.514,49.794z M14.815,48.375
	c0.104,0.138,0.242,0.208,0.381,0.208l0.277-0.104l2.595-1.799c0.208-0.138,0.277-0.45,0.138-0.657
	c-0.138-0.208-0.45-0.277-0.658-0.138l-2.63,1.799C14.711,47.856,14.677,48.168,14.815,48.375z M12.012,46.611
	c0.069,0.173,0.242,0.242,0.415,0.242l0.208-0.069l4.152-2.18c0.242-0.104,0.312-0.415,0.208-0.623
	c-0.138-0.242-0.415-0.311-0.623-0.208l-4.118,2.18C12.012,46.091,11.908,46.368,12.012,46.611z M9.175,44.465
	c0.069,0.173,0.242,0.277,0.45,0.277l0.138-0.035l5.986-2.284c0.242-0.069,0.346-0.346,0.242-0.588
	c-0.069-0.242-0.346-0.346-0.588-0.277l-5.952,2.319C9.209,43.946,9.105,44.223,9.175,44.465z M6.337,41.835
	c0.069,0.208,0.242,0.346,0.415,0.346h0.104l8.132-2.007c0.242-0.069,0.381-0.311,0.311-0.519c-0.069-0.242-0.311-0.381-0.554-0.312
	l-8.097,2.007C6.406,41.351,6.268,41.593,6.337,41.835z M3.534,38.652c0.035,0.208,0.208,0.381,0.415,0.381h0.035l10.485-1.28
	c0.242-0.035,0.415-0.242,0.381-0.485c-0.035-0.242-0.242-0.381-0.484-0.381L3.88,38.167C3.673,38.236,3.5,38.444,3.534,38.652z
	 M14.019,35.33c0.208,0,0.415-0.173,0.415-0.415s-0.208-0.415-0.415-0.415H1.285c-0.208,0-0.415,0.173-0.415,0.415
	s0.208,0.415,0.45,0.415H14.019z M14.019,32.873h0.035c0.208,0,0.381-0.138,0.381-0.346c0.035-0.208-0.138-0.415-0.346-0.415
	L0.697,30.485c-0.208-0.035-0.415,0.138-0.45,0.346c-0.035,0.208,0.138,0.415,0.311,0.415L14.019,32.873z M14.192,30.347h0.104
	c0.173,0,0.311-0.104,0.346-0.277c0.069-0.208-0.069-0.415-0.277-0.45L1.493,26.437c-0.173-0.035-0.381,0.069-0.45,0.277
	c-0.035,0.208,0.069,0.415,0.277,0.45L14.192,30.347z M14.503,27.821l0.138,0.035c0.139,0,0.277-0.069,0.311-0.242
	c0.069-0.173-0.035-0.381-0.208-0.45L2.704,22.596c-0.173-0.069-0.381,0.035-0.45,0.208c-0.069,0.173,0.035,0.381,0.208,0.45
	L14.503,27.821z M14.988,25.191l0.173,0.035l0.311-0.173c0.104-0.173,0.035-0.381-0.138-0.45L4.503,18.928
	c-0.173-0.104-0.381-0.035-0.484,0.138c-0.069,0.173,0,0.381,0.138,0.45L14.988,25.191z M15.68,22.457l0.173,0.069l0.277-0.138
	c0.104-0.138,0.069-0.346-0.104-0.45l-9.412-6.505c-0.138-0.104-0.346-0.069-0.45,0.069c-0.104,0.138-0.069,0.346,0.069,0.45
	L15.68,22.457z M16.58,19.654l0.208,0.069l0.242-0.104c0.138-0.138,0.104-0.346-0.035-0.45L9.14,12.215
	c-0.138-0.104-0.311-0.104-0.45,0.035c-0.138,0.138-0.104,0.346,0.035,0.45L16.58,19.654z M17.756,16.713l0.242,0.104l0.208-0.069
	l0.035-0.415l-6.159-6.921l-0.45-0.035v0.415L17.756,16.713z M19.244,13.668l0.242,0.138l0.173-0.069
	c0.138-0.104,0.173-0.277,0.069-0.415l-4.429-6.436c-0.104-0.138-0.277-0.173-0.415-0.069c-0.139,0.069-0.173,0.277-0.069,0.415
	L19.244,13.668z M21.147,10.485l0.242,0.139l0.138-0.035c0.138-0.069,0.208-0.242,0.104-0.381L18.794,4.81
	c-0.069-0.138-0.242-0.208-0.381-0.104c-0.138,0.069-0.208,0.242-0.104,0.381L21.147,10.485z M23.5,7.197l0.242,0.173l0.104-0.035
	c0.138-0.035,0.208-0.208,0.173-0.346l-1.453-3.841C22.497,3.01,22.358,2.941,22.22,3.01c-0.138,0.035-0.208,0.208-0.138,0.346
	L23.5,7.197z M26.372,3.91l0.242,0.208h0.069c0.138-0.035,0.208-0.173,0.208-0.311l-0.45-1.799
	c-0.035-0.138-0.138-0.208-0.277-0.173c-0.139,0.035-0.208,0.173-0.208,0.311L26.372,3.91z M19.002,22.042l0.311,0.138
	c0.138,0,0.311-0.069,0.381-0.173c0.208-0.208,0.173-0.554-0.035-0.727l-0.657-0.588c-0.208-0.173-0.554-0.173-0.727,0.035
	c-0.208,0.208-0.173,0.554,0.035,0.727L19.002,22.042z M20.663,20.277c0.104,0.104,0.242,0.173,0.381,0.173l0.311-0.138
	c0.208-0.173,0.242-0.485,0.069-0.692l-1.28-1.453c-0.208-0.208-0.519-0.208-0.692-0.035c-0.208,0.173-0.208,0.519-0.069,0.692
	L20.663,20.277z M22.531,18.755c0.069,0.138,0.242,0.208,0.381,0.208l0.277-0.104c0.208-0.139,0.277-0.45,0.138-0.657l-1.799-2.63
	c-0.138-0.208-0.45-0.277-0.692-0.138c-0.208,0.138-0.277,0.45-0.104,0.658L22.531,18.755z M24.573,17.44
	c0.069,0.173,0.242,0.242,0.415,0.242l0.242-0.069c0.242-0.104,0.311-0.415,0.208-0.623l-2.18-4.152
	c-0.138-0.242-0.415-0.311-0.623-0.208c-0.242,0.138-0.311,0.415-0.208,0.623L24.573,17.44z M26.753,16.402
	c0.069,0.173,0.242,0.277,0.415,0.277l0.173-0.035c0.242-0.104,0.381-0.346,0.242-0.588l-2.249-5.986
	c-0.069-0.242-0.346-0.346-0.588-0.277c-0.242,0.104-0.346,0.346-0.277,0.588L26.753,16.402z M29.072,15.606
	c0.035,0.208,0.208,0.346,0.415,0.346h0.104c0.242-0.069,0.381-0.311,0.311-0.519L27.93,7.301C27.86,7.059,27.618,6.92,27.376,6.99
	c-0.242,0.069-0.381,0.311-0.311,0.519L29.072,15.606z M31.459,15.122c0.035,0.208,0.208,0.381,0.415,0.381h0.069
	c0.208-0.035,0.381-0.242,0.381-0.484l-1.28-10.485c-0.035-0.242-0.242-0.381-0.484-0.381c-0.242,0.035-0.381,0.242-0.381,0.484
	L31.459,15.122z M33.881,14.637c0,0.208,0.208,0.415,0.415,0.415c0.242,0,0.415-0.173,0.415-0.415V1.938
	c0-0.242-0.208-0.415-0.415-0.415c-0.208,0-0.415,0.173-0.415,0.415V14.637z M36.684,15.087h0.035c0.208,0,0.381-0.138,0.381-0.346
	l1.626-13.392c0-0.208-0.138-0.415-0.346-0.415C38.172,0.9,37.999,1.073,37.965,1.28l-1.626,13.391
	C36.338,14.879,36.477,15.052,36.684,15.087z M39.106,15.295h0.104c0.173,0,0.311-0.104,0.346-0.277L42.74,2.145
	c0.069-0.208-0.069-0.415-0.242-0.45c-0.173-0.035-0.415,0.069-0.45,0.277l-3.183,12.872C38.83,15.018,38.933,15.225,39.106,15.295z
	 M41.598,15.606l0.139,0.035c0.138,0,0.277-0.104,0.346-0.242L46.65,3.391c0.069-0.173-0.035-0.381-0.208-0.45
	c-0.208-0.069-0.381,0.035-0.484,0.208L41.39,15.156C41.321,15.329,41.459,15.537,41.598,15.606z M44.193,16.09l0.173,0.035
	l0.311-0.173l5.675-10.831c0.104-0.173,0.035-0.381-0.138-0.45c-0.173-0.104-0.381-0.035-0.485,0.138l-5.675,10.831
	C43.951,15.779,44.02,15.987,44.193,16.09z M46.823,16.748l0.173,0.069l0.277-0.139l6.505-9.447c0.104-0.138,0.069-0.346-0.104-0.45
	c-0.138-0.104-0.346-0.069-0.45,0.069l-6.506,9.447C46.65,16.471,46.685,16.644,46.823,16.748z M49.591,17.647l0.208,0.069
	l0.242-0.104l6.955-7.855C57.1,9.62,57.1,9.412,56.962,9.308c-0.138-0.104-0.346-0.104-0.45,0.035l-6.921,7.855
	C49.453,17.336,49.453,17.544,49.591,17.647z M52.463,18.824l0.242,0.104l0.208-0.069l6.921-6.125v-0.45l-0.415-0.035l-6.921,6.159
	L52.463,18.824z M55.474,20.312l0.242,0.138l0.173-0.069l6.436-4.429l0.069-0.415c-0.104-0.138-0.277-0.173-0.415-0.069
	l-6.436,4.429C55.439,20.001,55.405,20.174,55.474,20.312z M58.623,22.146l0.242,0.138l0.138-0.035l5.398-2.837
	c0.138-0.069,0.208-0.242,0.138-0.381c-0.069-0.138-0.242-0.208-0.381-0.104l-5.398,2.837
	C58.588,21.869,58.554,22.008,58.623,22.146z M61.841,24.464l0.242,0.173h0.069l3.876-1.453c0.138-0.035,0.208-0.208,0.138-0.346
	c-0.069-0.138-0.208-0.208-0.346-0.173l-3.876,1.453C61.875,24.188,61.806,24.326,61.841,24.464z M65.128,27.337
	c-0.035-0.138,0.035-0.277,0.173-0.312l1.799-0.45l0.277,0.173c0.069,0.138-0.035,0.277-0.173,0.311l-1.799,0.45h-0.069
	L65.128,27.337z"/>
<path style="fill:#000000;" d="M86.513,35.468V7.128h5.744v12.596l11.558-12.596h7.682l-10.658,11.038l11.246,17.302h-7.405
	L96.894,22.18l-4.671,4.741v8.547H86.513z M115.615,7.128h5.709v28.34h-5.709V7.128z M125.061,35.468v-5.156l14.88-18.374h-13.184
	v-4.81h20.727v4.429l-15.537,19.101h16.091v4.775h-22.977V35.468z M180.219,35.468h-6.229l-2.491-6.436h-11.315l-2.353,6.436h-6.091
	l11.039-28.34h6.055L180.219,35.468z M169.665,24.257l-3.876-10.519l-3.841,10.519H169.665z M183.991,7.128h10.45
	c2.353,0,4.152,0.173,5.398,0.554c1.661,0.484,3.08,1.35,4.256,2.595c1.211,1.246,2.111,2.768,2.699,4.602
	c0.623,1.799,0.935,4.049,0.935,6.678c0,2.318-0.312,4.325-0.9,6.021c-0.692,2.076-1.73,3.737-3.011,5.017
	c-1.003,0.969-2.353,1.73-4.014,2.249c-1.28,0.415-2.975,0.588-5.086,0.588h-10.762V7.128H183.991z M189.735,11.938v18.755h4.256
	c1.592,0,2.768-0.104,3.46-0.277c0.935-0.242,1.696-0.623,2.319-1.177c0.623-0.554,1.107-1.453,1.488-2.734
	c0.38-1.28,0.588-3.01,0.588-5.191s-0.208-3.876-0.588-5.052c-0.381-1.177-0.934-2.076-1.627-2.734
	c-0.692-0.657-1.591-1.107-2.664-1.349c-0.796-0.173-2.353-0.277-4.706-0.277C192.296,11.938,189.735,11.938,189.735,11.938z"/>
<path style="fill:#F9423A;" d="M95.025,50.867h-2.63c-0.969,0-1.557-0.277-1.799-0.83c-0.277,0.588-0.865,0.83-1.765,0.83
	c-1.522,0-2.318-0.934-2.318-2.768c0-1.799,0.761-2.699,2.318-2.699h2.457v3.218c0,0.831,0.415,1.246,1.211,1.246h2.561
	L95.025,50.867z M90.112,46.368h-1.211c-0.485,0-0.831,0.173-1.004,0.484c-0.139,0.242-0.242,0.692-0.242,1.28
	c0,0.588,0.069,1.038,0.242,1.28c0.208,0.311,0.519,0.484,1.004,0.484c0.45,0,0.796-0.173,1.003-0.484
	c0.139-0.277,0.242-0.692,0.242-1.28L90.112,46.368z M89.074,43.704c0,0.346-0.312,0.623-0.623,0.623
	c-0.346,0-0.623-0.277-0.623-0.623s0.277-0.623,0.623-0.623C88.762,43.116,89.074,43.393,89.074,43.704z M90.665,43.704
	c0,0.346-0.277,0.623-0.623,0.623c-0.312,0-0.623-0.277-0.623-0.623s0.277-0.623,0.623-0.623
	C90.389,43.116,90.665,43.393,90.665,43.704z"/>
<path style="fill:#F9423A;" d="M99.731,50.867h-0.727c-0.692,0-1.28-0.208-1.661-0.623c-0.415,0.415-0.969,0.623-1.73,0.623H92.88
	v-1.003h2.665c0.796,0,1.211-0.415,1.211-1.246v-2.907l1.142-0.346v3.253c0,0.796,0.415,1.211,1.211,1.211h0.658L99.731,50.867z
	 M97.136,52.562c0,0.346-0.311,0.623-0.623,0.623c-0.346,0-0.623-0.277-0.623-0.623c0-0.346,0.242-0.623,0.623-0.623
	C96.859,51.939,97.136,52.251,97.136,52.562z M98.763,52.562c0,0.346-0.277,0.623-0.623,0.623c-0.311,0-0.623-0.277-0.623-0.623
	c0-0.346,0.277-0.623,0.623-0.623S98.763,52.251,98.763,52.562z"/>
<path style="fill:#F9423A;" d="M107.794,50.867h-8.305v-1.003h3.184v-2.076c0-0.657,0.207-1.246,0.623-1.695
	c0.45-0.45,1.038-0.692,1.799-0.692c0.658,0,1.211,0.242,1.696,0.727l-0.865,0.761c-0.312-0.346-0.623-0.519-0.969-0.519
	c-0.727,0-1.142,0.519-1.142,1.211v2.249h3.114L107.794,50.867z"/>
<path style="fill:#F9423A;" d="M113.538,50.867h-3.114c-1.038,0-1.592-0.623-1.592-1.557v-5.883l1.142-0.346v6.194
	c0,0.381,0.208,0.588,0.588,0.588h2.976V50.867z"/>
<path style="fill:#F9423A;" d="M120.113,50.867h-2.595c-0.692,0-1.246-0.208-1.696-0.623c-0.415,0.415-0.969,0.623-1.696,0.623
	h-2.733v-1.003h2.664c0.796,0,1.211-0.415,1.211-1.246v-2.907l1.142-0.346v3.253c0,0.796,0.381,1.211,1.211,1.211h2.492V50.867z
	 M116.41,43.704c0,0.346-0.277,0.623-0.623,0.623c-0.311,0-0.622-0.277-0.622-0.623s0.311-0.623,0.622-0.623
	C116.133,43.116,116.41,43.393,116.41,43.704z"/>
<path style="fill:#F9423A;" d="M130.563,50.867h-12.596v-1.003h3.288v-3.045l1.142-0.311v2.491c0.173-0.588,0.415-1.176,0.761-1.695
	c0.761-1.177,1.834-1.765,3.149-1.799c1.176-0.035,2.076,0.45,2.664,1.384c0.416,0.692,0.589,1.696,0.519,2.976h1.038v1.003H130.563
	z M128.383,49.863c0.035-0.208,0.035-0.381,0.035-0.588c0-0.761-0.139-1.35-0.45-1.869c-0.381-0.588-0.9-0.865-1.592-0.865
	c-0.865,0-1.626,0.415-2.353,1.246c-0.657,0.727-1.003,1.419-1.038,2.111C122.985,49.863,128.383,49.863,128.383,49.863z"/>
<path style="fill:#F9423A;" d="M135.235,48.756c0,0.623-0.208,1.142-0.623,1.522c-0.415,0.415-0.969,0.623-1.661,0.623h-2.63v-1.004
	h2.561c0.795,0,1.176-0.415,1.176-1.246v-5.191l1.142-0.346L135.235,48.756z"/>
<path style="fill:#F9423A;" d="M137.38,50.867h-1.107v-7.44l1.107-0.346V50.867z"/>
<path style="fill:#F9423A;" d="M147.069,50.867h-0.796c-0.934,0-1.522-0.277-1.799-0.83c-0.277,0.588-0.865,0.83-1.765,0.83
	c-1.557,0-2.318-0.934-2.318-2.768c0-1.799,0.761-2.699,2.318-2.699h2.457v3.218c0,0.831,0.415,1.246,1.176,1.246h0.727V50.867z
	 M144.024,46.368h-1.246c-0.45,0-0.796,0.173-1.003,0.484c-0.139,0.242-0.243,0.692-0.243,1.28c0,0.588,0.104,1.038,0.243,1.28
	c0.207,0.311,0.519,0.484,1.003,0.484c0.485,0,0.831-0.173,1.004-0.484c0.138-0.277,0.242-0.692,0.242-1.28V46.368z M142.986,43.704
	c0,0.346-0.277,0.623-0.623,0.623c-0.346,0-0.623-0.277-0.623-0.623s0.277-0.623,0.623-0.623
	C142.674,43.116,142.986,43.393,142.986,43.704z M144.578,43.704c0,0.346-0.312,0.623-0.623,0.623c-0.346,0-0.623-0.277-0.623-0.623
	s0.277-0.623,0.623-0.623C144.301,43.116,144.578,43.393,144.578,43.704z"/>
<path style="fill:#F9423A;" d="M153.54,50.867h-2.63c-0.242,0-0.45-0.035-0.692-0.069c-0.208,0.035-0.45,0.069-0.727,0.069h-2.664
	v-1.003h1.799c-0.484-0.554-0.761-1.107-0.761-1.73c0-0.761,0.138-1.384,0.45-1.868c0.449-0.588,1.072-0.865,1.903-0.865
	c0.83,0,1.488,0.277,1.903,0.865c0.311,0.484,0.519,1.107,0.484,1.868c-0.034,0.588-0.276,1.177-0.761,1.73h1.73L153.54,50.867z
	 M150.183,46.438c-0.796,0-1.246,0.657-1.246,1.488c0,0.415,0.104,0.831,0.312,1.177c0.242,0.415,0.554,0.692,0.969,0.796
	c0.415-0.138,0.726-0.415,0.969-0.796c0.207-0.346,0.311-0.727,0.311-1.177C151.429,47.095,151.014,46.438,150.183,46.438z
	 M150.806,43.704c0,0.346-0.311,0.623-0.623,0.623c-0.311,0-0.623-0.277-0.623-0.623s0.277-0.623,0.623-0.623
	C150.529,43.081,150.806,43.358,150.806,43.704z"/>
<path style="fill:#F9423A;" d="M158.211,50.867h-0.727c-0.726,0-1.28-0.208-1.66-0.623c-0.416,0.415-1.004,0.623-1.731,0.623h-0.865
	v-1.003h0.796c0.796,0,1.211-0.415,1.211-1.246v-2.907l1.142-0.346v3.253c0,0.796,0.381,1.211,1.211,1.211h0.658L158.211,50.867z
	 M155.616,52.562c0,0.346-0.312,0.623-0.623,0.623c-0.346,0-0.623-0.277-0.623-0.623c0-0.346,0.242-0.623,0.623-0.623
	C155.304,51.939,155.616,52.251,155.616,52.562z M157.242,52.562c0,0.346-0.311,0.623-0.623,0.623c-0.346,0-0.622-0.277-0.622-0.623
	c0-0.346,0.276-0.623,0.622-0.623C156.931,51.939,157.242,52.251,157.242,52.562z"/>
<path style="fill:#F9423A;" d="M167.243,50.867h-3.115c-0.692,0-1.245-0.208-1.661-0.657c-0.38,0.45-0.969,0.657-1.695,0.657h-2.838
	v-1.003h2.769c0.795,0,1.211-0.415,1.211-1.246v-5.19l1.142-0.346v5.606c0,0.796,0.415,1.177,1.176,1.177h3.045L167.243,50.867z"/>
<path style="fill:#F9423A;" d="M173.367,50.867h-6.436v-1.003h5.295v-0.45c0-0.9-0.104-1.592-0.243-2.007
	c-0.277-0.692-0.796-1.004-1.591-1.004c-0.658,0-1.281,0.311-1.834,0.934l-0.831-0.761c0.831-0.796,1.696-1.176,2.665-1.176
	c1.211,0,2.076,0.45,2.526,1.315c0.311,0.623,0.449,1.522,0.449,2.699V50.867z M171.014,43.704c0,0.346-0.276,0.623-0.622,0.623
	c-0.381,0-0.623-0.277-0.623-0.623s0.277-0.623,0.623-0.623C170.703,43.116,171.014,43.393,171.014,43.704z"/>
<path style="fill:#F9423A;" d="M184.925,50.867h-2.664c-0.935,0-1.523-0.277-1.8-0.83c-0.277,0.588-0.865,0.83-1.765,0.83
	c-1.557,0-2.318-0.934-2.318-2.768c0-1.799,0.761-2.699,2.318-2.699h2.457v3.218c0,0.831,0.415,1.246,1.177,1.246h2.595V50.867z
	 M179.977,46.368h-1.246c-0.45,0-0.796,0.173-1.003,0.484c-0.139,0.242-0.243,0.692-0.243,1.28c0,0.588,0.104,1.038,0.243,1.28
	c0.207,0.311,0.519,0.484,1.003,0.484c0.484,0,0.83-0.173,1.003-0.484c0.139-0.277,0.243-0.692,0.243-1.28V46.368z M178.939,43.704
	c0,0.346-0.277,0.623-0.623,0.623c-0.346,0-0.623-0.277-0.623-0.623s0.277-0.623,0.623-0.623
	C178.662,43.116,178.939,43.393,178.939,43.704z M180.565,43.704c0,0.346-0.311,0.623-0.623,0.623c-0.346,0-0.623-0.277-0.623-0.623
	s0.277-0.623,0.623-0.623C180.254,43.116,180.565,43.393,180.565,43.704z"/>
<path style="fill:#F9423A;" d="M189.596,50.867h-0.726c-0.727,0-1.281-0.208-1.661-0.623c-0.415,0.415-0.969,0.623-1.73,0.623h-0.9
	v-1.003h0.796c0.83,0,1.211-0.415,1.211-1.246v-2.907l1.142-0.346v3.253c0,0.796,0.38,1.211,1.176,1.211h0.658L189.596,50.867z
	 M187.797,43.704c0,0.346-0.311,0.623-0.623,0.623c-0.346,0-0.657-0.277-0.657-0.623s0.311-0.623,0.657-0.623
	C187.486,43.116,187.797,43.393,187.797,43.704z"/>
<path style="fill:#F9423A;" d="M192.538,48.756c0,0.623-0.208,1.142-0.623,1.522c-0.415,0.415-0.969,0.588-1.661,0.588h-0.934
	v-1.003h0.865c0.796,0,1.211-0.415,1.211-1.246v-2.907l1.142-0.346V48.756z M190.635,52.562c0,0.346-0.277,0.623-0.623,0.623
	c-0.312,0-0.623-0.277-0.623-0.623c0-0.346,0.311-0.623,0.623-0.623C190.358,51.939,190.635,52.251,190.635,52.562z M192.261,52.562
	c0,0.346-0.277,0.623-0.623,0.623c-0.381,0-0.623-0.277-0.623-0.623c0-0.346,0.277-0.623,0.623-0.623
	C192.019,51.939,192.261,52.251,192.261,52.562z"/>
<path style="fill:#F9423A;" d="M201.846,50.867h-8.305l0.692-1.003h2.976v-2.284c0-0.796-0.415-1.176-1.28-1.176
	c-0.692,0-1.211,0.346-1.627,1.038v-1.315c0.554-0.484,1.073-0.727,1.627-0.727c0.692,0,1.28,0.208,1.73,0.554
	c0.45,0.381,0.657,0.865,0.657,1.488v2.353h3.495L201.846,50.867z"/>
<path style="fill:#F9423A;" d="M207.902,48.306c0,0.727-0.173,1.315-0.485,1.765c-0.415,0.554-1.003,0.83-1.834,0.83
	c-0.692,0-1.28-0.208-1.695-0.623c-0.381,0.415-0.969,0.623-1.765,0.623h-0.554v-1.003h0.485c0.796,0,1.176-0.415,1.176-1.211
	v-0.381c0-0.727,0.173-1.315,0.485-1.799c0.415-0.554,1.003-0.796,1.868-0.796c0.831,0,1.419,0.277,1.834,0.796
	C207.729,46.956,207.902,47.545,207.902,48.306z M206.76,48.306c0-1.073-0.381-1.626-1.177-1.626c-0.796,0-1.211,0.554-1.211,1.626
	s0.415,1.626,1.211,1.626C206.379,49.898,206.76,49.379,206.76,48.306z"/>
<path style="fill:#F9423A;" d="M86.513,62.597v-6.644h1.35v2.941l2.699-2.941h1.765l-2.492,2.595l2.63,4.049h-1.73l-1.834-3.114
	l-1.073,1.107v2.007H86.513z M93.019,62.597v-6.644h1.315v2.595h2.63v-2.595h1.315v6.644h-1.315V59.69h-2.63v2.907H93.019z
	 M105.476,62.597h-1.454l-0.588-1.522h-2.664l-0.554,1.522h-1.419l2.596-6.644h1.418L105.476,62.597z M103.019,59.967l-0.934-2.457
	l-0.9,2.457H103.019z M106.029,62.597v-6.575h1.35v5.467h3.322v1.107H106.029z M111.428,55.953h1.349v6.644h-1.349V55.953z
	 M113.884,62.597v-6.644h4.533v1.107h-3.218v1.557h2.769v1.107h-2.769v2.838h-1.315V62.597z M124.819,62.597h-1.453l-0.589-1.488
	h-2.664l-0.554,1.522h-1.384l2.561-6.644h1.419L124.819,62.597z M122.362,59.967l-0.934-2.457l-0.9,2.457H122.362z M127.345,55.953
	h1.35v6.644h-1.35V55.953z M129.802,62.597v-6.644h1.28l2.734,4.429v-4.429h1.246v6.644h-1.35l-2.664-4.325v4.325H129.802z
	 M136.273,55.953h2.457c0.553,0,0.968,0.035,1.28,0.138c0.381,0.104,0.692,0.311,0.969,0.623c0.277,0.277,0.519,0.657,0.623,1.073
	c0.138,0.415,0.242,0.934,0.242,1.557c0,0.554-0.069,1.004-0.208,1.419c-0.173,0.485-0.415,0.865-0.726,1.177
	c-0.243,0.242-0.519,0.415-0.935,0.519c-0.311,0.104-0.692,0.138-1.176,0.138h-2.526V55.953z M137.622,57.095v4.395h1.004
	c0.38,0,0.657-0.035,0.83-0.069c0.208-0.069,0.381-0.138,0.519-0.277c0.139-0.138,0.277-0.346,0.346-0.623
	c0.104-0.311,0.139-0.692,0.139-1.211c0-0.519-0.069-0.9-0.139-1.176c-0.069-0.277-0.207-0.485-0.38-0.658
	c-0.139-0.138-0.346-0.242-0.623-0.311c-0.173-0.035-0.554-0.069-1.107-0.069H137.622z M142.778,55.953h1.35v3.599
	c0,0.588,0,0.934,0.034,1.107c0.069,0.277,0.208,0.485,0.416,0.658c0.207,0.173,0.519,0.242,0.899,0.242
	c0.381,0,0.658-0.069,0.865-0.242c0.208-0.138,0.312-0.346,0.346-0.588c0.035-0.242,0.07-0.588,0.07-1.142v-3.668h1.349v3.53
	c0,0.796-0.035,1.349-0.104,1.696c-0.069,0.311-0.207,0.623-0.38,0.831c-0.208,0.242-0.45,0.415-0.796,0.554
	c-0.312,0.138-0.727,0.208-1.281,0.208c-0.622,0-1.107-0.069-1.418-0.208c-0.312-0.138-0.589-0.346-0.796-0.588
	c-0.173-0.242-0.312-0.485-0.346-0.727c-0.104-0.381-0.139-0.934-0.139-1.696L142.778,55.953z M148.972,60.452l1.28-0.138
	c0.07,0.45,0.243,0.761,0.485,0.969s0.588,0.311,0.969,0.311c0.45,0,0.761-0.104,0.969-0.277c0.207-0.173,0.311-0.381,0.311-0.658
	c0-0.173-0.034-0.277-0.138-0.415c-0.069-0.104-0.242-0.208-0.485-0.277c-0.173-0.069-0.519-0.138-1.072-0.277
	c-0.692-0.173-1.212-0.381-1.523-0.657c-0.415-0.381-0.623-0.796-0.623-1.35c0-0.346,0.104-0.657,0.277-0.934
	c0.208-0.277,0.484-0.519,0.83-0.658c0.381-0.138,0.796-0.242,1.315-0.242c0.831,0,1.454,0.173,1.869,0.554
	c0.415,0.381,0.623,0.865,0.657,1.453l-1.349,0.069c-0.069-0.346-0.173-0.588-0.346-0.727c-0.208-0.138-0.485-0.208-0.831-0.208
	c-0.38,0-0.692,0.069-0.934,0.242c-0.138,0.104-0.208,0.242-0.208,0.415s0.07,0.277,0.208,0.415c0.173,0.138,0.588,0.277,1.246,0.45
	c0.623,0.138,1.107,0.311,1.453,0.484c0.312,0.173,0.554,0.381,0.727,0.657c0.173,0.277,0.277,0.623,0.277,1.073
	c0,0.381-0.104,0.727-0.312,1.073c-0.207,0.346-0.519,0.588-0.899,0.727c-0.381,0.173-0.866,0.242-1.454,0.242
	c-0.83,0-1.488-0.208-1.938-0.588C149.284,61.766,149.041,61.178,148.972,60.452z M156.793,62.597v-5.502h-1.973v-1.107h5.26v1.107
	h-1.973v5.502H156.793z M160.772,62.597v-6.609h2.803c0.726,0,1.211,0.069,1.557,0.173c0.311,0.104,0.554,0.346,0.761,0.623
	c0.208,0.312,0.312,0.658,0.312,1.038c0,0.484-0.139,0.9-0.45,1.246c-0.312,0.311-0.727,0.519-1.315,0.623
	c0.311,0.173,0.519,0.346,0.727,0.554c0.173,0.208,0.449,0.554,0.761,1.073l0.796,1.28h-1.592l-0.969-1.453
	c-0.346-0.519-0.588-0.83-0.727-0.969c-0.103-0.138-0.242-0.242-0.38-0.277c-0.139-0.035-0.381-0.069-0.692-0.069h-0.243v2.768
	H160.772z M162.121,58.756h1.004c0.623,0,1.038-0.035,1.211-0.069c0.138-0.069,0.277-0.138,0.381-0.277
	c0.103-0.138,0.138-0.311,0.138-0.484c0-0.208-0.069-0.415-0.208-0.554c-0.103-0.138-0.276-0.208-0.484-0.277
	c-0.138,0-0.45-0.035-1.003-0.035h-1.039V58.756z M167.243,55.953h1.349v6.644h-1.349V55.953z M175.617,62.597h-1.454l-0.588-1.522
	h-2.664l-0.519,1.522h-1.419l2.595-6.644h1.419L175.617,62.597z M173.16,59.967l-0.9-2.457l-0.899,2.457H173.16z M176.205,62.597
	v-6.575h1.35v5.467h3.321v1.107H176.205z M183.299,62.597v-1.211l3.495-4.291h-3.115v-1.107h4.845v1.038l-3.634,4.464h3.772v1.107
	H183.299z M189.077,59.31c0-0.692,0.104-1.246,0.312-1.696c0.138-0.346,0.346-0.657,0.623-0.9c0.242-0.277,0.553-0.45,0.865-0.588
	c0.415-0.173,0.9-0.277,1.419-0.277c1.003,0,1.764,0.311,2.353,0.9c0.588,0.623,0.899,1.453,0.899,2.526s-0.311,1.903-0.899,2.526
	c-0.589,0.588-1.35,0.9-2.319,0.9c-1.003,0-1.765-0.311-2.353-0.9C189.354,61.213,189.077,60.382,189.077,59.31z M190.427,59.275
	c0,0.761,0.173,1.315,0.519,1.696c0.311,0.381,0.796,0.588,1.315,0.588c0.554,0,0.969-0.208,1.349-0.588
	c0.312-0.381,0.52-0.969,0.52-1.73c0-0.761-0.173-1.315-0.485-1.696c-0.346-0.381-0.796-0.554-1.349-0.554
	c-0.554,0-1.004,0.173-1.315,0.554C190.6,57.96,190.427,58.514,190.427,59.275z M196.379,62.597v-6.644h1.28l2.734,4.429v-4.429
	h1.245v6.644h-1.349l-2.665-4.325v4.325H196.379z M202.85,62.597v-6.644h4.913v1.107h-3.564v1.488h3.322v1.107h-3.322v1.799h3.703
	v1.107h-5.052V62.597z"/>
</svg>
