<?xml version="1.0" encoding="iso-8859-1"?>
<!-- Generator: Adobe Illustrator 26.3.1, SVG Export Plug-In . SVG Version: 6.00 Build 0)  -->
<svg version="1.1" id="Layer_1" xmlns="http://www.w3.org/2000/svg" xmlns:xlink="http://www.w3.org/1999/xlink" x="0px" y="0px"
	 viewBox="0 0 331 69" style="enable-background:new 0 0 331 69;" xml:space="preserve">
<path style="fill:#000000;" d="M270.549,1.029c0,0-0.249,0-0.249,0.225v6.136c0.001,0.032,0.007,0.063,0.02,0.092
	c0.013,0.029,0.032,0.055,0.055,0.076c0.024,0.021,0.051,0.037,0.081,0.047c0.03,0.01,0.062,0.014,0.093,0.011h44.135
	c0.153-0.006,0.301-0.061,0.42-0.158l6.982-6.271c0,0,0.178-0.158-0.074-0.158H270.549z"/>
<path style="fill:#000000;" d="M270.549,14.214c0,0-0.249,0-0.249,0.225v6.136c0.001,0.031,0.007,0.063,0.02,0.092
	c0.013,0.029,0.032,0.055,0.055,0.076c0.024,0.021,0.051,0.037,0.081,0.047c0.03,0.01,0.062,0.014,0.093,0.011h29.496
	c0.153-0.006,0.301-0.062,0.42-0.158l6.983-6.271c0,0,0.175-0.158-0.074-0.158H270.549z"/>
<path style="fill:#000000;" d="M270.549,27.404c0,0-0.249,0-0.249,0.225v6.136c0.001,0.032,0.007,0.063,0.02,0.091
	s0.032,0.055,0.055,0.076c0.024,0.021,0.051,0.037,0.081,0.047c0.03,0.01,0.062,0.014,0.093,0.011h14.801
	c0.154-0.005,0.301-0.061,0.42-0.158l6.983-6.271c0,0,0.175-0.158-0.074-0.158H270.549z"/>
<path style="fill:#000000;" d="M270.3,60.712c0.001,0.032,0.007,0.063,0.02,0.091s0.032,0.055,0.055,0.076
	c0.024,0.021,0.051,0.037,0.081,0.047c0.03,0.01,0.062,0.014,0.093,0.011h59.333c0,0,0.249,0,0.249-0.225v-6.136
	c0-0.032-0.007-0.063-0.02-0.092c-0.013-0.029-0.031-0.055-0.055-0.076c-0.023-0.021-0.051-0.037-0.081-0.047
	c-0.03-0.01-0.061-0.014-0.093-0.011h-59.333c0,0-0.249,0-0.249,0.225V60.712z"/>
<path style="fill:#000000;" d="M270.549,40.585c0,0-0.249,0-0.249,0.225v6.7c0,0,0,0.225,0.217,0.067l7.611-6.834
	c0,0,0.178-0.158-0.07-0.158H270.549z"/>
<path style="fill:#000000;" d="M280.85,47.529c0,0-0.175,0.158,0.074,0.158h9.874c0.154-0.005,0.301-0.061,0.42-0.158l38.734-34.774
	c0.105-0.1,0.167-0.235,0.175-0.379V3.509c0,0,0-0.221-0.175-0.064L280.85,47.529z"/>
<path style="fill:#000000;" d="M301.596,47.568c0,0-0.175,0.158,0.074,0.158h9.874c0.153-0.005,0.301-0.061,0.419-0.158
	l17.985-16.149c0.106-0.1,0.17-0.237,0.178-0.383v-8.866c0,0,0-0.221-0.178-0.064L301.596,47.568z"/>
<path style="fill:#000000;" d="M322.338,47.579c0,0-0.175,0.158,0.074,0.158h7.466c0,0,0.252,0,0.252-0.221v-6.707
	c0,0,0-0.221-0.178-0.064L322.338,47.579z"/>
<path style="fill:#000000;" d="M1.28,60.937h3.99l2.519-6.697h10.186l2.519,6.697h4.178l-9.586-23.893h-4.22L1.28,60.937z
	 M8.943,51.122l3.899-10.438l3.938,10.438H8.943z M33.198,60.933h3.613v-8.676c-0.062-1.177,0.289-2.338,0.991-3.284
	c0.323-0.396,0.734-0.712,1.201-0.922s0.975-0.308,1.486-0.287c0.459-0.039,0.92,0.033,1.344,0.211
	c0.424,0.178,0.8,0.456,1.093,0.81c0.588,0.955,0.857,2.072,0.77,3.191v8.956h3.617v-8.645c-0.072-1.188,0.266-2.364,0.957-3.332
	c0.323-0.396,0.734-0.71,1.201-0.918c0.467-0.208,0.976-0.303,1.486-0.278c0.46-0.034,0.921,0.042,1.345,0.223
	c0.424,0.181,0.799,0.46,1.093,0.815c0.604,0.943,0.886,2.057,0.803,3.174v8.956h3.613v-9.609c0.098-1.812-0.475-3.597-1.609-5.014
	c-0.561-0.6-1.248-1.068-2.012-1.37c-0.764-0.302-1.585-0.431-2.405-0.376c-1.096-0.014-2.178,0.251-3.143,0.77
	c-0.907,0.48-1.65,1.219-2.135,2.123c-0.42-0.891-1.091-1.639-1.931-2.152c-0.881-0.498-1.877-0.753-2.888-0.74
	c-1.054-0.026-2.099,0.201-3.047,0.662c-0.83,0.41-1.512,1.068-1.951,1.884l-0.034-2.042h-3.457L33.198,60.933z M73.518,58.764
	l0.067,2.169h3.49V45.061h-3.482l-0.067,2.2c-0.548-0.86-1.323-1.551-2.239-1.998c-1.134-0.535-2.386-0.772-3.637-0.69
	c-1.251,0.083-2.46,0.483-3.514,1.163c-1.174,0.772-2.123,1.84-2.751,3.097c-0.656,1.295-0.992,2.729-0.98,4.181
	c-0.033,1.536,0.307,3.057,0.991,4.433c0.601,1.219,1.536,2.243,2.697,2.95c1.161,0.707,2.499,1.069,3.859,1.044
	c1.081,0.087,2.166-0.115,3.144-0.584s1.813-1.19,2.422-2.088 M65.39,56.739c-0.912-1.033-1.391-2.378-1.336-3.755
	c-0.058-1.377,0.428-2.721,1.353-3.742c0.452-0.458,0.991-0.823,1.584-1.071c0.594-0.249,1.231-0.376,1.875-0.376
	c0.644,0,1.281,0.128,1.875,0.376c0.594,0.249,1.132,0.613,1.584,1.071c0.92,1.024,1.403,2.367,1.346,3.742
	c0.055,1.376-0.422,2.721-1.334,3.755c-0.453,0.463-0.993,0.83-1.59,1.081c-0.597,0.251-1.238,0.38-1.885,0.38
	c-0.647,0-1.288-0.129-1.885-0.38C66.382,57.569,65.843,57.202,65.39,56.739z M80.046,60.937h3.623v-8.645
	c-0.073-1.195,0.285-2.377,1.008-3.332c0.35-0.401,0.786-0.717,1.276-0.924c0.49-0.207,1.021-0.3,1.552-0.271
	c0.464-0.037,0.931,0.039,1.36,0.219c0.429,0.181,0.809,0.462,1.108,0.819c0.606,0.942,0.888,2.057,0.803,3.174v8.956h3.613v-9.615
	c0.098-1.812-0.475-3.597-1.609-5.014c-0.556-0.598-1.238-1.065-1.997-1.367c-0.759-0.302-1.575-0.432-2.39-0.379
	c-1.034-0.021-2.058,0.206-2.986,0.662c-0.828,0.412-1.509,1.07-1.948,1.884l-0.031-2.042h-3.377L80.046,60.937z M105.224,60.937
	h3.933V50.908h9.434v-3.301h-9.427v-7.26h10.938v-3.303h-14.871L105.224,60.937z M121.457,60.937h3.633v-7.482
	c-0.079-1.376,0.296-2.74,1.067-3.882c0.347-0.458,0.8-0.825,1.321-1.069c0.52-0.244,1.092-0.357,1.666-0.331
	c0.648-0.005,1.291,0.123,1.887,0.376l0.346-3.395c-0.293-0.116-0.598-0.2-0.91-0.252c-0.311-0.059-0.626-0.09-0.943-0.094
	c-0.96-0.018-1.905,0.244-2.72,0.753c-0.808,0.532-1.447,1.285-1.84,2.169l-0.031-2.67h-3.463L121.457,60.937z M144.483,61.077
	c0.963-0.202,1.893-0.535,2.764-0.991l-0.376-2.828c-1.665,0.814-3.494,1.233-5.347,1.226c-1.394,0.067-2.77-0.327-3.918-1.119
	c-0.5-0.379-0.921-0.853-1.236-1.394c-0.316-0.542-0.522-1.141-0.605-1.763h11.715c0.103-0.592,0.147-1.193,0.131-1.794
	c0.031-1.45-0.294-2.886-0.947-4.181c-0.587-1.15-1.501-2.102-2.627-2.734c-1.179-0.643-2.505-0.968-3.848-0.943
	c-1.482-0.03-2.943,0.358-4.215,1.12c-1.203,0.728-2.177,1.778-2.811,3.032c-0.677,1.344-1.017,2.833-0.991,4.338
	c-0.039,1.575,0.353,3.13,1.135,4.498c0.739,1.267,1.844,2.281,3.171,2.908c1.487,0.686,3.111,1.025,4.749,0.991
	c1.101,0.001,2.198-0.12,3.272-0.362 M135.757,51.473c0.091-1.137,0.582-2.205,1.384-3.016c0.794-0.729,1.845-1.114,2.922-1.072
	c0.525-0.029,1.05,0.052,1.543,0.236c0.493,0.185,0.942,0.469,1.319,0.836c0.739,0.831,1.152,1.903,1.161,3.016H135.757z
	 M161.89,61.078c0.964-0.2,1.896-0.534,2.768-0.991l-0.376-2.828c-1.665,0.814-3.494,1.233-5.347,1.226
	c-1.391,0.065-2.765-0.328-3.91-1.119c-0.501-0.378-0.922-0.852-1.238-1.394c-0.317-0.542-0.523-1.141-0.606-1.763h11.701
	c0.093-0.593,0.133-1.194,0.12-1.794c0.036-1.45-0.288-2.887-0.943-4.181c-0.585-1.15-1.498-2.101-2.622-2.734
	c-1.179-0.643-2.506-0.968-3.848-0.943c-1.483-0.03-2.943,0.358-4.215,1.12c-1.203,0.729-2.178,1.779-2.814,3.032
	c-0.676,1.345-1.016,2.833-0.991,4.338c-0.038,1.574,0.353,3.129,1.132,4.498c0.742,1.268,1.851,2.282,3.181,2.908
	c1.484,0.687,3.106,1.026,4.742,0.991c1.099,0.001,2.195-0.12,3.268-0.362 M153.153,51.475c0.091-1.137,0.581-2.205,1.383-3.016
	c0.795-0.728,1.845-1.113,2.922-1.072c0.526-0.029,1.051,0.052,1.544,0.236c0.492,0.185,0.941,0.469,1.318,0.836
	c0.741,0.831,1.155,1.902,1.166,3.016H153.153z M173.807,60.938h18.929v-3.301h-14.119l13.894-17.605v-2.988h-17.955v3.303h13.112
	l-13.865,17.605L173.807,60.938z M206.94,60.277c1.264-0.737,2.307-1.8,3.02-3.078c0.714-1.323,1.081-2.806,1.067-4.309
	c-0.014-1.503-0.409-2.979-1.149-4.288c-0.731-1.256-1.791-2.289-3.066-2.988c-1.301-0.709-2.763-1.072-4.245-1.055
	c-1.536-0.021-3.048,0.381-4.37,1.162c-1.264,0.737-2.305,1.8-3.016,3.079c-0.715,1.277-1.084,2.718-1.072,4.181
	c-0.023,1.543,0.373,3.063,1.145,4.4c0.727,1.263,1.788,2.302,3.066,3.003c1.302,0.709,2.763,1.072,4.245,1.055
	c1.536,0.02,3.048-0.383,4.369-1.166 M199.088,56.735c-0.911-1.033-1.389-2.378-1.334-3.755c-0.057-1.376,0.428-2.72,1.351-3.742
	c0.451-0.459,0.99-0.823,1.583-1.071c0.594-0.249,1.231-0.377,1.875-0.377c0.643,0,1.28,0.128,1.874,0.377
	c0.594,0.249,1.132,0.613,1.583,1.071c0.925,1.021,1.411,2.365,1.354,3.742c0.058,1.377-0.421,2.723-1.337,3.755
	c-0.452,0.463-0.993,0.83-1.59,1.081c-0.596,0.251-1.237,0.38-1.884,0.38c-0.648,0-1.288-0.129-1.885-0.38
	C200.081,57.565,199.541,57.197,199.088,56.735z M213.654,60.933h3.617v-8.645c-0.071-1.195,0.285-2.376,1.005-3.332
	c0.35-0.402,0.787-0.718,1.277-0.925c0.491-0.207,1.022-0.299,1.554-0.27c0.464-0.036,0.93,0.039,1.359,0.22
	s0.808,0.461,1.107,0.818c0.607,0.942,0.89,2.056,0.806,3.174v8.956h3.617v-9.611c0.095-1.812-0.478-3.597-1.612-5.014
	c-0.556-0.598-1.238-1.065-1.996-1.367c-0.759-0.302-1.575-0.432-2.39-0.38c-1.034-0.022-2.058,0.205-2.986,0.662
	c-0.828,0.412-1.509,1.07-1.951,1.884l-0.03-2.042h-3.376L213.654,60.933z M242.85,61.073c0.963-0.201,1.893-0.535,2.764-0.991
	l-0.376-2.828c-1.664,0.814-3.493,1.233-5.345,1.226c-1.393,0.066-2.77-0.327-3.918-1.119c-0.499-0.379-0.918-0.853-1.234-1.395
	c-0.315-0.542-0.52-1.14-0.603-1.762h11.694c0.099-0.593,0.14-1.193,0.125-1.794c0.031-1.45-0.291-2.885-0.941-4.181
	c-0.588-1.149-1.501-2.1-2.626-2.734c-1.181-0.643-2.508-0.968-3.853-0.943c-1.481-0.03-2.941,0.358-4.212,1.12
	c-1.203,0.728-2.178,1.778-2.814,3.032c-0.677,1.344-1.017,2.833-0.991,4.338c-0.038,1.575,0.354,3.13,1.135,4.498
	c0.741,1.267,1.847,2.281,3.174,2.908c1.486,0.686,3.109,1.025,4.745,0.991c1.101,0.002,2.198-0.12,3.272-0.362 M234.104,51.469
	c0.096-1.137,0.586-2.204,1.387-3.016c0.795-0.73,1.846-1.115,2.925-1.072c0.524-0.028,1.049,0.052,1.541,0.237
	c0.491,0.184,0.94,0.469,1.316,0.835c0.739,0.832,1.153,1.903,1.166,3.016H234.104z"/>
<path style="fill:#000000;" d="M97.426,21.869h-3.174c-0.374,0.031-0.75-0.024-1.099-0.16c-0.349-0.137-0.663-0.352-0.916-0.629
	c-0.486-0.737-0.711-1.615-0.641-2.495V1.029h-3.437v17.643c0,4.162,1.901,6.243,5.702,6.244h0.628L97.426,21.869z"/>
<path style="fill:#000000;" d="M9.414,25.395c-1.408,0.017-2.796-0.328-4.033-1.001c-1.214-0.666-2.221-1.652-2.912-2.852
	c-0.701-1.242-1.075-2.642-1.088-4.067c-0.013-1.426,0.336-2.832,1.014-4.087c0.678-1.214,1.668-2.224,2.869-2.925
	C6.519,9.72,7.955,9.338,9.414,9.358c1.407-0.016,2.796,0.327,4.033,0.998c1.209,0.665,2.215,1.646,2.912,2.838
	c0.736,1.264,1.113,2.705,1.089,4.167c0.013,1.4-0.336,2.779-1.015,4.003c-0.678,1.214-1.668,2.224-2.869,2.925
	C12.309,25.033,10.873,25.416,9.414,25.395z M9.414,22.316c0.618,0.021,1.233-0.092,1.803-0.331c0.57-0.239,1.081-0.599,1.498-1.055
	c0.867-0.982,1.321-2.261,1.269-3.57c0.054-1.307-0.408-2.583-1.286-3.553c-0.417-0.451-0.926-0.807-1.493-1.045
	c-0.566-0.238-1.177-0.351-1.791-0.332c-0.614-0.019-1.225,0.095-1.792,0.332C7.056,13,6.547,13.356,6.13,13.807
	c-0.878,0.97-1.34,2.246-1.286,3.553c-0.052,1.309,0.402,2.588,1.269,3.57c0.417,0.456,0.929,0.816,1.498,1.055
	C8.182,22.224,8.797,22.337,9.414,22.316z"/>
<path style="fill:#000000;" d="M51.615,0.999h-3.435v23.914h3.435V0.999z"/>
<path style="fill:#000000;" d="M57.622,0.999h-3.435v23.914h3.435V0.999z"/>
<path style="fill:#000000;" d="M75.52,32.502c-1.314,0.08-2.632-0.111-3.869-0.56c-1.238-0.449-2.371-1.148-3.327-2.053
	c-0.895-0.989-1.583-2.147-2.024-3.406c-0.441-1.259-0.627-2.593-0.545-3.925v-5.178h3.735v4.884
	c-0.139,1.852,0.409,3.691,1.539,5.165c0.587,0.604,1.298,1.071,2.085,1.371c0.787,0.299,1.629,0.423,2.469,0.362
	c0.841,0.06,1.686-0.064,2.474-0.363c0.789-0.299,1.503-0.766,2.093-1.369c1.159-1.462,1.733-3.303,1.611-5.165V9.841h3.731v12.722
	c0.082,1.334-0.106,2.67-0.552,3.93c-0.446,1.26-1.141,2.416-2.044,3.401c-0.979,0.909-2.133,1.609-3.391,2.058
	s-2.594,0.638-3.927,0.555"/>
<path style="fill:#000000;" d="M104.794,25.395c-1.408,0.017-2.797-0.328-4.033-1.001c-1.214-0.666-2.221-1.652-2.912-2.852
	c-0.701-1.242-1.075-2.642-1.088-4.067c-0.013-1.426,0.336-2.832,1.014-4.087c0.678-1.214,1.668-2.224,2.869-2.925
	c1.255-0.744,2.692-1.126,4.151-1.105c1.407-0.016,2.795,0.327,4.032,0.998c1.21,0.665,2.216,1.646,2.913,2.838
	c0.736,1.264,1.112,2.705,1.088,4.167c0.013,1.4-0.336,2.779-1.014,4.003c-0.678,1.214-1.669,2.224-2.869,2.925
	C107.689,25.033,106.252,25.416,104.794,25.395z M104.794,22.316c0.617,0.021,1.232-0.092,1.802-0.331
	c0.57-0.239,1.081-0.599,1.499-1.055c0.866-0.982,1.321-2.261,1.269-3.57c0.054-1.307-0.408-2.583-1.286-3.553
	c-0.429-0.436-0.94-0.783-1.504-1.019c-0.564-0.236-1.17-0.358-1.781-0.358c-0.612,0-1.217,0.122-1.781,0.358
	c-0.564,0.236-1.075,0.583-1.504,1.019c-0.878,0.97-1.34,2.246-1.286,3.553c-0.052,1.309,0.402,2.588,1.269,3.57
	c0.417,0.456,0.929,0.816,1.498,1.055C103.559,22.224,104.176,22.337,104.794,22.316z"/>
<path style="fill:#000000;" d="M231.029,21.868h-3.174c-0.374,0.031-0.75-0.024-1.099-0.16c-0.35-0.137-0.663-0.352-0.916-0.629
	c-0.486-0.737-0.712-1.615-0.641-2.495V9.831h-3.437v8.84c0,4.162,1.901,6.243,5.702,6.244h0.485L231.029,21.868z"/>
<path style="fill:#000000;" d="M149.705,21.89h-34.191c-0.374,0.031-0.751-0.024-1.1-0.161c-0.35-0.137-0.664-0.352-0.918-0.629
	c-0.486-0.737-0.711-1.615-0.641-2.495v-1.209h-3.437v1.296c0,4.162,1.903,6.243,5.707,6.244h34.58V21.89z"/>
<path style="fill:#000000;" d="M185.199,24.915h34.271c3.805,0,5.707-2.08,5.706-6.24V9.833h-3.435v8.753
	c0.071,0.879-0.155,1.757-0.641,2.492c-0.253,0.278-0.566,0.493-0.915,0.631c-0.35,0.137-0.726,0.193-1.1,0.161h-35.817
	L185.199,24.915z"/>
<path style="fill:#000000;" d="M225.859,24.386l2.099,0.551c3.806,0,5.708-2.08,5.707-6.24v-1.321h-3.443v1.226
	c0.072,0.879-0.154,1.757-0.641,2.492c-0.252,0.278-0.565,0.494-0.914,0.632c-0.35,0.137-0.726,0.192-1.101,0.16h-3.175
	L225.859,24.386z"/>
<path style="fill:#000000;" d="M92.167,23.895l2.314,1.041c3.802,0,5.703-2.08,5.707-6.24v-1.32h-3.437v1.226
	c0.071,0.879-0.155,1.756-0.641,2.492c-0.253,0.278-0.567,0.494-0.917,0.631c-0.35,0.137-0.727,0.192-1.101,0.161h-3.175
	L92.167,23.895z"/>
<path style="fill:#000000;" d="M238.269,25.395c-1.408,0.017-2.796-0.328-4.033-1.001c-1.214-0.666-2.221-1.652-2.912-2.852
	c-0.701-1.242-1.075-2.642-1.088-4.067c-0.013-1.426,0.336-2.832,1.014-4.087c0.678-1.214,1.668-2.224,2.868-2.925
	c1.256-0.744,2.692-1.126,4.151-1.105c1.407-0.016,2.795,0.327,4.033,0.998c1.209,0.665,2.215,1.646,2.912,2.838
	c0.736,1.264,1.112,2.705,1.089,4.167c0.013,1.4-0.337,2.779-1.015,4.003c-0.678,1.214-1.668,2.224-2.869,2.925
	C241.164,25.033,239.728,25.416,238.269,25.395z M238.269,22.316c0.618,0.021,1.233-0.092,1.803-0.331
	c0.569-0.239,1.081-0.599,1.498-1.055c0.867-0.982,1.321-2.261,1.269-3.57c0.054-1.306-0.407-2.582-1.284-3.552
	c-0.429-0.436-0.94-0.783-1.504-1.019c-0.564-0.236-1.17-0.358-1.781-0.358c-0.612,0-1.217,0.122-1.781,0.358
	s-1.076,0.583-1.504,1.019c-0.878,0.97-1.34,2.246-1.286,3.553c-0.053,1.309,0.402,2.588,1.269,3.57
	c0.417,0.456,0.928,0.816,1.498,1.055c0.57,0.239,1.185,0.353,1.803,0.331"/>
<path style="fill:#000000;" d="M183.559,21.868h-6.465c-0.414,0.055-0.835,0.012-1.23-0.125c-0.395-0.137-0.752-0.364-1.044-0.664
	c-0.487-0.736-0.713-1.615-0.64-2.495V7.268h-3.437v11.409c0,4.162,1.902,6.243,5.706,6.244h9.862L183.559,21.868z"/>
<path style="fill:#000000;" d="M140.508,24.364c-1.216-0.601-2.229-1.546-2.912-2.718c-0.722-1.279-1.082-2.73-1.044-4.198
	c-0.024-1.433,0.326-2.847,1.014-4.104c0.676-1.202,1.674-2.191,2.882-2.855c1.334-0.718,2.832-1.077,4.346-1.044
	c0.84,0.001,1.676,0.102,2.492,0.299c0.764,0.174,1.502,0.445,2.197,0.806l-0.446,2.926c-0.611-0.329-1.264-0.575-1.941-0.729
	c-0.687-0.167-1.392-0.253-2.099-0.255c-0.663-0.032-1.325,0.069-1.948,0.298c-0.623,0.228-1.194,0.579-1.679,1.032
	c-0.878,0.982-1.363,2.254-1.36,3.571c0.003,1.317,0.492,2.587,1.374,3.566c1.036,0.91,2.387,1.377,3.764,1.3
	c1.274,0-3.399,2.734-4.644,2.099"/>
<path style="fill:#000000;" d="M182.52,24.394c-1.215-0.665-2.222-1.652-2.912-2.852c-0.701-1.242-1.075-2.641-1.088-4.067
	s0.336-2.832,1.013-4.087c0.676-1.214,1.665-2.224,2.865-2.925c1.257-0.745,2.694-1.128,4.155-1.108
	c1.406-0.015,2.794,0.329,4.03,1.001c1.21,0.664,2.217,1.645,2.912,2.838c0.736,1.264,1.112,2.705,1.089,4.167v6.1l-3.462-0.604
	v-5.501c0.055-1.309-0.407-2.586-1.286-3.557c-0.429-0.435-0.94-0.781-1.504-1.016c-0.564-0.236-1.168-0.357-1.779-0.357
	c-0.611,0-1.216,0.122-1.78,0.357c-0.563,0.236-1.074,0.581-1.503,1.016c-0.879,0.971-1.341,2.249-1.286,3.557
	c-0.053,1.309,0.402,2.588,1.269,3.57c0.444,0.395,0.971,0.687,1.542,0.854c0.571,0.167,1.172,0.205,1.759,0.111"/>
<path style="fill:#000000;" d="M174.163,9.445c0,1.509,0.026,6.452,0.11,8.003c0.014,1.4-0.337,2.78-1.017,4.004
	c-0.676,1.214-1.665,2.224-2.865,2.925c-1.255,0.744-2.691,1.128-4.15,1.108c-1.408,0.015-2.796-0.329-4.033-1.001
	c-1.214-0.667-2.221-1.655-2.912-2.855c-0.701-1.242-1.075-2.64-1.088-4.066c-0.013-1.426,0.336-2.831,1.014-4.085
	c0.675-1.216,1.666-2.228,2.868-2.929c1.256-0.743,2.692-1.125,4.151-1.106h8.007L174.163,9.445z M171.147,12.524h-4.992
	c-0.614-0.02-1.225,0.093-1.791,0.33c-0.567,0.237-1.076,0.593-1.493,1.044c-0.877,0.971-1.338,2.246-1.286,3.553
	c-0.052,1.309,0.402,2.588,1.269,3.57c0.43,0.44,0.944,0.789,1.511,1.028c0.567,0.239,1.176,0.361,1.791,0.361
	c0.615,0,1.224-0.123,1.791-0.361c0.567-0.239,1.081-0.588,1.511-1.028c0.862-0.984,1.313-2.262,1.259-3.57"/>
<path style="fill:#000000;" d="M51.615,22.045H25.34v2.898h26.275V22.045z"/>
<path style="fill:#000000;" d="M49.056,22.045H22.351v2.898h26.704V22.045z"/>
<path style="fill:#000000;" d="M8.229,4.687c0.202-0.201,0.36-0.441,0.466-0.706C8.8,3.716,8.849,3.433,8.841,3.148
	c0.022-0.297-0.022-0.594-0.127-0.872c-0.106-0.278-0.271-0.53-0.484-0.737C8.025,1.342,7.784,1.188,7.52,1.085
	c-0.264-0.102-0.547-0.15-0.83-0.141C6.406,0.935,6.124,0.983,5.86,1.085C5.596,1.188,5.354,1.342,5.15,1.539
	C4.937,1.746,4.772,1.997,4.666,2.275C4.56,2.553,4.517,2.851,4.539,3.148C4.531,3.432,4.581,3.716,4.686,3.98
	C4.791,4.245,4.949,4.485,5.15,4.686c0.201,0.201,0.442,0.359,0.706,0.464c0.265,0.105,0.548,0.155,0.832,0.147
	c0.285,0.009,0.568-0.041,0.833-0.146c0.265-0.105,0.505-0.264,0.706-0.466"/>
<path style="fill:#000000;" d="M13.73,4.687c0.202-0.201,0.36-0.441,0.466-0.706c0.105-0.265,0.155-0.548,0.146-0.833
	c0.022-0.297-0.022-0.594-0.127-0.872c-0.106-0.278-0.271-0.53-0.484-0.737c-0.421-0.383-0.97-0.595-1.539-0.595
	c-0.569,0-1.118,0.212-1.539,0.595c-0.213,0.207-0.379,0.459-0.484,0.737c-0.106,0.278-0.149,0.576-0.127,0.872
	c0.005,0.425,0.134,0.839,0.372,1.191c0.238,0.352,0.573,0.627,0.965,0.791c0.392,0.164,0.824,0.209,1.241,0.13
	c0.418-0.079,0.803-0.278,1.109-0.573"/>
<path style="fill:#000000;" d="M164.939,4.687c0.202-0.201,0.361-0.441,0.466-0.706c0.105-0.265,0.155-0.548,0.146-0.833
	c0.022-0.297-0.022-0.594-0.127-0.872c-0.106-0.278-0.271-0.53-0.485-0.737c-0.421-0.383-0.97-0.595-1.539-0.595
	s-1.118,0.212-1.539,0.595c-0.213,0.207-0.379,0.459-0.484,0.737c-0.106,0.278-0.15,0.576-0.128,0.872
	c0.005,0.425,0.135,0.839,0.373,1.191c0.237,0.352,0.573,0.627,0.965,0.791s0.823,0.209,1.241,0.13
	c0.418-0.079,0.803-0.278,1.109-0.573"/>
<path style="fill:#000000;" d="M170.447,4.687c0.202-0.201,0.361-0.441,0.466-0.706c0.105-0.265,0.155-0.548,0.146-0.833
	c0.022-0.297-0.022-0.594-0.127-0.872c-0.106-0.278-0.271-0.53-0.485-0.737c-0.421-0.383-0.97-0.595-1.539-0.595
	s-1.118,0.212-1.539,0.595c-0.214,0.207-0.379,0.459-0.485,0.737c-0.105,0.278-0.149,0.576-0.127,0.872
	c0.005,0.425,0.135,0.839,0.372,1.191c0.238,0.352,0.574,0.627,0.966,0.791s0.823,0.209,1.241,0.13
	c0.417-0.079,0.803-0.278,1.108-0.573"/>
<path style="fill:#000000;" d="M185.418,4.687c0.202-0.201,0.36-0.441,0.465-0.706c0.105-0.265,0.155-0.548,0.146-0.833
	c0.022-0.297-0.021-0.594-0.127-0.872c-0.106-0.278-0.271-0.53-0.484-0.737c-0.421-0.383-0.97-0.595-1.54-0.595
	c-0.569,0-1.118,0.212-1.539,0.595c-0.213,0.207-0.379,0.459-0.484,0.737c-0.106,0.278-0.149,0.576-0.127,0.872
	c0.005,0.425,0.134,0.839,0.372,1.191c0.238,0.352,0.573,0.627,0.965,0.791s0.824,0.209,1.241,0.13
	c0.418-0.079,0.803-0.278,1.109-0.573"/>
<path style="fill:#000000;" d="M190.928,4.687c0.202-0.201,0.361-0.441,0.466-0.706c0.105-0.265,0.155-0.548,0.146-0.833
	c0.022-0.297-0.022-0.594-0.127-0.872c-0.106-0.278-0.271-0.53-0.485-0.737c-0.421-0.383-0.97-0.595-1.539-0.595
	c-0.569,0-1.118,0.212-1.539,0.595c-0.214,0.207-0.379,0.459-0.484,0.737c-0.106,0.278-0.15,0.576-0.128,0.872
	c0.005,0.425,0.135,0.839,0.373,1.191c0.237,0.352,0.573,0.627,0.965,0.791s0.823,0.209,1.241,0.13
	c0.418-0.079,0.803-0.278,1.109-0.573"/>
<path style="fill:#000000;" d="M76.733,12.707c0.202-0.201,0.36-0.441,0.465-0.706s0.155-0.548,0.146-0.833
	c0.022-0.297-0.021-0.595-0.127-0.873c-0.106-0.278-0.271-0.53-0.484-0.737c-0.421-0.383-0.97-0.595-1.539-0.595
	s-1.118,0.212-1.539,0.595c-0.213,0.207-0.379,0.459-0.484,0.737c-0.106,0.278-0.149,0.576-0.127,0.873
	c0.005,0.425,0.134,0.839,0.372,1.191c0.238,0.352,0.573,0.627,0.965,0.791c0.392,0.164,0.824,0.209,1.241,0.13
	c0.418-0.079,0.803-0.278,1.109-0.573"/>
<path style="fill:#000000;" d="M124.162,31.924c0.202-0.201,0.36-0.441,0.466-0.706c0.105-0.265,0.154-0.548,0.146-0.833
	c0.021-0.297-0.022-0.594-0.128-0.873c-0.105-0.278-0.271-0.53-0.484-0.737c-0.421-0.383-0.97-0.596-1.539-0.596
	c-0.57,0-1.119,0.212-1.54,0.596c-0.213,0.207-0.378,0.459-0.484,0.737c-0.106,0.278-0.149,0.576-0.127,0.873
	c0.005,0.425,0.134,0.839,0.372,1.191s0.573,0.627,0.965,0.791c0.393,0.164,0.824,0.209,1.242,0.13
	c0.417-0.079,0.803-0.278,1.108-0.573"/>
<path style="fill:#000000;" d="M133.315,22.526c0.144-0.763,0.215-1.538,0.212-2.314c0.03-1.924-0.444-3.822-1.375-5.505
	c-0.919-1.625-2.277-2.959-3.918-3.848c-1.791-0.998-3.81-1.514-5.86-1.497c-1.153,0.005-2.3,0.159-3.412,0.46
	c-1.046,0.266-2.049,0.679-2.979,1.226l0.571,2.939c0.99-0.491,2.024-0.891,3.087-1.195c0.918-0.252,1.866-0.379,2.818-0.379
	c1.348-0.024,2.68,0.294,3.872,0.924c1.13,0.61,2.061,1.533,2.68,2.659c0.671,1.235,1.008,2.623,0.979,4.027
	c0.006,0.736-0.076,1.469-0.245,2.186L133.315,22.526z"/>
<path style="fill:#000000;" d="M44.584,22.526c0.144-0.763,0.214-1.538,0.211-2.314c0.03-1.924-0.444-3.822-1.374-5.505
	c-0.919-1.625-2.277-2.959-3.918-3.848c-1.791-0.998-3.81-1.514-5.861-1.497c-1.152,0.005-2.299,0.159-3.412,0.46
	c-1.046,0.266-2.049,0.679-2.979,1.226l0.571,2.939c0.991-0.491,2.024-0.891,3.087-1.195c0.918-0.252,1.866-0.379,2.818-0.379
	c1.348-0.024,2.68,0.294,3.872,0.924c1.13,0.61,2.061,1.533,2.68,2.659c0.671,1.235,1.008,2.623,0.979,4.027
	c0.006,0.736-0.077,1.469-0.245,2.186L44.584,22.526z"/>
<path style="fill:#000000;" d="M223.464,5.302c-0.285,0.008-0.568-0.042-0.833-0.147c-0.264-0.105-0.504-0.263-0.705-0.464
	c-0.202-0.201-0.36-0.441-0.465-0.706s-0.155-0.548-0.147-0.832c-0.022-0.297,0.022-0.594,0.127-0.872
	c0.106-0.278,0.271-0.53,0.485-0.737c0.42-0.385,0.969-0.599,1.539-0.599c0.57,0,1.119,0.214,1.539,0.599
	c0.214,0.207,0.38,0.458,0.486,0.737c0.106,0.278,0.15,0.576,0.129,0.873c0.006,0.284-0.044,0.567-0.15,0.831
	c-0.106,0.264-0.264,0.504-0.466,0.705c-0.201,0.201-0.441,0.359-0.705,0.464c-0.264,0.105-0.547,0.156-0.832,0.149"/>
<path style="fill:#000000;" d="M217.477,22.308v-5.155c0.117-2.071-0.545-4.112-1.857-5.719c-0.658-0.702-1.462-1.252-2.355-1.611
	c-0.892-0.359-1.853-0.519-2.814-0.468c-1.913-0.036-3.794,0.5-5.4,1.539c-1.482,1.018-2.744,2.323-3.711,3.838l0.077,7.137
	c0.014-1.559,0.432-3.087,1.212-4.436c0.527-0.89,1.161-1.712,1.887-2.449c0.711-0.725,1.527-1.338,2.421-1.819
	c0.887-0.475,1.879-0.72,2.886-0.712c0.746-0.022,1.488,0.121,2.173,0.42c0.583,0.246,1.099,0.63,1.501,1.12
	c0.594,1.17,0.819,2.492,0.645,3.792v4.239"/>
<path style="fill:#000000;" d="M201.41,1.029h-3.436v21.599h3.436V1.029z"/>
<path style="fill:#000000;" d="M30.594,39.12c0.011-0.299-0.04-0.598-0.151-0.877c-0.111-0.278-0.279-0.53-0.494-0.74
	c-0.441-0.406-1.019-0.631-1.619-0.631s-1.178,0.225-1.619,0.631c-0.215,0.209-0.383,0.461-0.494,0.74
	c-0.111,0.278-0.163,0.577-0.151,0.877c-0.008,0.302,0.045,0.602,0.156,0.884c0.11,0.281,0.276,0.537,0.487,0.754
	c0.211,0.216,0.463,0.388,0.741,0.505c0.278,0.117,0.577,0.178,0.879,0.178c0.302,0,0.601-0.061,0.879-0.178
	c0.278-0.117,0.53-0.289,0.741-0.505s0.376-0.472,0.487-0.754C30.547,39.722,30.601,39.422,30.594,39.12z M26.534,62.26
	c0.075,0.925-0.163,1.848-0.674,2.622c-0.265,0.294-0.595,0.523-0.963,0.669c-0.368,0.146-0.765,0.204-1.16,0.171
	c-0.544,0.005-1.087-0.06-1.615-0.192l1.259,3.358c0.225,0.098,0.446,0.034,0.679,0.034c4.003,0,6.005-2.19,6.005-6.57v-17.29
	h-3.528L26.534,62.26z"/>
<path style="fill:#000000;" d="M20.24,25.841c0.076,0.925-0.162,1.849-0.674,2.622c-0.265,0.294-0.595,0.523-0.963,0.669
	c-0.368,0.146-0.765,0.204-1.16,0.171c-0.544,0.004-1.087-0.061-1.615-0.194l1.259,3.358c0.225,0.101,0.446,0.034,0.679,0.034
	c4.003,0,6.005-2.19,6.005-6.57V9.838H20.24V25.841z"/>
</svg>
