<?xml version="1.0" encoding="iso-8859-1"?>
<!-- Generator: Adobe Illustrator 26.3.1, SVG Export Plug-In . SVG Version: 6.00 Build 0)  -->
<svg version="1.1" id="Layer_1" xmlns="http://www.w3.org/2000/svg" xmlns:xlink="http://www.w3.org/1999/xlink" x="0px" y="0px"
	 viewBox="0 0 237 68" style="enable-background:new 0 0 237 68;" xml:space="preserve">
<path style="fill:#080047;" d="M16.857,1.186H1.28v65.707h15.419c11.623,0,41.354-1.186,41.354-32.814
	C58.131,24.037,53.861,1.186,16.857,1.186z M20.177,51.791h-3.4V16.209h3.4c6.642,0,13.837,1.502,17,4.507
	c3.637,3.4,5.377,7.749,5.377,13.284c0,5.456-1.739,9.805-5.456,13.126c-1.819,1.581-3.795,2.767-5.93,3.558
	C28.954,51.395,23.736,51.791,20.177,51.791z"/>
<path style="fill:#080047;" d="M159.34,15.102c14.47,0,20.4,9.093,20.4,9.093V5.693l-1.739-0.949C172.229,1.581,166.219,0,159.973,0
	c-11.307,0-20.637,4.033-27.754,12.019c-5.772,6.484-8.697,13.995-8.697,22.298c0,9.251,3.479,17.316,10.437,23.879
	C140.917,64.679,149.457,68,159.261,68c6.484,0,12.809-1.581,18.74-4.744l1.818-0.949V44.674c0,0-9.251,8.144-20.4,8.144
	c-5.455,0-9.962-1.739-13.679-5.377c-3.795-3.637-5.614-7.986-5.614-13.284c0-5.377,1.819-9.884,5.614-13.6
	C149.457,16.842,153.964,15.102,159.34,15.102z"/>
<path style="fill:#080047;" d="M215.164,15.102c14.469,0,20.4,9.093,20.4,9.093V5.693l-1.74-0.949
	C228.052,1.581,222.043,0,215.796,0c-11.307,0-20.637,4.033-27.753,12.019c-5.772,6.484-8.698,13.995-8.698,22.298
	c0,9.251,3.558,17.316,10.437,23.879C196.74,64.679,205.28,68,215.084,68c6.484,0,12.81-1.581,18.74-4.744l1.819-0.949V44.674
	c0,0-9.252,8.144-20.4,8.144c-5.456,0-9.963-1.739-13.679-5.377c-3.796-3.637-5.614-7.986-5.614-13.284
	c0-5.377,1.818-9.884,5.614-13.6C205.28,16.842,209.708,15.102,215.164,15.102z"/>
<path style="fill:#080047;" d="M90.708,37.716L75.052,1.186h-16.13v65.628h16.13V39.219l12.572,27.595h5.772l12.888-27.437v27.437
	h16.368V1.186h-15.34L90.708,37.716z"/>
</svg>
