<svg width="128" height="73" viewBox="0 0 128 73" fill="none" xmlns="http://www.w3.org/2000/svg">
<g id="HAMRIYAH_LOGO_WEBSITE 1" clip-path="url(#clip0_578_365)">
<path id="Vector" d="M43.8855 0.728516H0V44.5257H43.8855V0.728516Z" fill="white"/>
<path id="Vector_2" d="M0 0.728516C4.50398 1.65072 8.93168 2.91262 13.2451 4.50338L13.9515 4.76828C15.6713 5.33211 17.3284 6.07186 18.8964 6.9758C19.6216 7.40944 20.3084 7.90426 20.9494 8.45484C21.8668 9.16921 22.6197 10.0727 23.1569 11.1039C23.8 12.1842 24.2623 13.3624 24.5256 14.5917C24.6237 14.9457 24.6902 15.3077 24.7242 15.6734V16.3578C24.8779 17.0766 25.1542 17.7636 25.541 18.3887L25.7838 18.6757C26.0682 19.018 26.4218 19.2964 26.8214 19.4924L27.1525 19.6028H27.5719H28.4991H29.0731H29.8015H29.9561H30.3093C30.4548 19.6372 30.5956 19.6891 30.7287 19.7573C31.1945 19.9678 31.5945 20.3007 31.886 20.7206C32.1776 21.1404 32.3498 21.6315 32.3843 22.1415C32.3843 22.1415 28.7419 21.3026 27.9693 23.9516C27.9115 24.1386 27.9115 24.3386 27.9693 24.5256C28.2563 25.1878 29.3159 26.7331 33.157 28.9406C34.6017 29.959 35.9942 31.0494 37.3292 32.2078L37.5058 32.3844C37.7265 32.6051 38.0135 32.8921 38.3005 33.2232C39.1679 34.071 39.9111 35.0372 40.508 36.093C40.7508 36.4904 40.9937 36.9098 41.2365 37.3734C41.6651 38.1538 42.0341 38.9655 42.3403 39.8016C42.943 41.1823 43.416 42.616 43.7531 44.0842V0.728516H0Z" fill="#C21F33"/>
<path id="Vector_3" d="M43.8634 44.5257C42.0797 41.3157 39.891 38.348 37.3513 35.6956L36.6007 34.9671C33.2989 32.6124 29.8062 30.5374 26.1591 28.764C24.9891 28.1459 19.4041 24.9891 23.2231 22.8478C24.1947 22.5537 25.2317 22.5537 26.2033 22.8478C26.2033 22.8478 26.3799 19.8677 22.009 20.0222C21.309 20.0223 20.6252 19.8119 20.0465 19.4182C19.4678 19.0245 19.0209 18.4658 18.7639 17.8147C18.6042 17.3265 18.4933 16.8237 18.4328 16.3136C18.4328 14.9008 17.8147 8.89629 7.68217 4.2605C7.68217 4.2605 2.38412 1.766 0.551881 1.10375L0.0441513 0.949219V44.5478H43.8634" fill="#185FA0"/>
<path id="Vector_4" d="M53.135 12.2295H54.305V13.3774H53.135V12.2295ZM51.2807 12.2295H52.4507V13.3774H51.2807V12.2295ZM53.135 15.4304H51.7443C50.6405 15.4304 50.3756 16.6887 50.3756 17.4392C50.3756 18.1898 50.7509 19.2053 51.7443 19.2053H53.135V15.4304ZM51.6339 20.2428C51.277 20.2447 50.9237 20.1714 50.5971 20.0276C50.2705 19.8838 49.9778 19.6727 49.7383 19.4082C49.4987 19.1436 49.3176 18.8315 49.2068 18.4923C49.096 18.153 49.058 17.7942 49.0953 17.4392C49.0953 15.4525 50.0887 14.4812 51.6339 14.4812H54.2609V19.2053H56.049V20.2428H51.6339Z" fill="#185FA0"/>
<path id="Vector_5" d="M57.8591 19.2275H55.5412V20.243H57.8591V19.2275Z" fill="#185FA0"/>
<path id="Vector_6" d="M59.8238 19.2275H57.5059V20.243H59.8238V19.2275Z" fill="#185FA0"/>
<path id="Vector_7" d="M61.7885 19.2275H59.4706V20.243H61.7885V19.2275Z" fill="#185FA0"/>
<path id="Vector_8" d="M62.8923 21.2144H64.0843V22.3623H62.8923V21.2144ZM61.5015 20.1548V19.1172C62.6053 19.1172 63.113 18.5874 63.113 17.6602V14.5918H64.283V17.9031C64.283 19.4263 63.2455 20.3534 61.5015 20.3534M61.0379 21.413H62.2079V22.5609H61.0379V21.413Z" fill="#185FA0"/>
<path id="Vector_9" d="M68.9629 20.243C68.4245 20.2499 67.893 20.1209 67.4177 19.8678C67.4434 20.2097 67.3958 20.5533 67.2779 20.8753C67.1601 21.1974 66.9747 21.4905 66.7343 21.7351C66.4939 21.9797 66.204 22.1701 65.884 22.2935C65.5641 22.4168 65.2214 22.4704 64.879 22.4506V21.5013C65.1234 21.4818 65.3584 21.398 65.5599 21.2585C65.7615 21.1189 65.9226 20.9285 66.0269 20.7066C66.2033 20.2578 66.2713 19.7738 66.2256 19.2938V14.5918H67.4177V18.2121C67.4177 18.9406 68.0358 19.3159 68.9629 19.3159H69.0954V20.3534L68.9629 20.243Z" fill="#185FA0"/>
<path id="Vector_10" d="M73.0469 16.1148C72.0756 16.1148 71.5899 16.8507 71.5899 18.3224C71.5899 19.7131 72.0756 20.5299 73.0469 20.5299C74.0182 20.5299 74.5039 19.8235 74.5039 18.4769C74.5039 17.1303 74.0403 16.2694 73.0469 16.2694M77.2853 20.3974C76.6515 20.4143 76.0276 20.2371 75.4972 19.8897C75.287 20.361 74.9447 20.7612 74.5118 21.0421C74.0789 21.323 73.574 21.4724 73.0579 21.4724C72.5419 21.4724 72.0369 21.323 71.604 21.0421C71.1711 20.7612 70.8289 20.361 70.6186 19.8897C70.1246 20.202 69.5469 20.3561 68.963 20.3312H68.7643V19.2937H68.963C69.7797 19.2937 70.2654 18.9846 70.3096 18.2561C70.3096 16.4018 71.4133 15.2539 73.0469 15.2539C74.6805 15.2539 75.6297 16.3356 75.6959 18.1458C75.6959 18.8742 76.314 19.2937 77.2853 19.2937H77.5061V20.3312L77.2853 20.3974Z" fill="#185FA0"/>
<path id="Vector_11" d="M79.4045 19.2275H77.0866V20.243H79.4045V19.2275Z" fill="#185FA0"/>
<path id="Vector_12" d="M81.3913 19.2275H79.0734V20.243H81.3913V19.2275Z" fill="#185FA0"/>
<path id="Vector_13" d="M83.356 19.2275H81.0381V20.243H83.356V19.2275Z" fill="#185FA0"/>
<path id="Vector_14" d="M83.0028 20.2429V19.2054H87.4178C87.4598 18.726 87.3981 18.2432 87.237 17.7897C87.0758 17.3362 86.8191 16.9227 86.484 16.5772C86.149 16.2317 85.7436 15.9623 85.2953 15.7874C84.847 15.6124 84.3663 15.5358 83.8858 15.563V14.5917C84.5064 14.5506 85.1287 14.641 85.7118 14.8571C86.295 15.0732 86.826 15.4101 87.2699 15.8457C87.7138 16.2813 88.0607 16.8058 88.2878 17.3848C88.5149 17.9637 88.6172 18.5842 88.5878 19.2054H90.3759V20.2429H83.0028Z" fill="#185FA0"/>
<path id="Vector_15" d="M90.0669 20.2428V19.2053C91.1706 19.2053 91.7446 18.6755 91.7446 17.7483V12.2295H92.9366V17.7924C92.9366 19.3156 91.8108 20.2428 90.0669 20.2428Z" fill="#185FA0"/>
<path id="Vector_16" d="M94.2611 17.7924V12.2295H95.4532V17.7483C95.4532 18.6755 96.0271 19.2053 97.1088 19.2053V20.2428C95.3649 20.2428 94.2832 19.3156 94.2832 17.7924" fill="#185FA0"/>
<path id="Vector_17" d="M98.323 21.2144H99.515V22.3623H98.323V21.2144ZM96.8219 20.1548V19.1172C97.9256 19.1172 98.4113 18.5874 98.4113 17.6602V14.5918H99.6033V17.9031C99.6033 19.4263 98.5437 20.3534 96.8219 20.3534" fill="#185FA0"/>
<path id="Vector_18" d="M106.336 12.252H107.506V13.3999H106.336V12.252ZM105.961 15.3866C105.012 15.3866 104.548 15.9606 104.548 17.3955C104.548 18.8304 105.012 19.2056 105.961 19.2056C106.91 19.2056 107.418 18.7641 107.418 17.4176C107.418 16.071 106.954 15.3866 105.961 15.3866ZM104.614 12.252H105.762V13.3999H104.614V12.252ZM106.071 20.2432C104.416 20.2432 103.422 19.3602 103.422 17.3955C103.389 17.0412 103.429 16.6838 103.541 16.3461C103.653 16.0083 103.835 15.6976 104.073 15.4338C104.312 15.17 104.603 14.9589 104.928 14.814C105.253 14.669 105.605 14.5934 105.961 14.5919C107.617 14.5919 108.61 15.6295 108.61 17.55C108.61 19.4705 107.661 20.3536 105.961 20.3536" fill="#185FA0"/>
<path id="Vector_19" d="M113.29 20.243C112.745 20.2471 112.207 20.1183 111.723 19.8678C111.739 20.2015 111.684 20.5348 111.563 20.8462C111.442 21.1576 111.257 21.44 111.02 21.6752C110.782 21.9104 110.498 22.0931 110.186 22.2115C109.873 22.3298 109.54 22.3812 109.206 22.3623V21.413C109.45 21.3935 109.685 21.3097 109.887 21.1702C110.089 21.0306 110.25 20.8402 110.354 20.6183C110.53 20.1695 110.598 19.6855 110.553 19.2055V14.5918H111.723V18.2121C111.723 18.9406 112.363 19.3159 113.29 19.3159H113.444V20.3534L113.29 20.243Z" fill="#185FA0"/>
<path id="Vector_20" d="M115.409 19.2275H113.091V20.243H115.409V19.2275Z" fill="#185FA0"/>
<path id="Vector_21" d="M115.056 20.2425V19.205H119.581C119.623 18.7256 119.562 18.2427 119.401 17.7893C119.239 17.3358 118.983 16.9223 118.648 16.5768C118.313 16.2313 117.907 15.9619 117.459 15.7869C117.011 15.6119 116.53 15.5354 116.049 15.5626V14.5913C116.672 14.5469 117.296 14.6349 117.882 14.8496C118.468 15.0642 119.002 15.4006 119.448 15.8365C119.895 16.2725 120.244 16.7981 120.472 17.3787C120.7 17.9593 120.803 18.5818 120.773 19.205H122.54V20.2425H115.056Z" fill="#185FA0"/>
<path id="Vector_22" d="M122.12 20.2428V19.2053C123.224 19.2053 123.798 18.6755 123.798 17.7483V12.2295H124.99V17.7924C124.99 19.3156 123.864 20.2428 122.12 20.2428Z" fill="#185FA0"/>
<path id="Vector_23" d="M127.528 12.252H126.336V20.2432H127.528V12.252Z" fill="#185FA0"/>
<path id="Vector_24" d="M53.0467 1.05957H54.2167V2.20748H53.0467V1.05957ZM51.2145 1.05957H52.3845V2.20748H51.2145V1.05957ZM53.0688 4.26048H51.6339C50.5302 4.26048 50.2653 5.49669 50.2653 6.26932C50.2653 7.04195 50.6405 8.01326 51.6339 8.01326H53.0247L53.0688 4.26048ZM51.6339 9.02872C51.2801 9.03348 50.9293 8.96358 50.6044 8.82358C50.2794 8.68358 49.9876 8.47663 49.7481 8.21624C49.5085 7.95584 49.3265 7.64786 49.2141 7.31239C49.1016 6.97692 49.0611 6.62149 49.0953 6.26932C49.0953 4.26048 50.0887 3.31124 51.6339 3.31124H54.2388V7.96911H55.8503V8.98457L51.6339 9.02872Z" fill="#185FA0"/>
<path id="Vector_25" d="M57.7708 8.03516H55.4529V9.05062H57.7708V8.03516Z" fill="#185FA0"/>
<path id="Vector_26" d="M59.7355 8.03516H57.4176V9.05062H59.7355V8.03516Z" fill="#185FA0"/>
<path id="Vector_27" d="M61.7002 8.03516H59.3823V9.05062H61.7002V8.03516Z" fill="#185FA0"/>
<path id="Vector_28" d="M65.1219 1.05957H66.2918V2.20748H65.1219V1.05957ZM63.2675 1.05957H64.4375V2.20748H63.2675V1.05957ZM64.879 4.19425C64.5264 4.17142 64.1776 4.27749 63.8974 4.49272C63.6171 4.70795 63.4247 5.01768 63.3558 5.36424C63.3322 5.84838 63.4685 6.32687 63.7438 6.72584C64.019 7.1248 64.418 7.42207 64.879 7.57176C65.3318 7.4143 65.7211 7.11372 65.9879 6.71545C66.2547 6.31719 66.3847 5.84289 66.3581 5.36424C66.2945 5.02345 66.1096 4.71722 65.8377 4.50214C65.5659 4.28707 65.2253 4.1777 64.879 4.19425ZM66.4243 9.02872C65.9009 9.03594 65.3795 8.96147 64.879 8.80797C64.3703 8.95833 63.8422 9.03272 63.3117 9.02872H61.347V7.96911H63.4C62.965 7.68237 62.6121 7.28735 62.376 6.82289C62.1399 6.35843 62.0287 5.84052 62.0534 5.32009C62.2156 4.7272 62.5681 4.20405 63.0567 3.83113C63.5453 3.45822 64.143 3.25622 64.7576 3.25622C65.3723 3.25622 65.9699 3.45822 66.4585 3.83113C66.9471 4.20405 67.2997 4.7272 67.4618 5.32009C67.4865 5.84052 67.3754 6.35843 67.1393 6.82289C66.9032 7.28735 66.5503 7.68237 66.1152 7.96911H68.1682V8.98457L66.4243 9.02872Z" fill="#185FA0"/>
<path id="Vector_29" d="M73.2014 4.52559C70.9939 4.52559 70.2213 7.17462 69.8901 8.01348H72.8924C74.1506 8.01348 74.5701 7.06424 74.5701 6.07086C74.5883 5.87817 74.5667 5.68378 74.5067 5.49977C74.4467 5.31576 74.3495 5.14604 74.2211 5.00115C74.0928 4.85626 73.9361 4.73928 73.7607 4.65748C73.5852 4.57567 73.3949 4.53078 73.2014 4.52559ZM67.9034 8.94064V7.96933H68.7643V1.85449H69.9564L69.7798 6.26953C70.0353 5.53169 70.4982 4.88316 71.1129 4.4016C71.7275 3.92003 72.468 3.62585 73.2456 3.55428C73.5794 3.54191 73.9121 3.59854 74.2231 3.72063C74.534 3.84272 74.8164 4.02764 75.0526 4.26384C75.2888 4.50004 75.4737 4.78243 75.5958 5.09336C75.7179 5.40428 75.7745 5.73705 75.7621 6.07086C75.7606 6.76318 75.5361 7.4366 75.122 7.9914H76.8659V9.00686L67.9034 8.94064Z" fill="#185FA0"/>
<path id="Vector_30" d="M78.1242 1.05957H79.2942V2.20748H78.1242V1.05957ZM80.8836 9.02872C80.4815 9.06945 80.0754 9.02136 79.6939 8.88785C79.3125 8.75434 78.965 8.53867 78.6761 8.25609C78.4158 8.52715 78.0986 8.73707 77.7474 8.87068C77.3962 9.00429 77.0197 9.05827 76.6451 9.02872H76.4244V7.96911H76.6451C77.5281 7.96911 78.0359 7.52761 78.0359 6.77705V3.31124H79.2279V6.86535C79.2279 7.61591 79.824 8.01326 80.7953 8.01326H81.016V9.02872H80.8836Z" fill="#185FA0"/>
<path id="Vector_31" d="M84.9013 4.92312C83.9079 4.92312 83.4443 5.62953 83.4443 7.13064C83.4443 8.63176 83.9079 9.20571 84.9013 9.20571C85.8946 9.20571 86.3582 8.4993 86.3582 7.15272C86.3582 5.80613 85.8946 4.9452 84.9013 4.9452M89.1618 9.02911C88.5303 9.05249 87.9066 8.8831 87.3737 8.54346C87.1676 9.0161 86.8281 9.41833 86.3968 9.70082C85.9654 9.98332 85.461 10.1338 84.9454 10.1338C84.4298 10.1338 83.9254 9.98332 83.4941 9.70082C83.0627 9.41833 82.7232 9.0161 82.5171 8.54346C82.0217 8.8507 81.4434 8.99721 80.8615 8.96288H80.6628V7.9695H80.8615C81.6783 7.9695 82.186 7.66045 82.2081 6.93196C82.3185 5.09972 83.3118 3.95181 84.9454 3.95181C85.3147 3.94363 85.6814 4.01406 86.0214 4.15843C86.3613 4.30281 86.6667 4.51782 86.9172 4.78921C87.1677 5.0606 87.3577 5.38216 87.4744 5.73256C87.5912 6.08296 87.6321 6.45417 87.5944 6.82159C87.5944 7.57214 88.1905 7.9695 89.1618 7.9695H89.3825V8.98496L89.1618 9.02911Z" fill="#185FA0"/>
<path id="Vector_32" d="M88.9189 9.02872V7.96911C90.0227 7.96911 90.5746 7.43931 90.5746 6.51215V1.05957H91.7666V6.62252C91.7666 8.12364 90.6408 9.02872 88.9189 9.02872Z" fill="#185FA0"/>
<path id="Vector_33" d="M94.3053 1.08203H93.1132V9.05118H94.3053V1.08203Z" fill="#185FA0"/>
<path id="Vector_34" d="M101.943 1.05957H103.113V2.20748H101.943V1.05957ZM100.089 1.05957H101.259V2.20748H100.199L100.089 1.05957ZM101.943 4.26047H100.553C99.4709 4.26047 99.206 5.49669 99.206 6.26932C99.206 7.04195 99.5592 8.01326 100.553 8.01326H101.943V4.26047ZM100.508 9.02872C100.157 9.027 99.8107 8.95253 99.49 8.81003C99.1693 8.66752 98.8816 8.46007 98.6452 8.20077C98.4087 7.94147 98.2285 7.63595 98.1161 7.30351C98.0036 6.97107 97.9613 6.61893 97.9919 6.26932C97.9919 4.26047 98.9852 3.31124 100.531 3.31124H103.157V7.96911H104.769V8.98457L100.508 9.02872Z" fill="#185FA0"/>
<path id="Vector_35" d="M106.645 8.03516H104.327V9.05062H106.645V8.03516Z" fill="#185FA0"/>
<path id="Vector_36" d="M108.61 8.03516H106.292V9.05062H108.61V8.03516Z" fill="#185FA0"/>
<path id="Vector_37" d="M110.575 8.03516H108.257V9.05062H110.575V8.03516Z" fill="#185FA0"/>
<path id="Vector_38" d="M114.592 9.02898C114.19 9.06971 113.784 9.02162 113.403 8.88811C113.021 8.75461 112.674 8.53894 112.385 8.25635C112.119 8.52668 111.798 8.73586 111.444 8.8693C111.089 9.00275 110.71 9.05724 110.332 9.02898H110.199V7.96937H110.332C111.215 7.96937 111.745 7.52787 111.745 6.77731V3.3115H112.915V6.86561C112.915 7.61617 113.533 8.01352 114.504 8.01352H114.703V9.02898H114.592ZM110.023 2.22982V1.54549H110.729V1.34681C110.707 1.1672 110.724 0.984895 110.778 0.812338C110.833 0.63978 110.924 0.48103 111.046 0.34692C111.167 0.212811 111.316 0.106498 111.483 0.0352372C111.649 -0.036024 111.829 -0.0705568 112.01 -0.0660045C112.277 -0.0828196 112.542 -0.00921242 112.762 0.142959C112.982 0.29513 113.145 0.517007 113.224 0.772854H112.385C112.275 0.640402 112.208 0.552103 112.032 0.552103C111.855 0.552103 111.502 0.993606 111.502 1.32473V1.47926H113.445V2.16359L110.023 2.22982Z" fill="#185FA0"/>
<path id="Vector_39" d="M116.712 8.03516H114.394V9.05062H116.712V8.03516Z" fill="#185FA0"/>
<path id="Vector_40" d="M117.992 10.1769H119.162V11.3027H117.992V10.1769ZM120.729 9.09523C120.327 9.14068 119.92 9.09482 119.537 8.96105C119.155 8.82728 118.808 8.60905 118.522 8.32259C118.256 8.59293 117.935 8.80211 117.581 8.93555C117.226 9.06899 116.847 9.12348 116.469 9.09523H116.27V7.96939H116.469C117.352 7.96939 117.86 7.52789 117.86 6.77733V3.31152H119.052V6.86563C119.052 7.61619 119.648 8.01354 120.641 8.01354H120.84V9.029L120.729 9.09523ZM116.116 10.1769H117.308V11.3027H116.116V10.1769Z" fill="#185FA0"/>
<path id="Vector_41" d="M126.381 5.76176C126.381 4.59177 125.829 4.15027 125.1 4.01781V7.96928H126.381V5.76176ZM123.93 4.01781C123.202 4.15027 122.65 4.59177 122.65 5.76176V7.96928H123.93V4.01781ZM120.509 9.02889V7.96928H121.48V5.76176C121.449 5.41979 121.49 5.07522 121.599 4.74963C121.708 4.42403 121.883 4.12442 122.113 3.86954C122.343 3.61466 122.623 3.41001 122.936 3.26839C123.248 3.12677 123.587 3.05123 123.93 3.04651V2.0752H125.1V3.04651C125.444 3.05147 125.784 3.12697 126.098 3.26835C126.411 3.40974 126.693 3.61399 126.925 3.86848C127.156 4.12298 127.333 4.4223 127.445 4.74795C127.556 5.07359 127.6 5.41864 127.573 5.76176V9.13926L120.509 9.02889Z" fill="#185FA0"/>
<path id="Vector_42" d="M49.1836 27.2852H51.943V30.9938H55.4529V27.2852H58.2565V37.219H56.049C55.5854 37.219 55.5854 36.9099 55.5854 36.7113V33.4441H51.943V36.6671C51.9373 36.8038 51.879 36.9329 51.7802 37.0276C51.6815 37.1222 51.5499 37.175 51.4132 37.1748H49.2057L49.1836 27.2852Z" fill="#185FA0"/>
<path id="Vector_43" d="M65.8062 33.2894L64.7024 30.4859L63.5766 33.2894H65.8062ZM63.4 27.2188H66.049L70.2875 37.2188H67.9475C67.762 37.2429 67.574 37.2007 67.4165 37.0998C67.259 36.9988 67.1422 36.8455 67.0866 36.6669C67.0866 36.4903 66.5568 35.3866 66.5568 35.3866H62.7819L62.2742 36.6669C62.2093 36.818 62.1015 36.9466 61.9641 37.0369C61.8268 37.1271 61.6659 37.175 61.5015 37.1747H59.294L63.4 27.2188Z" fill="#185FA0"/>
<path id="Vector_44" d="M71.2367 27.2852H74.1506L76.5127 31.1262L78.8747 27.2852H81.7887V37.219H79.5811C79.5111 37.2295 79.4395 37.2238 79.372 37.2024C79.3044 37.1809 79.2427 37.1443 79.1915 37.0953C79.1404 37.0462 79.1011 36.9861 79.0768 36.9196C79.0525 36.853 79.0438 36.7817 79.0513 36.7113V31.5015L76.5127 35.3868L73.9299 31.5457V36.6671C73.9363 36.7335 73.9284 36.8005 73.9066 36.8635C73.8847 36.9266 73.8496 36.9841 73.8035 37.0323C73.7574 37.0805 73.7014 37.1182 73.6394 37.1428C73.5774 37.1674 73.5108 37.1783 73.4442 37.1748H71.2367V27.2852Z" fill="#185FA0"/>
<path id="Vector_45" d="M88.1022 32.0535C89.0514 32.0535 89.5812 31.5899 89.5812 30.8835C89.5812 30.1108 89.0293 29.7135 88.1022 29.7135H86.292V32.0976L88.1022 32.0535ZM83.5547 27.2852H88.2346C88.8203 27.2406 89.4089 27.3133 89.9661 27.499C90.5234 27.6848 91.0379 27.9798 91.4797 28.3669C91.7633 28.6587 91.9857 29.0044 92.1335 29.3835C92.2814 29.7627 92.3518 30.1676 92.3406 30.5744C92.3674 31.2317 92.1853 31.8805 91.8204 32.4278C91.4555 32.9751 90.9267 33.3928 90.3097 33.6208L92.6717 37.0866H90.1331C89.95 37.0945 89.7675 37.0609 89.5993 36.9883C89.4311 36.9156 89.2815 36.8059 89.1618 36.6672L87.4841 34.1506H86.292V36.6672C86.292 36.91 86.292 37.1749 85.718 37.1749H83.5105L83.5547 27.2852Z" fill="#185FA0"/>
<path id="Vector_46" d="M93.7975 27.2852H96.5569V36.6671C96.557 36.7357 96.5432 36.8036 96.5163 36.8667C96.4894 36.9297 96.45 36.9867 96.4005 37.0342C96.351 37.0816 96.2924 37.1186 96.2282 37.1427C96.1641 37.1669 96.0957 37.1778 96.0271 37.1749H93.8196L93.7975 27.2852Z" fill="#185FA0"/>
<path id="Vector_47" d="M101.237 33.4883L97.462 27.2852H100.597L102.65 30.9055L104.614 27.2852H107.683L103.908 33.4441V37.219H101.7C101.259 37.219 101.171 36.9541 101.171 36.7113L101.237 33.4883Z" fill="#185FA0"/>
<path id="Vector_48" d="M112.915 33.2894L111.789 30.4859L110.685 33.2894H112.915ZM110.486 27.2188H113.135L117.374 37.2188H115.012C114.844 37.2207 114.68 37.1736 114.539 37.0834C114.398 36.9933 114.286 36.8639 114.217 36.7111L113.687 35.4307H109.868L109.361 36.7111C109.287 36.8559 109.178 36.979 109.042 37.0681C108.906 37.1572 108.75 37.2092 108.588 37.2188H106.38L110.486 27.2188Z" fill="#185FA0"/>
<path id="Vector_49" d="M118.323 27.2852H121.083V30.9938H124.615V27.2852H127.374V37.219H125.166C124.659 37.219 124.592 36.932 124.592 36.7113V33.4441H121.06V36.6671C121.064 36.7387 121.052 36.8103 121.025 36.8767C120.998 36.9431 120.957 37.0027 120.904 37.0512C120.852 37.0998 120.789 37.136 120.72 37.1574C120.652 37.1788 120.58 37.1847 120.509 37.1748H118.301L118.323 27.2852Z" fill="#185FA0"/>
<path id="Vector_50" d="M49.2057 40.2656V44.5041H50.3756V43.003H52.3845V42.0096H50.3756V41.2811H52.6052V40.2656H49.2057Z" fill="#185FA0"/>
<path id="Vector_51" d="M55.2763 42.296C55.6958 42.296 55.9165 42.0973 55.9165 41.7882C55.9165 41.4571 55.6737 41.2805 55.2763 41.2805H54.5037V42.318L55.2763 42.296ZM53.3337 40.243H55.3425C55.8492 40.2075 56.3492 40.3742 56.7333 40.7065C56.8599 40.838 56.9585 40.9939 57.023 41.1647C57.0875 41.3355 57.1166 41.5176 57.1086 41.6999C57.1146 41.9845 57.0332 42.2642 56.8753 42.501C56.7174 42.7379 56.4906 42.9206 56.2256 43.0244L57.241 44.5035H55.8723L55.0335 43.2893H54.5037V44.5918H53.3337V40.243Z" fill="#185FA0"/>
<path id="Vector_52" d="M57.9033 40.2656V44.5041H61.3691V43.5107H59.0733V42.8263H61.1263V41.8992H59.0733V41.259H61.347V40.2656H57.9033Z" fill="#185FA0"/>
<path id="Vector_53" d="M62.1638 40.2656V44.5041H65.6296V43.5107H63.3338V42.8263H65.3868V41.8992H63.3338V41.259H65.5855V40.2656H62.1638Z" fill="#185FA0"/>
<path id="Vector_54" d="M68.2566 40.2656V41.259H70.3316L68.1903 43.6431V44.5041H71.9431V43.5107H69.8239L71.9431 41.1045V40.2656H68.2566Z" fill="#185FA0"/>
<path id="Vector_55" d="M75.9167 42.3841C75.9226 42.2373 75.8991 42.0908 75.8477 41.9532C75.7962 41.8156 75.7178 41.6897 75.6171 41.5828C75.5163 41.4759 75.3953 41.3901 75.261 41.3306C75.1267 41.2711 74.9818 41.239 74.835 41.2362C74.6872 41.2359 74.5409 41.2659 74.4051 41.3244C74.2694 41.3828 74.1471 41.4685 74.0457 41.5761C73.9443 41.6836 73.8661 41.8108 73.8158 41.9498C73.7655 42.0888 73.7442 42.2366 73.7533 42.3841C73.7474 42.5309 73.7708 42.6774 73.8223 42.815C73.8737 42.9526 73.9521 43.0785 74.0528 43.1854C74.1536 43.2923 74.2747 43.378 74.409 43.4376C74.5433 43.4971 74.6881 43.5292 74.835 43.532C74.9817 43.5354 75.1276 43.5082 75.2632 43.4522C75.3989 43.3962 75.5215 43.3126 75.6232 43.2068C75.7249 43.101 75.8035 42.9751 75.854 42.8373C75.9045 42.6995 75.9259 42.5527 75.9167 42.4062M72.5391 42.4062C72.5391 41.7973 72.781 41.2133 73.2116 40.7828C73.6421 40.3522 74.2261 40.1104 74.835 40.1104C75.4439 40.1104 76.0278 40.3522 76.4584 40.7828C76.8889 41.2133 77.1308 41.7973 77.1308 42.4062C77.1308 43.0151 76.8889 43.599 76.4584 44.0296C76.0278 44.4601 75.4439 44.702 74.835 44.702C74.2261 44.702 73.6421 44.4601 73.2116 44.0296C72.781 43.599 72.5391 43.0151 72.5391 42.4062Z" fill="#185FA0"/>
<path id="Vector_56" d="M80.6849 40.2656V42.4952L78.9409 40.2656H77.8372V44.5041H79.0072V42.1862L80.8173 44.5041H81.8549V40.2656H80.6849Z" fill="#185FA0"/>
<path id="Vector_57" d="M82.8262 40.2656V44.5041H86.2699V43.5107H83.9962V42.8263H86.0271V41.8992H83.9962V41.259H86.2479V40.2656H82.8262Z" fill="#185FA0"/>
<path id="Vector_58" d="M90.994 41.6114L91.4576 42.8256H90.5084L90.994 41.6114ZM90.4201 40.2207L88.6099 44.5033H89.8682L90.1552 43.7307H91.8108L92.1199 44.5033H93.3781L91.568 40.2207H90.4201Z" fill="#185FA0"/>
<path id="Vector_59" d="M93.7755 42.6273V40.2432H94.9676V42.6052C94.9676 43.2233 95.2766 43.5103 95.7623 43.5103C96.2479 43.5103 96.5349 43.2454 96.5349 42.6494V40.2432H97.727V42.6052C97.7597 42.873 97.7306 43.1447 97.642 43.3995C97.5534 43.6543 97.4076 43.8855 97.2158 44.0752C97.0239 44.2648 96.7912 44.4081 96.5354 44.4938C96.2796 44.5796 96.0076 44.6056 95.7402 44.5699C95.4757 44.6057 95.2065 44.5803 94.9533 44.4957C94.7002 44.4111 94.4698 44.2695 94.28 44.0818C94.0902 43.8942 93.946 43.6654 93.8586 43.4132C93.7711 43.1611 93.7427 42.8922 93.7755 42.6273Z" fill="#185FA0"/>
<path id="Vector_60" d="M98.4113 40.2656V41.2811H99.6917V44.5041H100.862V41.2811H102.142V40.2656H98.4113Z" fill="#185FA0"/>
<path id="Vector_61" d="M105.564 40.2656V41.855H104.04V40.2656H102.87V44.5041H104.04V42.8926H105.564V44.5041H106.734V40.2656H105.564Z" fill="#185FA0"/>
<path id="Vector_62" d="M110.928 42.3848C110.931 42.2369 110.905 42.0899 110.851 41.9522C110.797 41.8145 110.716 41.6888 110.614 41.5822C110.511 41.4756 110.389 41.3902 110.253 41.331C110.118 41.2717 109.972 41.2397 109.824 41.2369C109.677 41.2397 109.532 41.2718 109.398 41.3313C109.264 41.3908 109.143 41.4766 109.042 41.5835C108.941 41.6904 108.863 41.8163 108.811 41.9539C108.76 42.0915 108.737 42.238 108.743 42.3848C108.737 42.5334 108.761 42.6817 108.814 42.8207C108.866 42.9598 108.947 43.0867 109.05 43.194C109.153 43.3012 109.277 43.3864 109.413 43.4447C109.55 43.5029 109.698 43.5328 109.846 43.5327C109.992 43.5328 110.136 43.5034 110.271 43.4463C110.405 43.3892 110.526 43.3056 110.627 43.2004C110.728 43.0953 110.807 42.9707 110.859 42.8344C110.91 42.698 110.934 42.5526 110.928 42.4069M107.55 42.4069C107.55 41.8009 107.791 41.2197 108.22 40.7913C108.648 40.3628 109.229 40.1221 109.835 40.1221C110.441 40.1221 111.022 40.3628 111.451 40.7913C111.879 41.2197 112.12 41.8009 112.12 42.4069C112.12 43.0128 111.879 43.594 111.451 44.0224C111.022 44.4509 110.441 44.6916 109.835 44.6916C109.229 44.6916 108.648 44.4509 108.22 44.0224C107.791 43.594 107.55 43.0128 107.55 42.4069Z" fill="#185FA0"/>
<path id="Vector_63" d="M114.901 42.2962C115.299 42.2962 115.542 42.0976 115.542 41.7885C115.542 41.4574 115.299 41.2808 114.901 41.2808H114.129V42.3183L114.901 42.2962ZM112.937 40.2432H114.946C115.197 40.2232 115.449 40.254 115.688 40.3336C115.927 40.4132 116.148 40.5402 116.336 40.7068C116.463 40.8383 116.562 40.9942 116.626 41.165C116.691 41.3357 116.72 41.5178 116.712 41.7002C116.723 41.9829 116.646 42.262 116.492 42.4992C116.337 42.7364 116.114 42.92 115.851 43.0247L116.866 44.5038H115.498L114.637 43.2896H114.129V44.5921H112.937V40.2432Z" fill="#185FA0"/>
<path id="Vector_64" d="M118.743 40.2656H117.55V44.5261H118.743V40.2656Z" fill="#185FA0"/>
<path id="Vector_65" d="M119.493 40.2656V41.2811H120.751V44.5041H121.943V41.2811H123.202V40.2656H119.493Z" fill="#185FA0"/>
<path id="Vector_66" d="M126.645 40.2656L125.762 41.8109L124.879 40.2656H123.555L125.166 42.9147V44.5041H126.358V42.8926L127.97 40.2656H126.645Z" fill="#185FA0"/>
<path id="Vector_67" d="M0 62.2959V70.9052H5.58503V69.2937H1.76602V67.3732H5.09937V65.7617H1.76602V63.9074H5.54088V62.2959H0Z" fill="#185FA0"/>
<path id="Vector_68" d="M6.82124 64.305H8.56518V65.188C8.74026 64.8846 8.99082 64.6317 9.29253 64.4537C9.59424 64.2758 9.93684 64.1789 10.287 64.1725C10.6204 64.1634 10.9494 64.2501 11.235 64.4222C11.5206 64.5944 11.7509 64.8448 11.8985 65.1438C12.1168 64.8498 12.3993 64.6095 12.7244 64.4412C13.0496 64.2729 13.4089 64.181 13.7749 64.1725C14.9449 64.1725 15.7175 64.9452 15.7175 66.38V70.7951H14.1061V66.8216C14.1061 66.0489 13.7749 65.6516 13.201 65.6516C12.627 65.6516 12.2517 66.0489 12.2517 66.8216V70.7951H10.5078V66.8216C10.5078 66.0489 10.1987 65.6516 9.62479 65.6516C9.05084 65.6516 8.67556 66.0489 8.67556 66.8216V70.7951H6.82124V64.305Z" fill="#185FA0"/>
<path id="Vector_69" d="M21.3909 67.5719C21.3909 66.446 20.839 65.7396 20.1105 65.7396C19.382 65.7396 18.8301 66.446 18.8301 67.5719C18.8301 68.6977 19.382 69.4041 20.1105 69.4041C20.839 69.4041 21.3909 68.6977 21.3909 67.5719ZM17.1083 64.2164H18.8522V65.1215C19.0317 64.8106 19.2888 64.5515 19.5983 64.3697C19.9078 64.1878 20.2593 64.0894 20.6182 64.084C21.9207 64.084 23.1348 65.1657 23.1348 67.4173V67.616C23.1348 69.8235 21.9428 70.9273 20.6182 70.9273C20.2679 70.9172 19.925 70.8239 19.6179 70.655C19.3108 70.4861 19.0483 70.2465 18.8522 69.956V72.6712H17.1083V64.2164Z" fill="#185FA0"/>
<path id="Vector_70" d="M28.5212 67.5722C28.5212 66.5126 27.9693 65.6958 27.1525 65.6958C26.3357 65.6958 25.7618 66.4905 25.7618 67.5722C25.7618 68.6098 26.3137 69.4486 27.1525 69.4486C27.9914 69.4486 28.5212 68.6539 28.5212 67.5722ZM24.1061 67.5722C24.0759 67.1442 24.1339 66.7146 24.2764 66.3099C24.419 65.9053 24.6431 65.5342 24.9349 65.2196C25.2267 64.9051 25.5799 64.6538 25.9728 64.4813C26.3656 64.3088 26.7897 64.2188 27.2187 64.2168C27.6413 64.2275 28.0572 64.3241 28.4412 64.5008C28.8251 64.6775 29.1691 64.9305 29.4521 65.2445C29.735 65.5585 29.9511 65.9268 30.0871 66.327C30.2231 66.7272 30.2761 67.1509 30.243 67.5722V67.7047C30.2793 68.134 30.226 68.5661 30.0866 68.9738C29.9472 69.3814 29.7247 69.7557 29.4331 70.0729C29.1416 70.3901 28.7874 70.6433 28.3929 70.8165C27.9984 70.9897 27.5723 71.0792 27.1415 71.0792C26.7106 71.0792 26.2845 70.9897 25.89 70.8165C25.4956 70.6433 25.1414 70.3901 24.8498 70.0729C24.5583 69.7557 24.3357 69.3814 24.1963 68.9738C24.0569 68.5661 24.0037 68.134 24.0399 67.7047" fill="#185FA0"/>
<path id="Vector_71" d="M30.7066 64.3274H32.4726L33.3556 68.2126L34.3711 64.2832H35.8722L36.9098 68.2347L37.8148 64.3274H39.5367L37.7707 70.9499H36.1592L35.1217 67.0426L34.04 70.9499H32.4506L30.7066 64.3274Z" fill="#185FA0"/>
<path id="Vector_72" d="M43.9517 67.0868C43.9517 66.1817 43.4882 65.6298 42.8259 65.6298C42.1637 65.6298 41.7663 66.1596 41.678 67.0868H43.9517ZM39.9561 67.6828C39.8942 67.2624 39.9202 66.8338 40.0326 66.424C40.145 66.0142 40.3413 65.6323 40.609 65.3023C40.8767 64.9723 41.21 64.7016 41.5878 64.5071C41.9656 64.3127 42.3797 64.1989 42.8038 64.1729C44.6802 64.1729 45.6074 65.7181 45.6074 67.6828C45.6074 67.7932 45.6074 67.9919 45.6074 68.2568H41.678C41.7007 68.6198 41.8625 68.9601 42.1298 69.2068C42.3971 69.4535 42.7492 69.5877 43.1129 69.5813C43.3743 69.5712 43.6309 69.5071 43.8664 69.3932C44.1019 69.2792 44.3114 69.1178 44.4815 68.919L45.3866 69.9786C45.0973 70.315 44.738 70.5841 44.3338 70.7671C43.9296 70.9502 43.4903 71.0427 43.0467 71.0382C42.6165 71.0432 42.1901 70.9577 41.7952 70.7873C41.4002 70.6168 41.0456 70.3652 40.7541 70.0488C40.4627 69.7324 40.2411 69.3582 40.1036 68.9506C39.9661 68.543 39.9159 68.1111 39.9561 67.6828Z" fill="#185FA0"/>
<path id="Vector_73" d="M46.7774 64.3052H48.5213V65.4752C48.6233 65.0867 48.8578 64.7461 49.1843 64.5123C49.5108 64.2785 49.9088 64.1662 50.3094 64.1948V66.0933C49.2498 66.0933 48.6096 66.7555 48.6096 68.1242V70.9057H46.7774V64.3052Z" fill="#185FA0"/>
<path id="Vector_74" d="M51.3469 70.9055H53.0909V64.2829H51.3469V70.9055ZM51.3469 63.5986H53.1792V62.0312H51.3469V63.5986Z" fill="#185FA0"/>
<path id="Vector_75" d="M54.5699 64.3053H56.3139V65.1883C56.4854 64.8867 56.7321 64.6346 57.03 64.4566C57.3278 64.2787 57.6667 64.1809 58.0137 64.1729C59.2278 64.1729 59.9563 65.0338 59.9563 66.3804V70.7954H58.2565V66.8219C58.2565 66.0492 57.9033 65.6519 57.3072 65.6519C56.7112 65.6519 56.358 66.0492 56.358 66.8219V70.7954H54.6141L54.5699 64.3053Z" fill="#185FA0"/>
<path id="Vector_76" d="M65.3868 67.2852C65.3868 66.3139 64.8349 65.6738 64.0843 65.6738C63.3338 65.6738 62.804 66.3139 62.804 67.2852C62.804 68.2786 63.3559 68.8967 64.0843 68.8967C64.8128 68.8967 65.3868 68.2786 65.3868 67.2852ZM61.347 72.2301L61.8768 70.8614C62.4494 71.1839 63.0961 71.3513 63.7532 71.3471C64.8349 71.3471 65.3647 70.8394 65.3647 69.7798V69.3824C65.1673 69.6902 64.8965 69.9441 64.5767 70.1213C64.2569 70.2985 63.8981 70.3936 63.5325 70.3979C62.23 70.3979 61.06 69.3824 61.06 67.3073C61.06 65.2323 62.23 64.2168 63.5325 64.2168C63.8961 64.2187 64.2536 64.3103 64.5732 64.4836C64.8928 64.6569 65.1647 64.9065 65.3647 65.2102V64.3493H67.0866V69.7798C67.125 70.5841 66.8568 71.3731 66.336 71.9873C65.99 72.2797 65.5894 72.5006 65.1574 72.637C64.7254 72.7734 64.2706 72.8227 63.8194 72.782C62.957 72.7878 62.1044 72.5991 61.3249 72.2301" fill="#185FA0"/>
<path id="Vector_77" d="M71.8107 62.2959H76.9763V62.8699H72.4288V66.2915H76.5127V66.8434H72.4288V70.3313H77.0425V70.9052H71.8107V62.2959Z" fill="#185FA0"/>
<path id="Vector_78" d="M78.654 64.57H79.2059V65.6516C79.3893 65.2876 79.67 64.9814 80.0168 64.7671C80.3636 64.5528 80.7629 64.4387 81.1706 64.4375C81.4739 64.4368 81.7742 64.4985 82.0526 64.619C82.331 64.7395 82.5816 64.9161 82.7888 65.1377C82.9959 65.3594 83.1552 65.6213 83.2566 65.9072C83.358 66.1932 83.3993 66.4969 83.3781 66.7996V70.9055H82.76V66.9541C82.76 65.6737 82.1419 64.9452 81.0823 64.9452C80.8202 64.9504 80.5621 65.0091 80.3236 65.1178C80.0851 65.2265 79.8714 65.3829 79.6956 65.5773C79.5199 65.7717 79.3857 66 79.3015 66.2481C79.2173 66.4963 79.1847 66.7591 79.2059 67.0203V70.9055H78.654V64.57Z" fill="#185FA0"/>
<path id="Vector_79" d="M85.4531 69.4705V65.0554H84.7467V64.5256H85.5635V62.583H86.1375V64.5256H87.9476V65.0554H86.1375V69.3601C86.1187 69.5027 86.1334 69.6478 86.1803 69.7838C86.2273 69.9198 86.3052 70.043 86.408 70.1436C86.5108 70.2443 86.6356 70.3196 86.7726 70.3637C86.9095 70.4078 87.0549 70.4194 87.1971 70.3976C87.4552 70.3977 87.7106 70.3451 87.9476 70.2431V70.7729C87.6807 70.8785 87.3958 70.9309 87.1088 70.9274C86.9039 70.9511 86.6964 70.9289 86.5012 70.8625C86.306 70.7961 86.128 70.6871 85.9801 70.5434C85.8322 70.3998 85.718 70.225 85.646 70.0318C85.574 69.8386 85.5458 69.6318 85.5635 69.4263" fill="#185FA0"/>
<path id="Vector_80" d="M93.2898 67.5719C93.2898 66.2254 92.6055 65.0774 91.4134 65.0774C90.2214 65.0774 89.537 66.0708 89.4487 67.5719H93.2898ZM88.8748 67.881C88.8748 65.9163 90.0006 64.5918 91.4576 64.5918C92.9146 64.5918 93.93 65.9163 93.93 67.8368V68.1238H89.515C89.4879 68.4354 89.5241 68.7493 89.6215 69.0465C89.7189 69.3437 89.8754 69.6181 90.0816 69.8532C90.2879 70.0884 90.5396 70.2793 90.8216 70.4146C91.1036 70.5499 91.41 70.6267 91.7225 70.6404C92.0546 70.643 92.3836 70.5756 92.6879 70.4424C92.9922 70.3093 93.265 70.1135 93.4885 69.8678L93.8417 70.2651C93.4348 70.7237 92.8898 71.0375 92.2889 71.1591C91.6881 71.2808 91.0639 71.2037 90.5107 70.9396C89.9575 70.6754 89.5051 70.2385 89.222 69.6947C88.9388 69.151 88.8402 68.5299 88.941 67.9252" fill="#185FA0"/>
<path id="Vector_81" d="M95.4311 64.5703H96.0051V66.0714C96.187 65.5954 96.5116 65.1871 96.9344 64.9026C97.3572 64.6181 97.8576 64.4712 98.3671 64.482V65.1001C98.0454 65.1159 97.7304 65.1979 97.4418 65.341C97.1533 65.4841 96.8974 65.6853 96.6901 65.9319C96.4829 66.1785 96.3288 66.4652 96.2376 66.7741C96.1463 67.083 96.1197 67.4074 96.1596 67.7271V70.9059H95.5857L95.4311 64.5703Z" fill="#185FA0"/>
<path id="Vector_82" d="M104.416 67.7925C104.416 66.0707 103.467 65.0552 102.385 65.0552C102.062 65.0883 101.748 65.1848 101.462 65.3392C101.176 65.4936 100.923 65.7029 100.718 65.9551C100.513 66.2073 100.36 66.4974 100.267 66.8089C100.174 67.1204 100.144 67.4472 100.177 67.7704V67.8808C100.144 68.2029 100.174 68.5284 100.268 68.8386C100.361 69.1487 100.514 69.4373 100.719 69.6878C100.925 69.9382 101.178 70.1455 101.463 70.2976C101.749 70.4497 102.062 70.5437 102.385 70.574C103.489 70.574 104.416 69.6248 104.416 67.8808M99.6696 64.6578H100.199V66.0044C100.391 65.5749 100.699 65.2082 101.09 64.9465C101.48 64.6848 101.937 64.5388 102.407 64.5254C103.687 64.5254 104.968 65.6733 104.968 67.7704C104.968 69.8455 103.687 71.0376 102.407 71.0376C101.939 71.0261 101.484 70.8834 101.094 70.6258C100.704 70.3681 100.394 70.006 100.199 69.5806V72.7374H99.6254L99.6696 64.6578Z" fill="#185FA0"/>
<path id="Vector_83" d="M106.623 64.57H107.175V66.0711C107.36 65.5969 107.685 65.1905 108.107 64.9064C108.529 64.6223 109.028 64.4741 109.537 64.4817V65.0998C109.207 65.1039 108.882 65.1771 108.582 65.3148C108.282 65.4524 108.014 65.6514 107.795 65.8989C107.577 66.1464 107.413 66.437 107.314 66.7518C107.214 67.0666 107.182 67.3988 107.219 67.7268V70.9056H106.667L106.623 64.57Z" fill="#185FA0"/>
<path id="Vector_84" d="M110.928 70.9052H111.502V64.5697H110.928V70.9052ZM110.928 63.0244H111.612V62.1855H110.928V63.0244Z" fill="#185FA0"/>
<path id="Vector_85" d="M112.959 70.111L113.312 69.6695C113.829 70.167 114.515 70.4508 115.233 70.4642C115.4 70.4825 115.57 70.4663 115.731 70.4165C115.892 70.3668 116.042 70.2846 116.17 70.175C116.298 70.0654 116.402 69.9307 116.477 69.7792C116.551 69.6278 116.593 69.4627 116.601 69.2943C116.601 68.6541 116.049 68.323 115.122 67.9256C114.195 67.5282 113.268 67.1088 113.268 66.1375C113.275 65.9022 113.332 65.6709 113.433 65.4585C113.535 65.2461 113.68 65.0571 113.858 64.9035C114.037 64.7499 114.245 64.6351 114.47 64.5663C114.696 64.4975 114.933 64.4763 115.166 64.5039C115.871 64.5151 116.553 64.7553 117.109 65.1883L116.778 65.6519C116.315 65.273 115.742 65.0559 115.144 65.0337C114.372 65.0337 113.842 65.4753 113.842 66.0934C113.842 66.7115 114.438 66.9984 115.365 67.3958C116.292 67.7931 117.175 68.2788 117.175 69.2501C117.17 69.5006 117.114 69.7473 117.009 69.9751C116.905 70.2029 116.755 70.4068 116.569 70.5744C116.383 70.742 116.164 70.8696 115.927 70.9494C115.689 71.0292 115.438 71.0594 115.188 71.0382C114.366 71.0192 113.58 70.6968 112.981 70.1331" fill="#185FA0"/>
<path id="Vector_86" d="M122.826 67.5719C122.826 66.2254 122.12 65.0774 120.95 65.0774C119.78 65.0774 119.074 66.0708 118.985 67.5719H122.826ZM118.411 67.881C118.411 65.9163 119.537 64.5918 120.994 64.5918C122.451 64.5918 123.467 65.9163 123.467 67.8368V68.1238H119.052C119.024 68.4354 119.061 68.7493 119.158 69.0465C119.256 69.3437 119.412 69.6181 119.618 69.8532C119.825 70.0884 120.076 70.2793 120.358 70.4146C120.64 70.5499 120.947 70.6267 121.259 70.6404C121.591 70.643 121.92 70.5756 122.225 70.4424C122.529 70.3093 122.802 70.1135 123.025 69.8678L123.378 70.2651C122.971 70.7237 122.426 71.0375 121.826 71.1591C121.225 71.2808 120.601 71.2037 120.047 70.9396C119.494 70.6754 119.042 70.2385 118.759 69.6947C118.475 69.151 118.377 68.5299 118.478 67.9252" fill="#185FA0"/>
<path id="Vector_87" d="M124.107 61.7881V62.0309H124.725V64.0177H124.968V62.0309H125.586V61.7881H124.107ZM127.683 61.7881L126.999 63.0464L126.292 61.7881H126.027V63.9956H126.248V62.2075L126.977 63.4658L127.705 62.2075V63.9956H127.926V61.7881H127.683Z" fill="#185FA0"/>
</g>
<defs>
<clipPath id="clip0_578_365">
<rect width="127.97" height="72.782" fill="white"/>
</clipPath>
</defs>
</svg>
