<svg width="132" height="69" viewBox="0 0 132 69" fill="none" xmlns="http://www.w3.org/2000/svg">
<g id="dafza-logo-svg-1 1">
<path id="Vector" d="M64.8881 36.7951V24.582H68.2238C69.574 24.582 70.6859 24.582 71.5596 24.971C73.3069 25.6711 74.657 27.8492 74.657 30.6497C74.657 32.9056 73.7834 34.8504 72.4332 35.8616C71.3213 36.7173 70.2094 36.7173 68.065 36.7173H64.8881V36.7951ZM66.0794 35.706H67.9061C68.9386 35.706 70.3682 35.706 71.1625 35.3171C72.3538 34.7726 73.4657 33.0612 73.4657 30.6497C73.4657 28.5493 72.5921 26.6046 71.083 25.9045C70.4477 25.6711 69.7329 25.6711 68.2238 25.6711H66.0794V35.706ZM83.3935 36.7951H82.361V35.3171C82.2816 35.4727 82.2022 35.7838 81.9639 36.095C81.3285 36.8729 80.3754 37.0285 79.7401 37.0285C78.1516 37.0285 77.4368 36.0172 77.1986 35.5505C76.8809 34.9281 76.8809 34.0724 76.8809 32.6722V28.6271H77.9134V32.9056C77.9134 34.6948 77.9134 36.095 79.8195 36.095C80.296 36.095 81.0108 36.0172 81.5668 35.3949C82.2816 34.617 82.361 33.7613 82.361 32.2055V28.6271H83.3935V36.7951ZM87.0469 36.7951H86.0144V24.582H87.0469V29.9496C87.6823 28.7049 88.7148 28.3938 89.5884 28.3938C91.8123 28.3938 93.083 30.4163 93.083 32.8278C93.083 34.6948 92.2888 36.9507 89.6679 36.9507C87.8412 36.9507 87.2058 35.706 87.0469 35.3171C87.0469 35.3171 87.0469 36.7951 87.0469 36.7951ZM89.4296 29.3272C89.1119 29.3272 88.7148 29.405 88.3971 29.5606C87.3646 30.1051 87.0469 31.4276 87.0469 32.6722C87.0469 34.9281 87.9206 36.095 89.509 36.095C91.4946 36.095 91.9711 34.3836 91.9711 32.9056C92.0505 30.6497 91.018 29.3272 89.4296 29.3272ZM102.534 36.7951C101.264 36.7951 100.39 36.7173 100.31 35.4727V35.3171C100.31 35.3949 100.231 35.4727 100.231 35.4727C99.7545 36.4839 98.5632 36.9507 97.2924 36.9507C95.2274 36.9507 94.6715 35.5505 94.6715 34.6948C94.6715 32.8278 96.657 32.3611 99.278 31.7387L100.31 31.5054V31.1164C100.31 30.4941 100.31 29.2494 98.2455 29.2494C96.1805 29.2494 96.1011 30.4163 96.0217 31.272L94.9097 31.1164C94.9892 30.7275 95.0686 30.1829 95.3863 29.7162C96.0217 28.7827 97.0541 28.4715 98.1661 28.4715C99.1986 28.4715 100.708 28.7049 101.105 30.1051C101.184 30.4941 101.184 30.883 101.184 31.6609V34.3058C101.184 35.7838 101.184 36.095 102.455 36.095V36.7951H102.534ZM100.31 32.4389L99.7545 32.5944C98.5632 32.9056 98.0866 33.0612 97.6895 33.139C96.7365 33.3723 95.704 33.6835 95.704 34.6948C95.704 35.3171 96.1805 36.0172 97.3718 36.0172C98.1661 36.0172 99.0397 35.6283 99.5957 35.0837C100.231 34.4614 100.31 33.7613 100.31 32.9834C100.31 32.9834 100.31 32.4389 100.31 32.4389ZM104.996 26.6046H103.964V25.0488H104.996V26.6046ZM104.996 36.7951H103.964V28.5493H104.996V36.7951ZM74.5776 51.9642H73.3069L71.8773 48.3081H66.3177L64.8881 51.9642H63.5379L68.6209 39.8289H69.574L74.5776 51.9642ZM71.4801 47.3746L69.0975 41.1514L66.6354 47.3746H71.4801ZM77.0397 41.8515H76.0072V40.2957H77.0397V41.8515ZM77.0397 51.9642H76.0072V43.7184H77.0397V51.9642ZM80.7726 51.9642H79.7401V43.7184H80.7726V45.0409C81.3285 43.9518 82.2022 43.5629 83.2347 43.5629C83.4729 43.5629 83.6318 43.5629 83.7906 43.6407V44.5741C83.4729 44.4963 83.4729 44.4964 83.1552 44.4964C82.8375 44.4964 82.0433 44.4963 81.4079 45.1187C80.7726 45.8188 80.7726 46.6745 80.7726 48.3859C80.7726 48.3859 80.7726 51.9642 80.7726 51.9642ZM85.2202 43.7184H86.2527V45.1187C86.4115 44.8075 86.491 44.6519 86.7292 44.3408C87.2852 43.7962 88 43.5629 88.7148 43.5629C91.4152 43.5629 92.2094 46.1299 92.2094 47.8413C92.2094 50.0973 91.018 52.1198 88.7148 52.1198C87.6029 52.1198 86.6498 51.6531 86.1733 50.564V56.2427H85.1408L85.2202 43.7184ZM86.3321 49.3971C86.6498 50.7196 87.6029 51.1863 88.556 51.1863C90.6209 51.1863 91.1769 49.086 91.1769 47.7635C91.1769 45.9744 90.3827 44.4964 88.556 44.4964C86.2527 44.4964 86.2527 46.9856 86.1733 47.7635C86.2527 48.3081 86.2527 48.8526 86.3321 49.3971ZM97.213 52.1976C94.7509 52.1976 93.4007 50.3306 93.4007 47.9969C93.4007 45.8966 94.5126 43.5629 97.213 43.5629C99.8339 43.5629 101.025 45.6632 101.025 47.8413C101.105 50.3306 99.5957 52.1976 97.213 52.1976ZM97.2924 44.4186C96.5776 44.4186 95.8628 44.7297 95.3863 45.2743C94.6715 46.1299 94.5921 47.2968 94.5921 47.9969C94.5921 50.3306 95.7834 51.2641 97.2924 51.2641C99.1191 51.2641 99.9928 49.8639 99.9928 47.9191C99.9928 47.4524 99.9928 44.4186 97.2924 44.4186ZM103.884 51.9642H102.852V43.7184H103.884V45.0409C104.44 43.9518 105.314 43.5629 106.347 43.5629C106.585 43.5629 106.744 43.5629 106.903 43.6407V44.5741C106.585 44.4963 106.585 44.4964 106.267 44.4964C105.949 44.4964 105.155 44.4963 104.52 45.1187C103.884 45.8188 103.884 46.6745 103.884 48.3859V51.9642ZM110.397 50.2528C110.397 51.0307 110.715 51.2641 111.112 51.2641C111.509 51.2641 111.906 51.0307 112.303 50.7196V51.7308C111.906 52.042 111.509 52.1198 110.953 52.1198C109.444 52.1198 109.444 51.2641 109.444 49.7083V44.5741H107.697V43.7184H109.444V40.2179H110.477V43.7184H112.303V44.5741H110.397V50.2528ZM66 67.1333H64.8881V54.998H72.9892V56.0093H66V60.1322H72.2744V61.1435H66V67.1333ZM75.3718 67.1333H74.3393V58.9654H75.3718V60.2878C75.9278 59.1987 76.8014 58.8098 77.8339 58.8098C78.0722 58.8098 78.231 58.8098 78.3899 58.8876V59.821C78.0722 59.7433 78.0722 59.7433 77.7545 59.7433C77.4368 59.7433 76.6426 59.7433 76.0072 60.3656C75.3718 61.0657 75.3718 61.9214 75.3718 63.6328V67.1333ZM86.8881 64.9552C86.7292 65.2664 86.5704 65.7331 86.0939 66.1998C85.8556 66.4332 85.0614 67.3667 83.2347 67.3667C80.4549 67.3667 79.2635 65.2664 79.2635 63.0104C79.2635 60.2878 81.0902 58.8098 83.1552 58.8098C85.6967 58.8098 86.9675 60.9879 86.9675 63.0882H80.4549C80.4549 63.555 80.4549 64.1773 80.6931 64.7996C81.3285 66.511 82.917 66.511 83.3141 66.511C84.2671 66.511 85.2996 66.1998 86.0144 64.7996L86.8881 64.9552ZM85.6967 62.2325C85.6173 61.5324 85.3791 60.8323 84.8231 60.2878C84.5054 59.9766 83.9495 59.6655 83.0758 59.6655C81.6462 59.6655 80.6137 60.6767 80.3754 62.2325H85.6967ZM96.1011 64.9552C95.9422 65.2664 95.7834 65.7331 95.3069 66.1998C95.0686 66.4332 94.2744 67.3667 92.4477 67.3667C89.6679 67.3667 88.4765 65.2664 88.4765 63.0104C88.4765 60.2878 90.3032 58.8098 92.3682 58.8098C94.9097 58.8098 96.1805 60.9879 96.1805 63.0882H89.6679C89.6679 63.555 89.6679 64.1773 89.9061 64.7996C90.5415 66.511 92.13 66.511 92.5271 66.511C93.4801 66.511 94.5126 66.1998 95.2274 64.7996L96.1011 64.9552ZM94.9097 62.2325C94.8303 61.5324 94.5921 60.8323 94.0361 60.2878C93.7184 59.9766 93.083 59.6655 92.2888 59.6655C90.8592 59.6655 89.8267 60.6767 89.5884 62.2325H94.9097ZM103.408 67.1333H97.2924V66.511L101.819 59.821H97.6895V58.9654H103.329V59.5877L98.8014 66.2776H103.487V67.1333H103.408ZM108.332 67.3667C105.87 67.3667 104.52 65.4997 104.52 63.166C104.52 61.0657 105.632 58.732 108.332 58.732C110.953 58.732 112.144 60.8323 112.144 63.0104C112.144 65.4997 110.715 67.3667 108.332 67.3667ZM108.412 59.5877C107.697 59.5877 106.982 59.8988 106.505 60.4434C105.791 61.2991 105.711 62.4659 105.711 63.166C105.711 65.4997 106.982 66.4332 108.412 66.4332C110.238 66.4332 111.112 65.033 111.112 63.0882C111.032 62.6993 111.112 59.5877 108.412 59.5877ZM120.563 67.1333H119.531V62.8549C119.531 61.2213 119.531 60.7545 119.213 60.3656C118.975 60.0544 118.498 59.6655 117.545 59.6655C116.592 59.6655 116.036 60.0544 115.56 60.5989C115.004 61.2991 115.004 61.8436 115.004 63.555V67.1333H113.971V58.9654H115.004V60.4434C115.321 59.5877 116.116 58.8098 117.625 58.8098C118.101 58.8098 119.213 58.8876 119.928 59.821C120.484 60.5212 120.484 61.2213 120.484 63.0104V67.1333H120.563ZM130.014 64.9552C129.856 65.2664 129.697 65.7331 129.22 66.1998C128.982 66.4332 128.188 67.3667 126.361 67.3667C123.581 67.3667 122.39 65.2664 122.39 63.0104C122.39 60.2878 124.217 58.8098 126.282 58.8098C128.823 58.8098 130.094 60.9879 130.094 63.0882H123.581C123.581 63.555 123.581 64.1773 123.819 64.7996C124.455 66.511 126.043 66.511 126.44 66.511C127.314 66.511 128.426 66.1998 129.141 64.7996L130.014 64.9552ZM128.823 62.2325C128.744 61.5324 128.505 60.8323 127.949 60.2878C127.632 59.9766 126.996 59.6655 126.202 59.6655C124.773 59.6655 123.74 60.6767 123.502 62.2325H128.823Z" fill="#00425A"/>
<path id="Vector_2" d="M18.5848 47.2183H27.7978C29.9422 47.2183 32.5632 47.2961 34.4693 49.2408C35.4224 50.2521 36.0578 51.8857 36.0578 53.6749C36.0578 57.72 33.278 58.6535 31.8484 59.198L36.5343 67.1326H30.8953L26.8448 59.9759H23.6679V67.1326H18.5848V47.2183ZM23.6679 50.9522V56.3198H27.8772C28.592 56.3198 30.9747 56.242 30.9747 53.5971C30.9747 51.03 29.0686 50.9522 28.0361 50.9522H23.6679ZM29.6245 2.02213V13.1461C29.6245 15.0909 29.5451 16.9579 28.4332 18.8248C26.2094 22.2476 21.6823 22.481 20.8087 22.481C19.2996 22.481 17.4729 22.092 16.0433 21.3919C12.1516 19.4472 12.1516 15.8688 12.1516 13.2239V2.02213H17.3141V14.4686C17.3141 15.4798 17.3141 16.3355 17.7112 16.9579C18.3466 17.9691 19.6967 18.2803 20.9675 18.2803C24.4621 18.2803 24.4621 15.9466 24.4621 14.3908V1.94434L29.6245 2.02213ZM6.59205 44.5734H1.50902V24.5813H6.59205V44.5734ZM29.8628 24.5813H38.1227C41.4585 24.5813 44.4765 24.5813 46.2238 27.0706C47.018 28.2375 47.4152 29.7933 47.4152 31.1935C47.4152 32.2826 47.1769 33.3716 46.7004 34.3051C44.9531 37.8835 41.2202 37.9612 38.4404 38.039H35.0253V44.5734H29.9422V24.5813H29.8628ZM34.6281 28.3153V34.3829H37.7256C39.6318 34.3829 41.935 34.3051 41.935 31.2713C41.935 28.393 39.3935 28.393 37.8845 28.393L34.6281 28.3153ZM59.0902 15.2465H56.5487C57.0253 13.7685 58.7726 7.8564 59.0902 6.84513V2.02213H56.5487L49.0036 22.0142H54.4043L55.4368 18.8248H59.1697V15.2465H59.0902ZM59.0902 47.2183H54.1661V67.2104H59.0902V47.2183Z" fill="#005C7C"/>
<path id="Vector_3" d="M31.8484 2.02246H39.7112C41.8556 2.02246 43.7617 2.10025 45.0325 2.4892C47.574 3.26711 48.5271 5.21186 48.5271 7.15662C48.5271 8.24569 48.2094 8.86801 48.13 9.10138C47.1769 11.1239 45.2707 11.5129 44.1588 11.7462C45.4296 11.9796 47.018 12.213 48.2094 13.4576C48.9242 14.2355 49.3213 15.3246 49.3213 16.4915C49.3213 18.0473 48.4476 20.2254 45.9061 21.3145C44.3971 21.9368 42.7292 22.0146 40.426 22.0146H31.8484V2.02246ZM36.4549 5.7564V9.87928H40.2671C41.4585 9.87928 43.2852 9.80149 43.2852 7.70115C43.2852 5.7564 41.6173 5.67861 40.5848 5.67861L36.4549 5.7564ZM36.4549 13.5354V18.3584H40.0289C41.6967 18.3584 43.9206 18.2806 43.9206 15.9469C43.9206 13.5354 41.935 13.5354 40.8231 13.4576H36.4549V13.5354ZM9.68952 24.5817H18.9025C21.0469 24.5817 23.6679 24.6594 25.574 26.6042C26.5271 27.6155 27.1624 29.2491 27.1624 31.0382C27.1624 35.0833 24.3827 36.0168 22.9531 36.5614L27.639 44.5738H22L17.9495 37.4171H14.7726V44.5738H9.68952V24.5817ZM14.4549 28.3156V33.6831H18.6643C19.3791 33.6831 21.7617 33.6053 21.7617 30.9605C21.7617 28.3934 19.8556 28.3156 18.8231 28.3156H14.4549ZM16.7581 47.2186V51.0304H6.59205V55.231H15.9639V59.1205H6.59205V67.2107H1.50902V47.2186H16.7581ZM37.8845 47.2186H51.4657V51.1081H42.9675V54.7643H50.8303V58.576H42.9675V63.3212H52.3393V67.2885H37.8845V47.2186ZM7.4657 4.35617C5.79783 2.87815 3.49458 2.33362 1.50902 2.17804V6.61209C2.46209 6.68988 3.49458 7.00104 4.2888 8.01231C5.24187 9.25696 5.32129 10.6572 5.32129 12.0574C5.32129 16.0247 3.49458 17.1916 1.50902 17.5027V21.9368C4.12996 21.7812 8.33934 20.8477 9.92779 15.7136C10.1661 14.8579 10.4837 13.6132 10.4837 11.9018C10.4043 9.02359 9.6101 6.22314 7.4657 4.35617ZM59.0902 40.9176C56.7076 40.9176 54.0072 39.1284 54.0072 34.3832C54.0072 30.7271 55.9928 28.0822 59.0902 28.0822V23.9593C52.4982 23.9593 49.0036 29.0935 49.0036 34.461C49.0036 40.2175 52.657 45.0405 59.0902 45.1183V40.9176Z" fill="#00425A"/>
</g>
</svg>
