<svg xmlns="http://www.w3.org/2000/svg" width="50" height="50" viewBox="0 0 490 490" style="enable-background:new 0 0 490 490;" xml:space="preserve"><path d="M470 120h-20v-20c0-5.522-4.477-10-10-10h-65c-5.523 0-10 4.478-10 10v20h-20V30c0-11.028-8.972-20-20-20H165c-11.028 0-20 8.972-20 20v90h-20v-20c0-5.522-4.477-10-10-10H50c-5.523 0-10 4.478-10 10v20H20c-11.028 0-20 8.972-20 20v320c0 11.028 8.972 20 20 20h450c11.028 0 20-8.972 20-20V140c0-11.028-8.972-20-20-20zm-85-10h45v10h-45v-10zM165 30h160v15H165V30zm160 35v55h-20V65h20zm-40 0v55h-80V65h80zm-120 0h20v55h-20V65zM60 110h45v10H60v-10zm410 350H20V140h450v320z"></path><path d="M195 235h100c5.523 0 10-4.477 10-10v-50c0-5.523-4.477-10-10-10H195c-5.523 0-10 4.477-10 10v50c0 5.523 4.477 10 10 10zm10-50h80v30h-80v-30zM50 265h390v20H50zM50 325h390v20H50zM50 385h390v20H50z"></path></svg>