<svg xmlns="http://www.w3.org/2000/svg" xmlns:xlink="http://www.w3.org/1999/xlink" width="500" zoomAndPan="magnify" viewBox="0 0 375 374.999991" height="500" preserveAspectRatio="xMidYMid meet" version="1.0"><path fill="#000000" d="M 368.148438 324.542969 L 361.917969 324.542969 L 361.917969 293.398438 C 361.917969 292.988281 361.878906 292.582031 361.800781 292.183594 C 361.71875 291.78125 361.601562 291.390625 361.445312 291.011719 C 361.289062 290.636719 361.097656 290.277344 360.867188 289.9375 C 360.640625 289.597656 360.382812 289.28125 360.09375 288.992188 C 359.804688 288.703125 359.488281 288.445312 359.148438 288.21875 C 358.808594 287.992188 358.449219 287.796875 358.074219 287.640625 C 357.695312 287.484375 357.304688 287.367188 356.90625 287.289062 C 356.503906 287.207031 356.097656 287.167969 355.6875 287.167969 L 343.230469 287.167969 L 343.230469 150.125 L 355.6875 150.125 C 356.097656 150.125 356.503906 150.085938 356.90625 150.003906 C 357.304688 149.925781 357.695312 149.808594 358.074219 149.648438 C 358.449219 149.492188 358.808594 149.300781 359.148438 149.074219 C 359.488281 148.847656 359.804688 148.589844 360.09375 148.300781 C 360.382812 148.011719 360.640625 147.695312 360.867188 147.355469 C 361.097656 147.015625 361.289062 146.65625 361.445312 146.277344 C 361.601562 145.902344 361.71875 145.511719 361.800781 145.109375 C 361.878906 144.710938 361.917969 144.304688 361.917969 143.894531 L 361.917969 112.75 L 368.148438 112.75 C 368.84375 112.753906 369.519531 112.644531 370.175781 112.421875 C 370.835938 112.199219 371.4375 111.875 371.988281 111.449219 C 372.539062 111.023438 373.003906 110.523438 373.386719 109.941406 C 373.765625 109.359375 374.042969 108.734375 374.214844 108.0625 C 374.386719 107.386719 374.445312 106.707031 374.386719 106.011719 C 374.332031 105.320312 374.164062 104.65625 373.886719 104.019531 C 373.605469 103.382812 373.230469 102.808594 372.761719 102.300781 C 372.289062 101.789062 371.75 101.367188 371.136719 101.039062 L 190.488281 1.371094 C 189.554688 0.871094 188.558594 0.621094 187.5 0.621094 C 186.441406 0.621094 185.445312 0.871094 184.511719 1.371094 L 3.863281 101.039062 C 3.25 101.367188 2.710938 101.789062 2.238281 102.300781 C 1.769531 102.808594 1.394531 103.382812 1.113281 104.019531 C 0.835938 104.65625 0.667969 105.320312 0.613281 106.011719 C 0.554688 106.707031 0.613281 107.386719 0.785156 108.0625 C 0.957031 108.734375 1.234375 109.359375 1.613281 109.941406 C 1.996094 110.523438 2.460938 111.023438 3.011719 111.449219 C 3.5625 111.875 4.164062 112.199219 4.824219 112.421875 C 5.480469 112.644531 6.15625 112.753906 6.851562 112.75 L 13.082031 112.75 L 13.082031 143.894531 C 13.082031 144.304688 13.121094 144.710938 13.199219 145.109375 C 13.28125 145.511719 13.398438 145.902344 13.554688 146.277344 C 13.710938 146.65625 13.902344 147.015625 14.132812 147.355469 C 14.359375 147.695312 14.617188 148.011719 14.90625 148.300781 C 15.195312 148.589844 15.511719 148.847656 15.851562 149.074219 C 16.191406 149.300781 16.550781 149.492188 16.925781 149.648438 C 17.304688 149.808594 17.695312 149.925781 18.09375 150.003906 C 18.496094 150.085938 18.902344 150.125 19.3125 150.125 L 31.769531 150.125 L 31.769531 287.167969 L 19.3125 287.167969 C 18.902344 287.167969 18.496094 287.207031 18.09375 287.289062 C 17.695312 287.367188 17.304688 287.484375 16.925781 287.640625 C 16.550781 287.796875 16.191406 287.992188 15.851562 288.21875 C 15.511719 288.445312 15.195312 288.703125 14.90625 288.992188 C 14.617188 289.28125 14.359375 289.597656 14.132812 289.9375 C 13.902344 290.277344 13.710938 290.636719 13.554688 291.011719 C 13.398438 291.390625 13.28125 291.78125 13.199219 292.183594 C 13.121094 292.582031 13.082031 292.988281 13.082031 293.398438 L 13.082031 324.542969 L 6.851562 324.542969 C 6.441406 324.542969 6.039062 324.582031 5.636719 324.664062 C 5.234375 324.742188 4.847656 324.859375 4.46875 325.015625 C 4.089844 325.175781 3.730469 325.367188 3.390625 325.59375 C 3.050781 325.820312 2.738281 326.078125 2.449219 326.367188 C 2.160156 326.65625 1.898438 326.972656 1.671875 327.3125 C 1.445312 327.652344 1.253906 328.011719 1.097656 328.386719 C 0.941406 328.765625 0.824219 329.15625 0.742188 329.558594 C 0.664062 329.957031 0.621094 330.363281 0.621094 330.773438 L 0.621094 368.148438 C 0.621094 368.558594 0.664062 368.960938 0.742188 369.363281 C 0.824219 369.765625 0.941406 370.152344 1.097656 370.53125 C 1.253906 370.910156 1.445312 371.269531 1.671875 371.609375 C 1.898438 371.949219 2.160156 372.261719 2.449219 372.550781 C 2.738281 372.839844 3.050781 373.101562 3.390625 373.328125 C 3.730469 373.554688 4.089844 373.746094 4.46875 373.902344 C 4.847656 374.058594 5.234375 374.175781 5.636719 374.257812 C 6.039062 374.335938 6.441406 374.378906 6.851562 374.378906 L 368.148438 374.378906 C 368.558594 374.378906 368.960938 374.335938 369.363281 374.257812 C 369.765625 374.175781 370.152344 374.058594 370.53125 373.902344 C 370.910156 373.746094 371.269531 373.554688 371.609375 373.328125 C 371.949219 373.101562 372.261719 372.839844 372.550781 372.550781 C 372.839844 372.261719 373.101562 371.949219 373.328125 371.609375 C 373.554688 371.269531 373.746094 370.910156 373.902344 370.53125 C 374.058594 370.152344 374.175781 369.765625 374.257812 369.363281 C 374.335938 368.960938 374.378906 368.558594 374.378906 368.148438 L 374.378906 330.773438 C 374.378906 330.363281 374.335938 329.957031 374.257812 329.558594 C 374.175781 329.15625 374.058594 328.765625 373.902344 328.386719 C 373.746094 328.011719 373.554688 327.652344 373.328125 327.3125 C 373.101562 326.972656 372.839844 326.65625 372.550781 326.367188 C 372.261719 326.078125 371.949219 325.820312 371.609375 325.59375 C 371.269531 325.367188 370.910156 325.171875 370.53125 325.015625 C 370.152344 324.859375 369.765625 324.742188 369.363281 324.664062 C 368.960938 324.582031 368.558594 324.542969 368.148438 324.542969 Z M 187.5 13.953125 L 343.976562 100.289062 L 31.023438 100.289062 Z M 25.539062 137.667969 L 25.539062 112.75 L 349.460938 112.75 L 349.460938 137.667969 Z M 330.773438 150.125 L 330.773438 287.167969 L 305.855469 287.167969 L 305.855469 150.125 Z M 293.398438 150.125 L 293.398438 287.167969 L 256.023438 287.167969 L 256.023438 150.125 Z M 243.5625 150.125 L 243.5625 287.167969 L 218.644531 287.167969 L 218.644531 150.125 Z M 206.1875 150.125 L 206.1875 287.167969 L 168.8125 287.167969 L 168.8125 150.125 Z M 156.355469 150.125 L 156.355469 287.167969 L 131.4375 287.167969 L 131.4375 150.125 Z M 118.976562 150.125 L 118.976562 287.167969 L 81.601562 287.167969 L 81.601562 150.125 Z M 69.144531 150.125 L 69.144531 287.167969 L 44.226562 287.167969 L 44.226562 150.125 Z M 25.539062 299.625 L 349.460938 299.625 L 349.460938 324.542969 L 25.539062 324.542969 Z M 361.917969 361.917969 L 13.082031 361.917969 L 13.082031 337 L 361.917969 337 Z M 361.917969 361.917969 " fill-opacity="1" fill-rule="nonzero"/></svg>