<svg xmlns="http://www.w3.org/2000/svg" width="500" viewBox="0 0 375 375" height="500" version="1.0"><defs><clipPath id="a"><path d="M0 56h319v318.969H0Zm0 0"/></clipPath><clipPath id="b"><path d="M239.082 0H375v135.309H239.082Zm0 0"/></clipPath></defs><g clip-path="url(#a)"><path fill="#100f0d" d="M183.863 63.953c-6.125 0-11.742 2.383-16.242 6.883L14.645 223.812c-4.407 4.403-6.832 10.282-6.832 16.543 0 6.262 2.43 12.141 6.832 16.547L118.07 360.328c4.407 4.406 10.282 6.832 16.543 6.832 6.27 0 12.14-2.426 16.543-6.832l152.98-152.976c5.466-5.465 7.747-12.391 6.594-20.036L297.168 97.45c-1.559-10.37-9.273-18.082-19.64-19.644l-89.872-13.559a25.675 25.675 0 0 0-3.793-.293Zm-49.25 311.016c-8.347 0-16.191-3.239-22.066-9.121L9.12 262.426C3.238 256.546 0 248.71 0 240.356c0-8.348 3.238-16.188 9.121-22.067L162.094 65.313c6-6 13.527-9.168 21.77-9.168 1.628 0 3.296.128 4.956.375l89.871 13.558c13.832 2.086 24.118 12.371 26.204 26.207l13.554 89.867c1.52 10.047-1.605 19.54-8.789 26.723L156.684 365.848c-5.883 5.882-13.72 9.12-22.07 9.12" fill-rule="evenodd"/></g><path fill="#100f0d" d="M246.39 104.023c-6.554 0-12.718 2.559-17.355 7.196-4.64 4.633-7.191 10.8-7.191 17.36 0 6.554 2.554 12.718 7.191 17.358 4.637 4.633 10.8 7.188 17.356 7.188 6.558 0 12.722-2.555 17.359-7.188 4.64-4.64 7.191-10.804 7.191-17.359 0-6.562-2.55-12.726-7.191-17.36-4.637-4.636-10.797-7.195-17.36-7.195Zm0 56.915c-8.64 0-16.769-3.368-22.878-9.477-6.114-6.113-9.48-14.238-9.48-22.883 0-8.644 3.366-16.773 9.48-22.883 6.11-6.117 14.238-9.484 22.879-9.484 8.648 0 16.773 3.367 22.882 9.484 6.114 6.11 9.48 14.235 9.48 22.883 0 8.645-3.366 16.77-9.48 22.883-6.105 6.11-14.234 9.476-22.882 9.476M155.254 118.16c-1.399 0-2.707.54-3.68 1.512L34.57 236.676a5.206 5.206 0 0 0 0 7.36l96.364 96.362a5.163 5.163 0 0 0 3.68 1.516c1.398 0 2.706-.539 3.683-1.516l117-117a5.206 5.206 0 0 0 0-7.359l-96.363-96.363a5.17 5.17 0 0 0-3.68-1.516Zm-20.64 231.567c-3.481 0-6.75-1.352-9.204-3.805l-96.363-96.36c-5.074-5.074-5.074-13.335 0-18.41l117.004-117a12.915 12.915 0 0 1 9.203-3.804 12.93 12.93 0 0 1 9.207 3.804l96.36 96.364c5.077 5.07 5.077 13.328.003 18.406l-117.008 117a12.915 12.915 0 0 1-9.203 3.805" fill-rule="evenodd"/><g clip-path="url(#b)"><path fill="#100f0d" d="M253.79 135.04c-4.157 0-7.614-1.161-10.157-3.7-5.848-5.848-4.649-17.16 3.472-32.719a3.897 3.897 0 0 1 5.266-1.656 3.904 3.904 0 0 1 1.656 5.27c-7.199 13.8-7.12 21.328-4.87 23.578 6.238 6.238 37.12-7.254 73.253-43.383 36.13-36.133 49.617-67.016 43.383-73.25-2.422-2.422-10.625-2.297-25.754 6.035-14.566 8.027-31.434 21.285-47.496 37.351-7.328 7.325-14.133 14.891-20.223 22.485a3.908 3.908 0 0 1-5.488.605 3.902 3.902 0 0 1-.605-5.492c6.273-7.82 13.265-15.598 20.793-23.121 16.566-16.57 34.058-30.305 49.246-38.668 16.777-9.242 28.898-10.871 35.05-4.719 13.43 13.434-11.66 52.574-43.382 84.297-25.727 25.727-56.329 47.086-74.145 47.086" fill-rule="evenodd"/></g><path fill="#100f0d" d="M79.375 236.29c-1.004 0-2-.384-2.762-1.15a3.902 3.902 0 0 1 0-5.523L97 209.23a3.907 3.907 0 0 1 5.527 0 3.902 3.902 0 0 1 0 5.524l-20.39 20.387a3.89 3.89 0 0 1-2.762 1.148" fill-rule="evenodd"/><path fill="#100f0d" d="M112.691 249.219c-1 0-1.996-.383-2.761-1.145L86.805 224.95a3.907 3.907 0 1 1 5.527-5.523l23.121 23.125a3.902 3.902 0 0 1 0 5.523 3.889 3.889 0 0 1-2.762 1.145M123.89 238.023c-1.566 0-3.038-.949-3.64-2.496l-12.93-33.32a3.902 3.902 0 0 1 .88-4.176 3.914 3.914 0 0 1 4.175-.883l33.324 12.934a3.902 3.902 0 0 1 2.223 5.055 3.905 3.905 0 0 1-5.05 2.23l-25.063-9.726 9.726 25.062a3.909 3.909 0 0 1-3.644 5.32" fill-rule="evenodd"/><path fill="#100f0d" d="M119.094 225.66c-1 0-1.996-.383-2.762-1.144a3.909 3.909 0 0 1 0-5.524l12.824-12.824 5.528 5.523-12.829 12.825a3.889 3.889 0 0 1-2.761 1.144M150.047 211.777a3.906 3.906 0 0 1-3.895-3.66l-2.777-43.398a3.9 3.9 0 0 1 3.648-4.145 3.895 3.895 0 0 1 4.149 3.645l2.777 43.402a3.91 3.91 0 0 1-3.652 4.149c-.086.003-.168.007-.25.007" fill-rule="evenodd"/><path fill="#100f0d" d="M170.363 191.465c-.082 0-.164 0-.25-.012l-43.402-2.773a3.902 3.902 0 0 1-3.648-4.149 3.903 3.903 0 0 1 4.148-3.648l43.398 2.773a3.908 3.908 0 0 1 3.649 4.153 3.902 3.902 0 0 1-3.895 3.656M134.629 262.84l6.598 6.598 11.57-11.563a4.673 4.673 0 0 0 0-6.602 4.647 4.647 0 0 0-3.3-1.355c-1.25 0-2.423.484-3.298 1.355Zm6.598 16.027c-.997 0-2-.379-2.762-1.144l-12.121-12.121a3.905 3.905 0 0 1-1.145-2.762c0-1.031.414-2.024 1.145-2.758l14.332-14.328c2.347-2.356 5.484-3.645 8.82-3.645 3.34 0 6.473 1.29 8.824 3.645 4.864 4.863 4.864 12.777 0 17.644l-14.328 14.325a3.895 3.895 0 0 1-2.765 1.144" fill-rule="evenodd"/><path fill="#100f0d" d="M152.23 289.871c-1 0-2-.379-2.761-1.14l-11.004-11.004a3.902 3.902 0 0 1 0-5.524 3.914 3.914 0 0 1 5.527 0l11 11a3.902 3.902 0 0 1 0 5.524 3.886 3.886 0 0 1-2.762 1.144M172.625 269.48c-.148 0-.3-.007-.457-.023l-19.707-2.3a3.908 3.908 0 0 1-3.43-4.333 3.908 3.908 0 0 1 4.336-3.426l19.707 2.297a3.905 3.905 0 0 1 3.426 4.332 3.9 3.9 0 0 1-3.875 3.453M112.984 307.113c-1.004 0-2-.383-2.761-1.144l-12.121-12.121a3.903 3.903 0 0 1-1.145-2.762c0-1.04.406-2.031 1.145-2.762l20.39-20.39a3.902 3.902 0 0 1 5.524 0 3.909 3.909 0 0 1 0 5.523l-17.63 17.629 6.598 6.598 17.63-17.63a3.902 3.902 0 0 1 5.523 0 3.914 3.914 0 0 1 0 5.528l-20.39 20.387a3.902 3.902 0 0 1-2.763 1.144" fill-rule="evenodd"/><path fill="#100f0d" d="M123.988 318.117c-1 0-2-.383-2.761-1.144l-11.004-11.004a3.902 3.902 0 0 1 0-5.524 3.902 3.902 0 0 1 5.523 0l11.008 11.004a3.916 3.916 0 0 1 0 5.524 3.911 3.911 0 0 1-2.766 1.144M168.355 249.508c-1.003 0-2-.383-2.765-1.145l-12.117-12.125a3.902 3.902 0 0 1 0-5.523l20.386-20.387a3.904 3.904 0 1 1 5.523 5.52l-17.624 17.629 6.597 6.597 17.63-17.625a3.902 3.902 0 0 1 5.523 0 3.916 3.916 0 0 1 0 5.524l-20.39 20.39a3.909 3.909 0 0 1-2.763 1.145" fill-rule="evenodd"/><path fill="#100f0d" d="M180.477 261.629c-1.004 0-2-.383-2.766-1.145l-12.121-12.12a3.907 3.907 0 1 1 5.527-5.523l9.36 9.358 17.628-17.629a3.902 3.902 0 0 1 5.524 0 3.909 3.909 0 0 1 0 5.524l-20.387 20.39a3.918 3.918 0 0 1-2.765 1.145M196.594 221.266c-.996 0-2-.383-2.758-1.145l-12.125-12.125a3.903 3.903 0 0 1 0-5.52l20.39-20.39a3.902 3.902 0 0 1 5.524 0 3.902 3.902 0 0 1 0 5.523L190 205.24l6.598 6.597 17.625-17.633a3.907 3.907 0 1 1 5.523 5.527l-20.39 20.391a3.889 3.889 0 0 1-2.762 1.145" fill-rule="evenodd"/><path fill="#100f0d" d="M208.719 233.387a3.89 3.89 0 0 1-2.762-1.145l-12.125-12.12a3.905 3.905 0 0 1 .004-5.524 3.902 3.902 0 0 1 5.523 0l9.36 9.355 17.629-17.625a3.909 3.909 0 0 1 5.523 0 3.902 3.902 0 0 1 0 5.524l-20.39 20.39a3.903 3.903 0 0 1-2.762 1.145" fill-rule="evenodd"/></svg>