<svg xmlns="http://www.w3.org/2000/svg" xmlns:xlink="http://www.w3.org/1999/xlink" width="500" zoomAndPan="magnify" viewBox="0 0 375 374.999991" height="500" preserveAspectRatio="xMidYMid meet" version="1.0"><path fill="#000000" d="M 137.386719 146.355469 C 125.800781 146.355469 116.378906 136.929688 116.378906 125.347656 C 116.378906 113.769531 125.808594 104.34375 137.386719 104.34375 C 148.96875 104.34375 158.394531 113.769531 158.394531 125.347656 C 158.394531 136.929688 148.972656 146.355469 137.386719 146.355469 Z M 137.386719 109.347656 C 128.5625 109.347656 121.386719 116.527344 121.386719 125.347656 C 121.386719 134.171875 128.5625 141.351562 137.386719 141.351562 C 146.210938 141.351562 153.390625 134.171875 153.390625 125.347656 C 153.390625 116.527344 146.21875 109.347656 137.386719 109.347656 Z M 137.386719 109.347656 " fill-opacity="1" fill-rule="nonzero"/><path fill="#000000" d="M 137.386719 208.875 C 125.800781 208.875 116.378906 199.445312 116.378906 187.867188 C 116.378906 176.289062 125.808594 166.859375 137.386719 166.859375 C 148.96875 166.859375 158.394531 176.289062 158.394531 187.867188 C 158.394531 199.445312 148.972656 208.875 137.386719 208.875 Z M 137.386719 171.863281 C 128.5625 171.863281 121.386719 179.042969 121.386719 187.867188 C 121.386719 196.691406 128.5625 203.871094 137.386719 203.871094 C 146.210938 203.871094 153.390625 196.691406 153.390625 187.867188 C 153.398438 179.042969 146.21875 171.863281 137.386719 171.863281 Z M 137.386719 171.863281 " fill-opacity="1" fill-rule="nonzero"/><path fill="#000000" d="M 137.386719 271.394531 C 125.800781 271.394531 116.378906 261.964844 116.378906 250.386719 C 116.378906 238.804688 125.808594 229.378906 137.386719 229.378906 C 148.96875 229.378906 158.394531 238.804688 158.394531 250.386719 C 158.394531 261.964844 148.972656 271.394531 137.386719 271.394531 Z M 137.386719 234.382812 C 128.5625 234.382812 121.386719 241.5625 121.386719 250.386719 C 121.386719 259.210938 128.5625 266.386719 137.386719 266.386719 C 146.210938 266.386719 153.390625 259.210938 153.390625 250.386719 C 153.390625 241.5625 146.21875 234.382812 137.386719 234.382812 Z M 137.386719 234.382812 " fill-opacity="1" fill-rule="nonzero"/><path fill="#000000" d="M 256.378906 118.402344 L 170.570312 118.402344 C 169.195312 118.402344 168.070312 117.28125 168.070312 115.898438 C 168.070312 114.519531 169.1875 113.394531 170.570312 113.394531 L 256.371094 113.394531 C 257.746094 113.394531 258.871094 114.511719 258.871094 115.898438 C 258.871094 117.28125 257.753906 118.402344 256.378906 118.402344 Z M 256.378906 118.402344 " fill-opacity="1" fill-rule="nonzero"/><path fill="#000000" d="M 256.378906 138.964844 L 170.570312 138.964844 C 169.195312 138.964844 168.070312 137.847656 168.070312 136.460938 C 168.070312 135.085938 169.1875 133.960938 170.570312 133.960938 L 256.371094 133.960938 C 257.746094 133.960938 258.871094 135.078125 258.871094 136.460938 C 258.871094 137.847656 257.753906 138.964844 256.378906 138.964844 Z M 256.378906 138.964844 " fill-opacity="1" fill-rule="nonzero"/><path fill="#000000" d="M 256.378906 159.527344 L 170.570312 159.527344 C 169.195312 159.527344 168.070312 158.410156 168.070312 157.027344 C 168.070312 155.640625 169.1875 154.523438 170.570312 154.523438 L 256.371094 154.523438 C 257.746094 154.523438 258.871094 155.640625 258.871094 157.027344 C 258.871094 158.410156 257.753906 159.527344 256.378906 159.527344 Z M 256.378906 159.527344 " fill-opacity="1" fill-rule="nonzero"/><path fill="#000000" d="M 256.378906 180.09375 L 170.570312 180.09375 C 169.195312 180.09375 168.070312 178.972656 168.070312 177.589844 C 168.070312 176.210938 169.1875 175.085938 170.570312 175.085938 L 256.371094 175.085938 C 257.746094 175.085938 258.871094 176.203125 258.871094 177.589844 C 258.871094 178.96875 257.753906 180.09375 256.378906 180.09375 Z M 256.378906 180.09375 " fill-opacity="1" fill-rule="nonzero"/><path fill="#000000" d="M 256.378906 200.648438 L 170.570312 200.648438 C 169.195312 200.648438 168.070312 199.53125 168.070312 198.144531 C 168.070312 196.769531 169.1875 195.644531 170.570312 195.644531 L 256.371094 195.644531 C 257.746094 195.644531 258.871094 196.761719 258.871094 198.144531 C 258.871094 199.53125 257.753906 200.648438 256.378906 200.648438 Z M 256.378906 200.648438 " fill-opacity="1" fill-rule="nonzero"/><path fill="#000000" d="M 256.378906 221.210938 L 170.570312 221.210938 C 169.195312 221.210938 168.070312 220.09375 168.070312 218.710938 C 168.070312 217.332031 169.1875 216.207031 170.570312 216.207031 L 256.371094 216.207031 C 257.746094 216.207031 258.871094 217.324219 258.871094 218.710938 C 258.871094 220.09375 257.753906 221.210938 256.378906 221.210938 Z M 256.378906 221.210938 " fill-opacity="1" fill-rule="nonzero"/><path fill="#000000" d="M 256.378906 241.777344 L 170.570312 241.777344 C 169.195312 241.777344 168.070312 240.65625 168.070312 239.273438 C 168.070312 237.894531 169.1875 236.769531 170.570312 236.769531 L 256.371094 236.769531 C 257.746094 236.769531 258.871094 237.886719 258.871094 239.273438 C 258.871094 240.65625 257.753906 241.777344 256.378906 241.777344 Z M 256.378906 241.777344 " fill-opacity="1" fill-rule="nonzero"/><path fill="#000000" d="M 256.378906 262.339844 L 170.570312 262.339844 C 169.195312 262.339844 168.070312 261.222656 168.070312 259.835938 C 168.070312 258.453125 169.1875 257.335938 170.570312 257.335938 L 256.371094 257.335938 C 257.746094 257.335938 258.871094 258.453125 258.871094 259.835938 C 258.871094 261.222656 257.753906 262.339844 256.378906 262.339844 Z M 256.378906 262.339844 " fill-opacity="1" fill-rule="nonzero"/><path fill="#000000" d="M 263.816406 298.371094 L 111.445312 298.371094 C 104.527344 298.371094 98.894531 292.738281 98.894531 285.820312 L 98.894531 89.921875 C 98.894531 83.003906 104.527344 77.371094 111.445312 77.371094 L 263.808594 77.371094 C 270.726562 77.371094 276.359375 83.003906 276.359375 89.921875 L 276.359375 285.828125 C 276.367188 292.738281 270.734375 298.371094 263.816406 298.371094 Z M 111.445312 82.371094 C 107.28125 82.371094 103.890625 85.753906 103.890625 89.921875 L 103.890625 285.828125 C 103.890625 289.988281 107.273438 293.378906 111.445312 293.378906 L 263.808594 293.378906 C 267.972656 293.378906 271.363281 289.996094 271.363281 285.828125 L 271.363281 89.921875 C 271.363281 85.761719 267.980469 82.371094 263.808594 82.371094 C 263.808594 82.371094 111.445312 82.371094 111.445312 82.371094 Z M 111.445312 82.371094 " fill-opacity="1" fill-rule="nonzero"/><path fill="#000000" d="M 134.824219 132.503906 C 134.15625 132.503906 133.523438 132.238281 133.054688 131.777344 L 128.871094 127.59375 C 127.898438 126.621094 127.898438 125.027344 128.871094 124.054688 C 129.84375 123.085938 131.433594 123.085938 132.40625 124.054688 L 134.824219 126.472656 L 142.371094 118.929688 C 143.34375 117.957031 144.933594 117.957031 145.90625 118.929688 C 146.878906 119.902344 146.878906 121.492188 145.90625 122.464844 L 136.59375 131.777344 C 136.125 132.246094 135.488281 132.503906 134.824219 132.503906 Z M 134.824219 132.503906 " fill-opacity="1" fill-rule="nonzero"/><path fill="#000000" d="M 134.824219 195.023438 C 134.179688 195.023438 133.546875 194.777344 133.054688 194.296875 L 128.871094 190.109375 C 127.898438 189.136719 127.898438 187.546875 128.871094 186.574219 C 129.84375 185.601562 131.433594 185.601562 132.40625 186.574219 L 134.824219 188.992188 L 142.371094 181.445312 C 143.34375 180.472656 144.933594 180.472656 145.90625 181.445312 C 146.878906 182.417969 146.878906 184.011719 145.90625 184.980469 L 136.59375 194.296875 C 136.101562 194.785156 135.46875 195.023438 134.824219 195.023438 Z M 134.824219 195.023438 " fill-opacity="1" fill-rule="nonzero"/><path fill="#000000" d="M 187.5 375 C 162.191406 375 137.632812 370.039062 114.511719 360.269531 C 92.1875 350.824219 72.128906 337.308594 54.910156 320.089844 C 37.691406 302.871094 24.175781 282.820312 14.730469 260.488281 C 4.960938 237.367188 0 212.808594 0 187.5 C 0 162.191406 4.960938 137.632812 14.730469 114.511719 C 24.175781 92.1875 37.691406 72.128906 54.910156 54.910156 C 72.128906 37.691406 92.179688 24.175781 114.511719 14.730469 C 137.632812 4.960938 162.191406 0 187.5 0 C 212.808594 0 237.367188 4.960938 260.488281 14.730469 C 282.8125 24.175781 302.871094 37.691406 320.089844 54.910156 C 337.308594 72.128906 350.824219 92.179688 360.269531 114.511719 C 370.046875 137.632812 375 162.183594 375 187.5 C 375 212.808594 370.039062 237.367188 360.269531 260.488281 C 350.824219 282.8125 337.308594 302.871094 320.089844 320.089844 C 302.871094 337.308594 282.820312 350.824219 260.488281 360.269531 C 237.367188 370.039062 212.808594 375 187.5 375 Z M 187.5 4.9375 C 86.832031 4.9375 4.9375 86.832031 4.9375 187.5 C 4.9375 288.167969 86.832031 370.0625 187.5 370.0625 C 288.167969 370.0625 370.0625 288.167969 370.0625 187.5 C 370.0625 86.832031 288.167969 4.9375 187.5 4.9375 Z M 187.5 4.9375 " fill-opacity="1" fill-rule="nonzero"/></svg>