<svg xmlns="http://www.w3.org/2000/svg" xmlns:xlink="http://www.w3.org/1999/xlink" width="500" zoomAndPan="magnify" viewBox="0 0 375 225" height="300" preserveAspectRatio="xMidYMid meet" version="1.0"><path fill="#000000" d="M 342.863281 0 L 32.136719 0 C 14.414062 0 0 14.414062 0 32.136719 L 0 192.851562 C 0 210.585938 14.414062 225 32.136719 225 L 342.851562 225 C 360.585938 225 375 210.585938 375 192.863281 L 375 32.136719 C 375 14.414062 360.585938 0 342.863281 0 Z M 32.136719 12.5 L 342.851562 12.5 C 353.6875 12.5 362.5 21.3125 362.5 32.136719 L 362.5 181.476562 L 12.5 181.476562 L 12.5 32.136719 C 12.5 21.3125 21.3125 12.5 32.136719 12.5 Z M 342.863281 212.5 L 32.136719 212.5 C 21.6875 212.5 13.199219 204.273438 12.613281 193.976562 L 362.386719 193.976562 C 361.800781 204.273438 353.300781 212.5 342.863281 212.5 Z M 342.863281 212.5 " fill-opacity="1" fill-rule="nonzero"/><path fill="#000000" d="M 44.085938 158.488281 L 123.085938 158.488281 C 133.738281 158.488281 142.398438 149.824219 142.398438 139.175781 L 142.398438 60.164062 C 142.398438 49.511719 133.738281 40.863281 123.085938 40.863281 L 44.085938 40.863281 C 33.4375 40.863281 24.773438 49.523438 24.773438 60.164062 L 24.773438 139.175781 C 24.773438 149.824219 33.4375 158.488281 44.085938 158.488281 Z M 58.449219 145.988281 L 58.449219 127.875 C 58.449219 114.011719 69.726562 102.738281 83.585938 102.738281 C 97.449219 102.738281 108.726562 114.011719 108.726562 127.875 L 108.726562 145.988281 Z M 73.273438 79.914062 C 73.273438 74.210938 77.914062 69.585938 83.601562 69.585938 C 89.289062 69.585938 93.925781 74.226562 93.925781 79.914062 C 93.925781 85.601562 89.289062 90.238281 83.601562 90.238281 C 77.914062 90.238281 73.273438 85.601562 73.273438 79.914062 Z M 37.273438 60.148438 C 37.273438 56.398438 40.335938 53.351562 44.085938 53.351562 L 123.101562 53.351562 C 126.851562 53.351562 129.914062 56.398438 129.914062 60.148438 L 129.914062 139.164062 C 129.914062 142.914062 126.851562 145.976562 123.101562 145.976562 L 121.238281 145.976562 L 121.238281 127.875 C 121.238281 113.386719 112.914062 100.925781 100.886719 94.636719 C 104.289062 90.648438 106.425781 85.550781 106.425781 79.914062 C 106.425781 67.324219 96.1875 57.085938 83.601562 57.085938 C 71.011719 57.085938 60.773438 67.324219 60.773438 79.914062 C 60.773438 85.550781 62.914062 90.648438 66.3125 94.636719 C 54.289062 100.925781 45.960938 113.386719 45.960938 127.875 L 45.960938 145.988281 L 44.085938 145.988281 C 40.335938 145.988281 37.273438 142.925781 37.273438 139.175781 Z M 37.273438 60.148438 " fill-opacity="1" fill-rule="nonzero"/><path fill="#000000" d="M 170.3125 118.75 L 337.726562 118.75 C 341.175781 118.75 343.976562 115.949219 343.976562 112.5 C 343.976562 109.050781 341.175781 106.25 337.726562 106.25 L 170.3125 106.25 C 166.863281 106.25 164.0625 109.050781 164.0625 112.5 C 164.0625 115.949219 166.863281 118.75 170.3125 118.75 Z M 170.3125 118.75 " fill-opacity="1" fill-rule="nonzero"/><path fill="#000000" d="M 170.3125 150.449219 L 281.476562 150.449219 C 284.925781 150.449219 287.726562 147.648438 287.726562 144.199219 C 287.726562 140.75 284.925781 137.949219 281.476562 137.949219 L 170.3125 137.949219 C 166.863281 137.949219 164.0625 140.75 164.0625 144.199219 C 164.0625 147.648438 166.863281 150.449219 170.3125 150.449219 Z M 170.3125 150.449219 " fill-opacity="1" fill-rule="nonzero"/><path fill="#000000" d="M 170.3125 87.050781 L 281.476562 87.050781 C 284.925781 87.050781 287.726562 84.25 287.726562 80.800781 C 287.726562 77.351562 284.925781 74.550781 281.476562 74.550781 L 170.3125 74.550781 C 166.863281 74.550781 164.0625 77.351562 164.0625 80.800781 C 164.0625 84.25 166.863281 87.050781 170.3125 87.050781 Z M 170.3125 87.050781 " fill-opacity="1" fill-rule="nonzero"/><path fill="#000000" d="M 170.3125 55.363281 L 306.25 55.363281 C 309.699219 55.363281 312.5 52.5625 312.5 49.113281 C 312.5 45.664062 309.699219 42.863281 306.25 42.863281 L 170.3125 42.863281 C 166.863281 42.863281 164.0625 45.664062 164.0625 49.113281 C 164.0625 52.5625 166.863281 55.363281 170.3125 55.363281 Z M 170.3125 55.363281 " fill-opacity="1" fill-rule="nonzero"/></svg>