<?xml version="1.0" encoding="utf-8"?>
<svg viewBox="0 0 124 62" style="enable-background:new 0 0 124 124;" xmlns="http://www.w3.org/2000/svg">
  <defs>
    <style type="text/css">
	.st0{fill:#E73530;}
	.st1{fill:#0066B2;}
	.st2{fill:#F9A533;}
	.st3{fill:#336699;}
	.st4{fill:#003366;}
	.st5{fill:#203C73;}
	.st6{fill:#EE3A3F;}
	.st7{fill:#0067B2;}
	.st8{fill:#FAAC18;}
	.st9{fill:#6AB845;}
	.st10{fill:#231F20;}
	.st11{fill-rule:evenodd;clip-rule:evenodd;fill:#231F20;}
	.st12{fill-rule:evenodd;clip-rule:evenodd;fill:#008060;}
	.st13{fill:#007CC3;}
	.st14{fill:#009DDD;}
	.st15{fill:#FFFFFF;}
	.st16{fill-rule:evenodd;clip-rule:evenodd;fill:#FF9900;}
	.st17{fill-rule:evenodd;clip-rule:evenodd;}
	.st18{fill:#862165;}
	.st19{fill:#58595B;}
	.st20{fill-rule:evenodd;clip-rule:evenodd;fill:#9A9FB8;}
	.st21{fill:#00A551;}
	.st22{fill:#0071BB;}
	.st23{fill:#EC1C24;}
	.st24{fill:#EC1C2E;}
	.st25{fill:#0084C4;}
	.st26{fill:none;stroke:#FFFFFF;stroke-width:0.215;}
	.st27{fill-rule:evenodd;clip-rule:evenodd;fill:#FAA929;}
	.st28{fill-rule:evenodd;clip-rule:evenodd;fill:#045EA0;}
	.st29{fill:url(#SVGID_1_);}
	.st30{fill:url(#SVGID_2_);}
	.st31{fill:url(#SVGID_3_);}
	.st32{fill:url(#SVGID_4_);}
	.st33{fill:#273D49;}
	.st34{fill:#48606D;}
	.st35{fill:#8BB43F;}
	.st36{fill-rule:evenodd;clip-rule:evenodd;fill:#FBB231;}
	.st37{fill-rule:evenodd;clip-rule:evenodd;fill:#EC1C2E;}
	.st38{fill-rule:evenodd;clip-rule:evenodd;fill:#FFFFFF;}
	.st39{fill:none;stroke:#FFFFFF;stroke-width:0.216;stroke-miterlimit:2.6131;}
	.st40{fill-rule:evenodd;clip-rule:evenodd;fill:#121212;}
	.st41{fill:#004A97;}
	.st42{fill:#0078A9;}
	.st43{fill:url(#SVGID_5_);}
	.st44{fill:#001722;}
</style>
  </defs>
  <g style="transform-origin: 62px -30px;" transform="matrix(1, 0, 0, 1, 0, -33.200000762939)">
    <g>
      <path class="st15" d="M37.9,60.1v-1.3l-0.6,1.3H32l-0.7-1.4v1.4h-9.8l-1.2-2.8h-2l-1.2,2.8H12v-8.3l3.7-8.5h7.2l1,2.4v-2.4h8.8    l1.9,4l1.9-4.1h27.7c0,0,1.5,0,2.4,0.7l0-0.7h7v0.9c0,0,1.3-0.9,3.1-0.9c1.9,0,12.3,0,12.3,0l1.1,2.4v-2.4h7.9l1.4,2.4v-2.4h7.5    v16.8h-7.7l-1.8-2.9v2.9h-9.6l-1.4-3h-1.9l-1.3,3h-5.8c0,0-2.2,0-3.8-1.2c0,0.6,0,1.2,0,1.2H62c0,0,0-3.3,0-3.9    c0-0.6-0.4-0.5-0.4-0.5h-0.4v4.4H37.9z"/>
      <path class="st15" d="M32.1,63.8h15.2l2.2,2.5l2.2-2.5h11.7c0,0,1.1,0,2.1,0.6v-0.6c0,0,9.1,0,10.4,0c1.3,0,2.4,0.7,2.4,0.7v-0.7    h13.4v0.6c0,0,1-0.6,2.2-0.6c1.3,0,8.7,0,8.7,0v0.6c0,0,1.1-0.6,2.3-0.6c1.2,0,6.9,0,6.9,0v15.8c0,0-0.9,1-2.8,1h-9v-0.5    c0,0-0.9,0.5-2.2,0.5c-1.3,0-24,0-24,0s0-3.7,0-4.1c0-0.4-0.2-0.5-0.5-0.5h-0.3v4.6h-7.5v-4.5c0,0-0.8,0.4-2.2,0.4    c-1.4,0-2.7,0-2.7,0v4.1h-9.2l-2.1-2.6l-2.2,2.6h-15V63.8z"/>
      <polygon class="st42" points="80.1,66.3 89.6,66.3 89.6,68.9 83,68.9 83,71.1 89.5,71.1 89.5,73.4 83,73.4 83,75.7 89.6,75.7     89.6,78.2 80.1,78.2   "/>
      <path class="st42" d="M108.1,71c3.6,0.2,3.9,2,3.9,3.9c0,2.2-1.8,3.4-3.7,3.4h-6.1v-2.6h4.8c0.8,0,2,0,2-1.1c0-0.5-0.2-0.9-1.1-1    c-0.4-0.1-1.8-0.1-2-0.1c-3.2-0.1-4-1.7-4-3.7c0-2.2,1.6-3.5,3.5-3.5h6.1v2.6h-4.5c-1,0-2.1-0.1-2.1,1c0,0.7,0.5,0.9,1.2,0.9    C106.3,70.9,107.9,71,108.1,71z"/>
      <path class="st42" d="M97.1,71c3.6,0.2,3.9,2,3.9,3.9c0,2.2-1.8,3.4-3.7,3.4h-6.1v-2.6h4.8c0.8,0,2,0,2-1.1c0-0.5-0.2-0.9-1.1-1    c-0.4-0.1-1.8-0.1-2-0.1c-3.2-0.1-4-1.7-4-3.7c0-2.2,1.6-3.5,3.5-3.5h6.1v2.6h-4.5c-1,0-2.1-0.1-2.1,1c0,0.7,0.5,0.9,1.2,0.9    C95.3,70.9,96.9,71,97.1,71z"/>
      <path class="st42" d="M62.4,66.3H52.2L48.8,70l-3.2-3.7H34.1v11.9h11.2l3.5-3.9l3.4,4h5.6v-4h3.9c1.5,0,4.3-0.1,4.3-4.2    C66,67,63.9,66.3,62.4,66.3z M43.7,75.7h-6.7v-2.4h6.4v-2.3h-6.4v-2.2l7.1,0l2.8,3.2L43.7,75.7z M54.9,77.1l-4.2-5l4.2-4.7V77.1z     M61.4,71.8h-3.6v-2.9h3.7c1.2,0,1.6,0.8,1.6,1.4C63.1,71.1,62.6,71.8,61.4,71.8z"/>
      <path class="st42" d="M76.6,72.8c1.6-0.8,2-1.9,2-3.3c0-2.5-2.1-3.2-3.5-3.2h-7.6v11.9h2.9V74h3.8c1,0,1.4,1,1.4,2l0.1,2.2h2.8    l-0.1-2.4C78.5,73.9,77.9,73,76.6,72.8z M74,71.6h-3.6v-2.7H74c1.2,0,1.6,0.8,1.6,1.4C75.7,71.1,75.2,71.6,74,71.6z"/>
      <rect class="st42" height="11.9" width="2.9" x="68.6" y="45.8"/>
      <polygon class="st42" points="44.7,45.8 54.3,45.8 54.3,48.3 47.6,48.3 47.6,50.6 54.1,50.6 54.1,52.8 47.6,52.8 47.6,55.2     54.3,55.2 54.3,57.7 44.7,57.7   "/>
      <path class="st42" d="M65.1,52.3c1.6-0.8,2-1.9,2-3.3c0-2.6-2.1-3.2-3.5-3.2H56v11.9h2.9v-4.2h3.8c1,0,1.4,1,1.4,2l0.1,2.2h2.8    L67,55.2C67,53.3,66.5,52.4,65.1,52.3z M62.6,51h-3.6v-2.7h3.7c1.2,0,1.6,0.8,1.6,1.4C64.2,50.5,63.8,51,62.6,51z"/>
      <path class="st42" d="M38,45.8l-3.6,8l-3.6-8h-4.6v11.5l-5.1-11.5h-3.9L12,57.7h3.1l1.1-2.7h5.8l1.2,2.7h5.9v-8.8l3.9,8.8h2.7    l4-8.7v8.7h2.9V45.8H38z M17.4,52.4l1.7-4.2l1.8,4.2H17.4z"/>
      <path class="st42" d="M101.7,45.8V54l-4.9-8.2h-4.3v11.2l-5-11.2h-3.9l-4,9.2c0,0-1.7,0-1.9,0c-0.7-0.1-1.8-0.6-1.8-2.7v-0.9    c0-2.8,1.5-3,3.5-3h1.8v-2.6h-3.8c-1.3,0-4.2,1-4.3,5.9c-0.1,3.3,1.4,6,4.6,6h3.9l1.1-2.7h5.8l1.2,2.7h5.8V49l5.3,8.7h4V45.8    H101.7z M83.8,52.5l1.7-4.2l1.8,4.2H83.8z"/>
    </g>
  </g>
</svg>