<svg viewBox="0 0 124 62" style="enable-background:new 0 0 124 124;" xmlns="http://www.w3.org/2000/svg">
  <defs>
    <style type="text/css">.st0{fill:#E73530}.st1{fill:#0066B2}.st2{fill:#F9A533}.st3{fill:#336699}.st4{fill:#003366}.st5{fill:#203C73}.st6{fill:#EE3A3F}.st7{fill:#0067B2}.st8{fill:#FAAC18}.st9{fill:#6AB845}.st10{fill:#231F20}.st11{fill-rule:evenodd;clip-rule:evenodd;fill:#231F20}.st12{fill-rule:evenodd;clip-rule:evenodd;fill:#008060}.st13{fill:#007CC3}.st14{fill:#009DDD}.st15{fill:#FFFFFF}.st16{fill-rule:evenodd;clip-rule:evenodd;fill:#FF9900}.st17{fill-rule:evenodd;clip-rule:evenodd}.st18{fill:#862165}.st19{fill:#58595B}.st20{fill-rule:evenodd;clip-rule:evenodd;fill:#9A9FB8}.st21{fill:#00A551}.st22{fill:#0071BB}.st23{fill:#EC1C24}.st24{fill:#EC1C2E}.st25{fill:#0084C4}.st26{fill:none;stroke:#FFFFFF;stroke-width:0.215}.st27{fill-rule:evenodd;clip-rule:evenodd;fill:#FAA929}.st28{fill-rule:evenodd;clip-rule:evenodd;fill:#045EA0}.st29{fill:url(#SVGID_1_)}.st30{fill:url(#SVGID_2_)}.st31{fill:url(#SVGID_3_)}.st32{fill:url(#SVGID_4_)}.st33{fill:#273D49}.st34{fill:#48606D}.st35{fill:#8BB43F}.st36{fill-rule:evenodd;clip-rule:evenodd;fill:#FBB231}.st37{fill-rule:evenodd;clip-rule:evenodd;fill:#EC1C2E}.st38{fill-rule:evenodd;clip-rule:evenodd;fill:#FFFFFF}.st39{fill:none;stroke:#FFFFFF;stroke-width:0.216;stroke-miterlimit:2.6131}.st40{fill-rule:evenodd;clip-rule:evenodd;fill:#121212}.st41{fill:#004A97}.st42{fill:#0078A9}.st43{fill:url(#SVGID_5_)}.st44{fill:#001722}</style>
  </defs>
  <g transform="matrix(1, 0, 0, 1, -2.1525230407714844, -32.23388671875)">
    <g>
      <g>
        <polygon class="st1" points="55.3,77.7 47.2,77.7 52.3,46.3 60.5,46.3    "/>
        <path class="st1" d="M40.3,46.3l-7.8,21.6l-0.9-4.6v0l-2.7-14.1c0,0-0.3-2.8-3.9-2.8H12.2L12,46.9c0,0,3.9,0.8,8.5,3.6l7.1,27.2     h8.5l13-31.3H40.3z"/>
        <path class="st1" d="M104.5,77.7h7.5l-6.5-31.3h-6.6c-3,0-3.8,2.3-3.8,2.3L83,77.7h8.5l1.7-4.7h10.4L104.5,77.7z M95.5,66.6     l4.3-11.7l2.4,11.7H95.5z"/>
        <path class="st1" d="M83.6,53.9l1.2-6.7c0,0-3.6-1.4-7.3-1.4c-4.1,0-13.7,1.8-13.7,10.4c0,8.1,11.3,8.2,11.3,12.4     c0,4.3-10.1,3.5-13.5,0.8l-1.2,7c0,0,3.6,1.8,9.2,1.8c5.6,0,14-2.9,14-10.7c0-8.1-11.4-8.9-11.4-12.5     C72.2,51.5,80.1,52,83.6,53.9z"/>
      </g>
      <path class="st2" d="M31.6,63.3l-2.7-14.1c0,0-0.3-2.8-3.9-2.8H12.2L12,46.9c0,0,6.2,1.3,12.1,6.1C29.8,57.5,31.6,63.3,31.6,63.3z    "/>
    </g>
  </g>
</svg>