<?xml version="1.0" encoding="utf-8"?>
<svg viewBox="0 0 124 62" style="enable-background:new 0 0 124 124;" xmlns="http://www.w3.org/2000/svg">
  <defs>
    <style type="text/css">
	.st0{fill:#E73530}.st1{fill:#0066B2}.st2{fill:#F9A533}.st3{fill:#336699}.st4{fill:#003366}.st5{fill:#203C73}.st6{fill:#EE3A3F}.st7{fill:#0067B2}.st8{fill:#FAAC18}.st9{fill:#6AB845}.st10{fill:#231F20}.st11{fill-rule:evenodd;clip-rule:evenodd;fill:#231F20}.st12{fill-rule:evenodd;clip-rule:evenodd;fill:#008060}.st13{fill:#007CC3}.st14{fill:#009DDD}.st15{fill:#FFFFFF}.st16{fill-rule:evenodd;clip-rule:evenodd;fill:#FF9900}.st17{fill-rule:evenodd;clip-rule:evenodd}.st18{fill:#862165}.st19{fill:#58595B}.st20{fill-rule:evenodd;clip-rule:evenodd;fill:#9A9FB8}.st21{fill:#00A551}.st22{fill:#0071BB}.st23{fill:#EC1C24}.st24{fill:#EC1C2E}.st25{fill:#0084C4}.st26{fill:none;stroke:#FFFFFF;stroke-width:0.215}.st27{fill-rule:evenodd;clip-rule:evenodd;fill:#FAA929}.st28{fill-rule:evenodd;clip-rule:evenodd;fill:#045EA0}.st29{fill:url(#SVGID_1_)}.st30{fill:url(#SVGID_2_)}.st31{fill:url(#SVGID_3_)}.st32{fill:url(#SVGID_4_)}.st33{fill:#273D49}.st34{fill:#48606D}.st35{fill:#8BB43F}.st36{fill-rule:evenodd;clip-rule:evenodd;fill:#FBB231}.st37{fill-rule:evenodd;clip-rule:evenodd;fill:#EC1C2E}.st38{fill-rule:evenodd;clip-rule:evenodd;fill:#FFFFFF}.st39{fill:none;stroke:#FFFFFF;stroke-width:0.216;stroke-miterlimit:2.6131}.st40{fill-rule:evenodd;clip-rule:evenodd;fill:#121212}.st41{fill:#004A97}.st42{fill:#0078A9}.st43{fill:url(#SVGID_5_)}.st44{fill:#001722}
</style>
  </defs>
  <g transform="matrix(1, 0, 0, 1, 1.7763568394002505e-15, -32.60000228881836)">
    <g>
      <path class="st3" d="M94.1,55.8c-1.1-0.6-2.7-0.9-5-0.9c-1.1,0-2.2,0.1-3.4,0.3c-0.8,0.1-0.9,0.1-1.4,0.3    c-1.1,0.2-1.2,1.3-1.2,1.3l-0.3,1.4c-0.2,0.9,0.3,0.9,0.5,0.8c0.5-0.1,0.7-0.3,1.7-0.5c0.9-0.2,1.8-0.4,2.6-0.4    c1.1,0,2,0.1,2.5,0.4c0.6,0.2,0.8,0.7,0.8,1.3c0,0.1,0,0.3,0,0.4c0,0.1-0.1,0.2-0.4,0.3c-1.6,0.1-2.7,0.2-4.1,0.4    c-1.4,0.2-2.5,0.5-3.5,1c-1.1,0.5-1.8,1.1-2.4,1.9c-0.5,0.8-0.8,1.8-0.8,2.9c0,1.1,0.4,2,1.1,2.6c0.8,0.7,1.7,1,2.9,1    c0.7,0,1.3-0.1,1.7-0.2c0.4-0.1,0.9-0.3,1.3-0.5c0.4-0.1,0.7-0.4,1.1-0.6c0.4-0.3,0.7-0.5,1-0.7l0,0L89,68.7c0,0,0,0,0,0l0,0    c-0.1,0.5,0.2,1,0.7,1l0,0h0l0,0c0.4,0,1.6,0,2.1,0h0.4c0,0,0,0,0,0c0.5-0.1,1.1-0.5,1.2-1l2-8.8c0-0.2,0.1-0.4,0.1-0.7    c0-0.3,0.1-0.5,0-0.7C95.7,57.3,95.2,56.4,94.1,55.8z M89.2,66.2c-0.3,0.2-0.7,0.4-1.1,0.6c-0.5,0.2-1,0.3-1.4,0.3    c-0.7,0-1.2-0.1-1.6-0.3c-0.4-0.2-0.5-0.5-0.5-1c0-0.6,0.1-1,0.4-1.4c0.3-0.3,0.7-0.6,1.2-0.8c0.5-0.2,1.1-0.3,1.8-0.4    c0.6-0.1,1.9-0.2,2-0.2c0.2,0,0.3-0.1,0.2,0.3c0,0.2-0.4,1.7-0.6,2.3C89.6,65.9,89.4,66.2,89.2,66.2z"/>
      <path class="st4" d="M59.2,55.1c-0.6,0-1.4,0.5-1.7,1.1c0,0-4,6.8-4.4,7.5c-0.2,0.4-0.4,0.1-0.5,0c0-0.2-1.2-7.5-1.2-7.5    c-0.1-0.6-0.8-1.1-1.5-1.1l-2.5,0c-0.6,0-1,0.5-0.8,1.1c0,0,1.9,10.8,2.3,13.3c0.2,1.4,0,1.6,0,1.6l-2.5,4.3    c-0.4,0.6-0.2,1.1,0.4,1.1l2.9,0c0.6,0,1.4-0.5,1.7-1.1l11.1-18.7c0,0,1.1-1.6,0.1-1.6C61.9,55.1,59.2,55.1,59.2,55.1"/>
      <path class="st4" d="M24.3,58.9c-0.8,0.6-2,0.9-3.5,0.9h-0.7c-0.6,0-1-0.5-0.8-1.1l0.8-3.6c0.1-0.6,0.7-1.1,1.3-1.1l0.9,0    c1.1,0,1.9,0.2,2.4,0.5c0.5,0.4,0.8,0.9,0.8,1.7C25.6,57.4,25.1,58.3,24.3,58.9 M30.3,53.4c-0.3-0.7-0.9-1.2-1.5-1.6    c-0.7-0.4-1.5-0.7-2.4-0.9c-0.9-0.2-2-0.2-3.3-0.3l-5.8,0c-0.6,0-1.2,0.5-1.3,1.1l-3.9,17c-0.1,0.6,0.2,1.1,0.8,1.1h2.8    c0.6,0,1.2-0.5,1.3-1.1l1-4.1c0.1-0.6,0.7-1.1,1.3-1.1h0.8c3.4,0,6-0.7,7.9-2.1c1.9-1.4,2.8-3.2,2.8-5.5    C30.8,54.9,30.7,54,30.3,53.4"/>
      <path class="st3" d="M74.7,59c-0.8,0.6-2,0.9-3.5,0.9h-0.7c-0.6,0-1-0.5-0.8-1.1l0.8-3.6c0.1-0.6,0.7-1.1,1.3-1.1l0.9,0    c1.1,0,1.9,0.2,2.4,0.5c0.5,0.4,0.8,0.9,0.8,1.7C76,57.5,75.6,58.4,74.7,59 M80.7,53.4c-0.3-0.7-0.9-1.2-1.5-1.6    c-0.7-0.4-1.5-0.7-2.4-0.9c-0.9-0.2-2-0.3-3.3-0.3l-5.8,0c-0.6,0-1.2,0.5-1.3,1.1l-3.9,17c-0.1,0.6,0.2,1.1,0.8,1.1l2.8,0    c0.6,0,1.2-0.5,1.3-1.1l0.9-4.1c0.1-0.6,0.7-1.1,1.3-1.1h0.8c3.4,0,6-0.7,7.9-2.1c1.9-1.4,2.8-3.2,2.8-5.5    C81.3,54.9,81.1,54.1,80.7,53.4"/>
      <path class="st4" d="M43.7,55.8c-1.1-0.6-2.7-0.9-5-0.9c-1.1,0-2.2,0.1-3.4,0.3c-0.8,0.1-0.9,0.1-1.4,0.3    c-1.1,0.2-1.2,1.3-1.2,1.3l-0.3,1.4c-0.2,0.9,0.3,0.9,0.5,0.8c0.5-0.1,0.7-0.3,1.7-0.5c0.9-0.2,1.8-0.4,2.6-0.4    c1.1,0,2,0.1,2.5,0.4c0.6,0.2,0.8,0.7,0.8,1.3c0,0.1,0,0.3,0,0.4c0,0.1-0.1,0.2-0.4,0.3c-1.6,0.1-2.7,0.2-4.1,0.4    c-1.4,0.2-2.5,0.5-3.5,1c-1.1,0.5-1.8,1.1-2.4,1.9c-0.5,0.8-0.8,1.8-0.8,2.9c0,1.1,0.4,2,1.1,2.6c0.8,0.7,1.7,1,2.9,1    c0.7,0,1.3-0.1,1.7-0.2c0.4-0.1,0.9-0.3,1.3-0.5c0.4-0.1,0.7-0.4,1.1-0.6c0.4-0.3,0.7-0.5,1-0.7l0,0l-0.1,0.4c0,0,0,0,0,0l0,0    c-0.1,0.5,0.2,1,0.7,1l0,0h0l0,0c0.4,0,1.6,0,2.1,0h0.4c0,0,0,0,0,0c0.5-0.1,1.1-0.5,1.2-1l2-8.8c0-0.2,0.1-0.4,0.1-0.7    c0-0.3,0.1-0.5,0-0.7C45.3,57.3,44.7,56.4,43.7,55.8z M38.8,66.2c-0.3,0.2-0.7,0.4-1.1,0.6c-0.5,0.2-1,0.3-1.4,0.3    c-0.7,0-1.2-0.1-1.6-0.3c-0.4-0.2-0.5-0.5-0.5-1c0-0.6,0.1-1,0.4-1.4c0.3-0.3,0.7-0.6,1.2-0.8c0.5-0.2,1.1-0.3,1.8-0.4    c0.6-0.1,1.9-0.2,2-0.2c0.2,0,0.3-0.1,0.2,0.3c0,0.2-0.4,1.7-0.6,2.3C39.2,65.9,38.9,66.1,38.8,66.2z"/>
      <g>
        <g>
          <path class="st3" d="M103.7,50.8h-2.5c0,0,0,0,0,0l0,0c-0.6,0-1.1,0.4-1.3,1c0,0,0,0.1,0,0.1c0,0-0.1,0.2-0.1,0.6L96.3,68      c-0.1,0.4-0.1,0.6-0.2,0.7l0,0c-0.1,0.5,0.2,1,0.7,1l0,0h2.6c0.6,0,1.1-0.4,1.3-1c0,0,0-0.1,0-0.1l3.7-16.9l0,0      C104.7,51.3,104.3,50.8,103.7,50.8z"/>
        </g>
      </g>
      <g>
        <path class="st3" d="M107.5,54.2c-0.1,0-0.2,0-0.3,0.1c-0.1,0-0.2,0-0.3,0c-0.3,0-0.5-0.1-0.6-0.2c-0.1-0.1-0.2-0.4-0.2-0.7v-1.4     h-0.3v-0.4h0.3v-0.8h0.5v0.8h0.9v0.4h-0.9v1.2c0,0.1,0,0.3,0,0.3c0,0.1,0,0.2,0.1,0.2c0,0.1,0.1,0.1,0.1,0.1c0.1,0,0.2,0,0.3,0     c0.1,0,0.2,0,0.2,0c0.1,0,0.1,0,0.2-0.1h0V54.2z"/>
        <path class="st3" d="M112,54.2h-0.5v-1.5c0-0.1,0-0.2,0-0.3c0-0.1,0-0.2-0.1-0.3c0-0.1-0.1-0.1-0.2-0.2c-0.1,0-0.2-0.1-0.3-0.1     c-0.1,0-0.3,0-0.4,0.1c-0.1,0.1-0.3,0.1-0.4,0.2c0,0,0,0.1,0,0.1c0,0,0,0.1,0,0.1v1.7h-0.5v-1.5c0-0.1,0-0.2,0-0.3     c0-0.1,0-0.2-0.1-0.3c0-0.1-0.1-0.1-0.2-0.2c-0.1,0-0.2-0.1-0.3-0.1c-0.1,0-0.2,0-0.4,0.1c-0.1,0.1-0.2,0.1-0.4,0.2v2h-0.5v-2.7     h0.5v0.3c0.1-0.1,0.3-0.2,0.4-0.3c0.1-0.1,0.3-0.1,0.5-0.1c0.2,0,0.3,0,0.5,0.1c0.1,0.1,0.2,0.2,0.3,0.3c0.2-0.2,0.4-0.3,0.5-0.3     c0.2-0.1,0.3-0.1,0.5-0.1c0.3,0,0.5,0.1,0.7,0.3c0.1,0.2,0.2,0.4,0.2,0.8V54.2z"/>
      </g>
    </g>
  </g>
</svg>