<?xml version="1.0" encoding="utf-8"?>
<svg viewBox="0 0 124 62" style="enable-background:new 0 0 124 124;" xmlns="http://www.w3.org/2000/svg">
  <defs>
    <style type="text/css">
	.st0{fill:#E73530;}
	.st1{fill:#0066B2;}
	.st2{fill:#F9A533;}
	.st3{fill:#336699;}
	.st4{fill:#003366;}
	.st5{fill:#203C73;}
	.st6{fill:#EE3A3F;}
	.st7{fill:#0067B2;}
	.st8{fill:#FAAC18;}
	.st9{fill:#6AB845;}
	.st10{fill:#231F20;}
	.st11{fill-rule:evenodd;clip-rule:evenodd;fill:#231F20;}
	.st12{fill-rule:evenodd;clip-rule:evenodd;fill:#008060;}
	.st13{fill:#007CC3;}
	.st14{fill:#009DDD;}
	.st15{fill:#FFFFFF;}
	.st16{fill-rule:evenodd;clip-rule:evenodd;fill:#FF9900;}
	.st17{fill-rule:evenodd;clip-rule:evenodd;}
	.st18{fill:#862165;}
	.st19{fill:#58595B;}
	.st20{fill-rule:evenodd;clip-rule:evenodd;fill:#9A9FB8;}
	.st21{fill:#00A551;}
	.st22{fill:#0071BB;}
	.st23{fill:#EC1C24;}
	.st24{fill:#EC1C2E;}
	.st25{fill:#0084C4;}
	.st26{fill:none;stroke:#FFFFFF;stroke-width:0.215;}
	.st27{fill-rule:evenodd;clip-rule:evenodd;fill:#FAA929;}
	.st28{fill-rule:evenodd;clip-rule:evenodd;fill:#045EA0;}
	.st29{fill:url(#SVGID_1_);}
	.st30{fill:url(#SVGID_2_);}
	.st31{fill:url(#SVGID_3_);}
	.st32{fill:url(#SVGID_4_);}
	.st33{fill:#273D49;}
	.st34{fill:#48606D;}
	.st35{fill:#8BB43F;}
	.st36{fill-rule:evenodd;clip-rule:evenodd;fill:#FBB231;}
	.st37{fill-rule:evenodd;clip-rule:evenodd;fill:#EC1C2E;}
	.st38{fill-rule:evenodd;clip-rule:evenodd;fill:#FFFFFF;}
	.st39{fill:none;stroke:#FFFFFF;stroke-width:0.216;stroke-miterlimit:2.6131;}
	.st40{fill-rule:evenodd;clip-rule:evenodd;fill:#121212;}
	.st41{fill:#004A97;}
	.st42{fill:#0078A9;}
	.st43{fill:url(#SVGID_5_);}
	.st44{fill:#001722;}
</style>
  </defs>
  <g transform="matrix(1, 0, 0, 1, 1.7763568394002505e-15, -32.29999923706055)">
    <g>
      <g>
        <polygon class="st40" points="106.2,72.7 105.3,72.7 105.3,51.6 106.2,51.6 106.2,72.7    "/>
        <polygon class="st40" points="96.1,72.6 95.2,72.6 95.2,51.5 96.1,51.5 96.1,72.6    "/>
        <polygon class="st40" points="18.2,60.9 19,54.9 19.9,60.9 24,60.9 26,51.6 22.8,51.6 21.9,57.5 21,51.6 17.1,51.6 16.2,57.3      15.3,51.6 12,51.6 14,60.9 18.2,60.9    "/>
        <polygon class="st40" points="27.6,60.9 35.7,60.9 35.7,58.5 31.6,58.5 31.6,57.4 35.5,57.4 35.5,55 31.6,55 31.6,54 35.6,54      35.6,51.6 27.6,51.6 27.6,60.9    "/>
        <path class="st40" d="M37.5,57.9c0,0.1,0,0.2,0,0.3c0,1.8,1.6,2.8,4.7,2.8c3,0,4.7-1.1,4.7-3.1c0-1.7-1-2.2-3.4-3     c-1.3-0.4-2-0.4-2-1.1c0-0.4,0.2-0.6,0.8-0.6c0.6,0,0.9,0.4,0.9,1h3.5V54c0-1.7-1.5-2.7-4.3-2.7c-3,0-4.7,1.2-4.7,3     c0,1.3,0.8,2.1,2.5,2.6c1.2,0.4,1.9,0.6,2.5,0.9c0.3,0.1,0.4,0.4,0.3,0.7c-0.1,0.4-0.3,0.6-0.8,0.6c-0.7,0-0.9-0.4-0.9-1v-0.1     H37.5L37.5,57.9z"/>
        <polygon class="st40" points="56.8,51.6 47.8,51.6 47.8,54.1 50.3,54.1 50.3,60.9 54.3,60.9 54.3,54.1 56.8,54.1 56.8,51.6         "/>
        <polygon class="st40" points="58.5,60.9 66.6,60.9 66.6,58.5 62.5,58.5 62.5,57.4 66.4,57.4 66.4,55 62.5,55 62.5,54 66.5,54      66.5,51.6 58.5,51.6 58.5,60.9    "/>
        <path class="st40" d="M69.1,60.9H73v-3.3c0.1,0,0.3,0,0.4,0c0.9,0,1.1,0.3,1.2,1.4l0.1,0.7c0.1,0.4,0.2,0.9,0.3,1.3h4     c-0.2-0.7-0.3-1.3-0.4-1.7l-0.1-1c-0.2-1.4-0.7-1.9-1.7-2.1c1.1-0.3,1.9-1.1,1.9-2.2c0-1.9-1.2-2.4-4-2.4h-5.5V60.9L69.1,60.9z      M73,55.3v-1.6c0.2,0,0.3,0,0.4,0c0.9,0,1.3,0.2,1.3,0.8c0,0.6-0.5,0.9-1.4,0.9C73.2,55.3,73.1,55.3,73,55.3L73,55.3z"/>
        <polygon class="st40" points="84,55.6 86.1,60.9 90.7,60.9 90.7,51.6 87.6,51.6 87.6,56.3 85.9,51.6 81,51.6 81,60.9 84,60.9      84,55.6    "/>
        <polygon class="st40" points="52.9,66.8 55,72.2 59.6,72.2 59.6,62.8 56.5,62.8 56.5,67.5 54.8,62.8 49.9,62.8 49.9,72.2      52.9,72.2 52.9,66.8    "/>
        <polygon class="st40" points="84.1,66.8 86.2,72.2 90.8,72.2 90.8,62.8 87.7,62.8 87.7,67.5 86,62.8 81.1,62.8 81.1,72.2      84.1,72.2 84.1,66.8    "/>
        <path class="st40" d="M37.7,62.8v5.7c0,1.1,0.1,1.9,0.9,2.7c0.9,0.8,2.1,1.2,3.9,1.2c3.3,0,4.8-1.2,4.8-3.9v-5.7h-3.9v5.8     c0,0.8-0.3,1.2-0.9,1.2c-0.6,0-0.9-0.4-0.9-1.2v-5.8H37.7L37.7,62.8z"/>
        <polygon class="st40" points="66.1,62.8 62.1,62.8 62.1,72.2 66.1,72.2 66.1,62.8    "/>
        <path class="st40" d="M73.5,72.3c3.6,0,5.5-1.7,5.5-4.9c0-3.1-1.9-4.9-5.3-4.9c-3.4,0-5.4,1.8-5.4,4.9     C68.2,70.5,70.1,72.3,73.5,72.3L73.5,72.3z M73.6,64.7c0.9,0,1.1,0.8,1.1,2.6c0,2-0.2,2.9-1.2,2.9c-0.9,0-1.1-0.9-1.1-2.7     C72.4,65.5,72.6,64.7,73.6,64.7L73.6,64.7z"/>
        <path class="st40" d="M110.5,51.4c-0.4,0-0.8,0.2-1.1,0.4c-0.3,0.3-0.5,0.7-0.5,1.1c0,0.4,0.2,0.8,0.4,1.1     c0.3,0.3,0.7,0.5,1.1,0.5c0.4,0,0.8-0.2,1.1-0.5c0.3-0.3,0.4-0.7,0.4-1.1c0-0.4-0.2-0.8-0.4-1.1     C111.3,51.6,110.9,51.4,110.5,51.4L110.5,51.4z M111.8,53c0,0.4-0.1,0.7-0.4,0.9c-0.3,0.3-0.6,0.4-1,0.4c-0.3,0-0.7-0.1-0.9-0.4     c-0.3-0.3-0.4-0.6-0.4-0.9c0-0.3,0.1-0.7,0.4-1c0.2-0.2,0.6-0.4,0.9-0.4c0.4,0,0.7,0.1,1,0.4C111.7,52.3,111.8,52.6,111.8,53     L111.8,53z M110.5,52.1h-0.7v1.7h0.3V53h0.3l0.4,0.7h0.4l-0.4-0.8c0.3-0.1,0.4-0.2,0.4-0.5C111.2,52.2,111,52.1,110.5,52.1     L110.5,52.1z M110.4,52.3c0.3,0,0.4,0.1,0.4,0.3c0,0.2-0.1,0.3-0.4,0.3h-0.3v-0.6H110.4L110.4,52.3z"/>
      </g>
    </g>
  </g>
</svg>